<?xml version="1.0" encoding="UTF-8"?>
<svg width="143px" height="88px" viewBox="0 0 143 88" version="1.1" xmlns="http://www.w3.org/2000/svg" xmlns:xlink="http://www.w3.org/1999/xlink">
    <!-- Generator: Sketch 55 (78076) - https://sketchapp.com -->
    <title>icn_fluxo_group-users</title>
    <desc>Created with Sketch.</desc>
    <g id="Page-1" stroke="none" stroke-width="1" fill="none" fill-rule="evenodd">
        <g id="Artboard" transform="translate(-4.000000, -31.000000)" fill-rule="nonzero">
            <g id="icn_fluxo_group-users" transform="translate(3.000000, 31.000000)">
                <path d="M113.357143,67 C102.121429,67 87.8214286,74.1555556 83.7357143,79.2666667 C81.1821429,82.3333333 83.7357143,87.4444444 87.8214286,87.4444444 L138.892857,87.4444444 C142.978571,87.4444444 145.532143,82.8444444 142.978571,79.2666667 C138.892857,74.1555556 124.592857,67 113.357143,67 Z" id="Path" fill="#4D5BED"></path>
                <path d="M31.6428571,67 C20.4071429,67 6.10714286,74.1555556 2.02142857,79.2666667 C-0.532142857,82.8444444 2.02142857,87.4444444 6.10714286,87.4444444 L57.1785714,87.4444444 C61.2642857,87.4444444 63.8178571,82.8444444 61.2642857,79.2666667 C57.1785714,74.1555556 42.8785714,67 31.6428571,67 Z" id="Path" fill="#4D5BED"></path>
                <ellipse id="Oval" fill-opacity="0.65" fill="#7C87FB" cx="113.357143" cy="41.4444444" rx="15.3214286" ry="15.3333333"></ellipse>
                <ellipse id="Oval" fill-opacity="0.65" fill="#7C87FB" cx="31.6428571" cy="41.4444444" rx="15.3214286" ry="15.3333333"></ellipse>
                <ellipse id="Oval" fill-opacity="0.65" fill="#7C87FB" cx="72.5" cy="15.8888889" rx="15.3214286" ry="15.3333333"></ellipse>
            </g>
        </g>
    </g>
</svg>