<?xml version="1.0" encoding="UTF-8"?>
<svg width="143px" height="129px" viewBox="0 0 143 129" version="1.1" xmlns="http://www.w3.org/2000/svg" xmlns:xlink="http://www.w3.org/1999/xlink">
    <!-- Generator: Sketch 55 (78076) - https://sketchapp.com -->
    <title>icn_fluxo_office</title>
    <desc>Created with Sketch.</desc>
    <g id="Page-1" stroke="none" stroke-width="1" fill="none" fill-rule="evenodd">
        <g id="Artboard" transform="translate(-4.000000, -11.000000)" fill-rule="nonzero">
            <g id="icn_fluxo_office" transform="translate(4.000000, 11.000000)">
                <rect id="Rectangle" fill="#4D5BED" x="57.2" y="28.6666667" width="14.3" height="14.3333333"></rect>
                <rect id="Rectangle" fill="#4D5BED" x="57.2" y="57.3333333" width="14.3" height="14.3333333"></rect>
                <rect id="Rectangle" fill-opacity="0.65" fill="#7C87FB" x="100.1" y="57.3333333" width="14.3" height="14.3333333"></rect>
                <rect id="Rectangle" fill-opacity="0.65" fill="#7C87FB" x="100.1" y="86" width="14.3" height="14.3333333"></rect>
                <path d="M128.7,28.6666667 L100.1,28.6666667 L100.1,43 L128.7,43 L128.7,114.666667 L100.1,114.666667 L100.1,129 L143,129 L143,43 C143,35.1166667 136.565,28.6666667 128.7,28.6666667 Z" id="Path" fill-opacity="0.65" fill="#7C87FB"></path>
                <rect id="Rectangle" fill="#4D5BED" x="28.6" y="86" width="14.3" height="14.3333333"></rect>
                <rect id="Rectangle" fill="#4D5BED" x="57.2" y="86" width="14.3" height="14.3333333"></rect>
                <path d="M100.1,100.333333 L100.1,86 L100.1,71.6666667 L100.1,57.3333333 L100.1,43 L100.1,28.6666667 L100.1,14.3333333 C100.1,6.45 93.665,0 85.8,0 L14.3,0 C6.435,0 0,6.45 0,14.3333333 L0,129 L100.1,129 L100.1,114.666667 L100.1,100.333333 Z M14.3,14.3333333 L85.8,14.3333333 L85.8,114.666667 L14.3,114.666667 L14.3,14.3333333 Z" id="Shape" fill="#4D5BED"></path>
                <rect id="Rectangle" fill="#4D5BED" x="28.6" y="57.3333333" width="14.3" height="14.3333333"></rect>
                <rect id="Rectangle" fill="#4D5BED" x="28.6" y="28.6666667" width="14.3" height="14.3333333"></rect>
            </g>
        </g>
    </g>
</svg>