<svg class="gridItem__media" version="1.1" id="Layer_1" xmlns="http://www.w3.org/2000/svg" xmlns:xlink="http://www.w3.org/1999/xlink" x="0px" y="0px" width="1600" height="1200" viewBox="0 0 1600 1200" style="enable-background:new 0 0 1600 1200;" xml:space="preserve" fill="none">
<path d="M221.709 1074.19L175.539 508.241C174.369 493.828 178.38 479.471 186.849 467.751L417.219 148.911C423.376 140.393 431.639 133.619 441.199 129.253C450.759 124.886 461.29 123.077 471.759 124.001L1260.4 193.541C1272.88 194.639 1284.72 199.575 1294.29 207.67C1303.85 215.764 1310.68 226.621 1313.83 238.751L1422.18 655.751C1424.85 666.004 1424.79 676.779 1422 687.001L1316 1075.6L221.709 1074.19Z" fill="#F4F4F4"/>
<path d="M415.799 593.039H407.439V1076H415.799V593.039Z" fill="#DADDDF"/>
<path d="M524.469 593.039H516.109V1076H524.469V593.039Z" fill="#DADDDF"/>
<path d="M598.77 567.961H590.41V1050.92H598.77V567.961Z" fill="#DADDDF"/>
<path d="M446.439 574.461H440.869V1057.42H446.439V574.461Z" fill="#DADDDF"/>
<path d="M609.909 647.828H412.939V655.258H609.909V647.828Z" fill="#DADDDF"/>
<path d="M606.531 745.359H409.561V752.789H606.531V745.359Z" fill="#DADDDF"/>
<path d="M600.221 872.602H409.641V880.032H600.221V872.602Z" fill="#DADDDF"/>
<path d="M599.881 940.398H409.301V947.828H599.881V940.398Z" fill="#DADDDF"/>
<path d="M710.141 448.02H701.971V992.43H710.141V448.02Z" fill="#DADDDF"/>
<path d="M816.311 448.02H808.141V992.43H816.311V448.02Z" fill="#DADDDF"/>
<path d="M888.891 423.52H880.721V967.93H888.891V423.52Z" fill="#DADDDF"/>
<path d="M740.081 429.871H734.641V974.281H740.081V429.871Z" fill="#DADDDF"/>
<path d="M899.78 583.211H707.35V590.471H899.78V583.211Z" fill="#DADDDF"/>
<path d="M896.481 678.488H704.051V685.748H896.481V678.488Z" fill="#DADDDF"/>
<path d="M890.311 802.789H704.131V810.049H890.311V802.789Z" fill="#DADDDF"/>
<path d="M889.969 869.031H703.789V876.291H889.969V869.031Z" fill="#DADDDF"/>
<path d="M1119.83 992.43H1129.34V448.02H1119.83V992.43Z" fill="#DADDDF"/>
<path d="M996.14 992.43H1005.65L1005.65 448.02H996.14L996.14 992.43Z" fill="#DADDDF"/>
<path d="M911.56 967.93H921.07L921.07 423.52H911.56L911.56 967.93Z" fill="#DADDDF"/>
<path d="M1084.94 974.289H1091.28V429.879H1084.94V974.289Z" fill="#DADDDF"/>
<path d="M898.87 590.48H1123.08V583.221H898.87V590.48Z" fill="#DADDDF"/>
<path d="M895.46 685.738H1126.93V678.478H895.46V685.738Z" fill="#DADDDF"/>
<path d="M909.9 810.059H1126.83V802.799H909.9V810.059Z" fill="#DADDDF"/>
<path d="M910.3 876.289H1127.23V869.029H910.3V876.289Z" fill="#DADDDF"/>
<path d="M1344.76 1077.45H201.129C200.912 1077.49 200.689 1077.47 200.477 1077.41C200.264 1077.36 200.067 1077.25 199.899 1077.11C199.731 1076.97 199.596 1076.79 199.504 1076.59C199.411 1076.39 199.363 1076.17 199.363 1075.95C199.363 1075.73 199.411 1075.51 199.504 1075.31C199.596 1075.11 199.731 1074.93 199.899 1074.79C200.067 1074.65 200.264 1074.54 200.477 1074.49C200.689 1074.43 200.912 1074.41 201.129 1074.45H1344.76C1345.11 1074.51 1345.44 1074.69 1345.67 1074.97C1345.91 1075.24 1346.03 1075.59 1346.03 1075.95C1346.03 1076.31 1345.91 1076.66 1345.67 1076.93C1345.44 1077.21 1345.11 1077.39 1344.76 1077.45V1077.45Z" fill="#B2B6BB"/>
<path d="M367.361 620.898H365.641V647.828H367.361V620.898Z" fill="#61656D"/>
<path d="M375.13 620.898H373.41V647.828H375.13V620.898Z" fill="#61656D"/>
<path d="M381.159 620.898H379.439V647.828H381.159V620.898Z" fill="#61656D"/>
<path d="M389.79 620.898H388.07V647.828H389.79V620.898Z" fill="#61656D"/>
<path d="M555.909 593.039H554.189V619.969H555.909V593.039Z" fill="#61656D"/>
<path d="M563.669 593.039H561.949V619.969H563.669V593.039Z" fill="#61656D"/>
<path d="M569.701 593.039H567.98V619.969H569.701V593.039Z" fill="#61656D"/>
<path d="M578.329 593.039H576.609V619.969H578.329V593.039Z" fill="#61656D"/>
<path d="M393.51 647.828H374.93V691.478H393.51V647.828Z" fill="#B2B6BB"/>
<path d="M582.98 619.969H564.4V691.489H582.98V619.969Z" fill="#B2B6BB"/>
<path d="M628.351 622.762H626.631V649.692H628.351V622.762Z" fill="#61656D"/>
<path d="M636.111 622.762H634.391V649.692H636.111V622.762Z" fill="#61656D"/>
<path d="M642.15 622.762H640.43V649.692H642.15V622.762Z" fill="#61656D"/>
<path d="M650.771 622.762H649.051V649.692H650.771V622.762Z" fill="#61656D"/>
<path d="M655.43 649.691H636.85V693.341H655.43V649.691Z" fill="#B2B6BB"/>
<path d="M645.21 649.691H621.99V693.341H645.21V649.691Z" fill="#DADDDF"/>
<path d="M462.101 632.051H460.381V658.981H462.101V632.051Z" fill="#61656D"/>
<path d="M469.861 632.051H468.141V658.981H469.861V632.051Z" fill="#61656D"/>
<path d="M475.9 632.051H474.18V658.981H475.9V632.051Z" fill="#61656D"/>
<path d="M484.521 632.051H482.801V658.981H484.521V632.051Z" fill="#61656D"/>
<path d="M489.18 658.051H470.6V693.341H489.18V658.051Z" fill="#B2B6BB"/>
<path d="M686.999 691.488H554.189V1073.5H686.999V691.488Z" fill="#B2B6BB"/>
<path d="M393.639 822.891H384.119V897.881H393.639V822.891Z" fill="#B2B6BB"/>
<path d="M387.779 822.891V897.891H455.779V822.891H387.779ZM452.159 893.711H391.159V826.341H452.159V893.711Z" fill="#868A91"/>
<path d="M487.45 822.891H477.93V897.881H487.45V822.891Z" fill="#B2B6BB"/>
<path d="M481.59 822.891V897.891H549.54V822.891H481.59ZM546 893.711H485V826.341H546V893.711Z" fill="#868A91"/>
<path d="M393.639 719.801H384.119V794.791H393.639V719.801Z" fill="#B2B6BB"/>
<path d="M487.45 719.801H477.93V794.791H487.45V719.801Z" fill="#B2B6BB"/>
<path d="M393.639 923.199H384.119V998.189H393.639V923.199Z" fill="#B2B6BB"/>
<path d="M387.779 923.199V998.199H455.779V923.199H387.779ZM452.159 993.999H391.159V926.639H452.159V993.999Z" fill="#868A91"/>
<path d="M572.76 691.49V620H549.54V691.52H479V658.05H455.74V691.49H384.22V647.83H361V1074.14H573V691.49H572.76ZM455.76 998.19H384.12V923.19H455.74L455.76 998.19ZM455.76 897.88H384.12V822.88H455.74L455.76 897.88ZM455.76 794.79H384.12V719.79H455.74L455.76 794.79ZM549.56 998.19H477.93V923.19H549.54L549.56 998.19ZM549.56 897.88H477.93V822.88H549.54L549.56 897.88ZM549.56 794.79H477.93V719.79H549.54L549.56 794.79Z" fill="#DADDDF"/>
<path d="M487.45 923.199H477.93V998.189H487.45V923.199Z" fill="#B2B6BB"/>
<path d="M481.59 923.199V998.199H549.54V923.199H481.59ZM546 993.999H485V926.639H546V993.999Z" fill="#868A91"/>
<path d="M932.619 486.129V1074H1176.52V486.129H932.619ZM1057.62 631.369H985.719V529.599H1057.62V631.369ZM1152.62 896.159H1080.73V794.399H1152.62V896.159ZM1152.62 763.769H1080.73V661.999H1152.62V763.769ZM1152.62 631.369H1080.73V529.599H1152.62V631.369Z" class="change-color-in-svg" fill="#4D61FC"/>
<path opacity="0.5" d="M932.619 486.129V1074H1176.52V486.129H932.619ZM1057.62 631.369H985.719V529.599H1057.62V631.369ZM1152.62 896.159H1080.73V794.399H1152.62V896.159ZM1152.62 763.769H1080.73V661.999H1152.62V763.769ZM1152.62 631.369H1080.73V529.599H1152.62V631.369Z" fill="white"/>
<path d="M1152.56 794.398H1141.64V896.168H1152.56V794.398Z" class="change-color-in-svg" fill="#4D61FC"/>
<path opacity="0.5" d="M1152.56 794.398H1141.64V896.168H1152.56V794.398Z" fill="white"/>
<path opacity="0.1" d="M1152.56 794.398H1141.64V896.168H1152.56V794.398Z" fill="black"/>
<path d="M1057.58 794.398H985.68V896.168H1057.58V794.398Z" fill="#F4F4F4"/>
<path d="M1057.58 794.398H1046.66V896.168H1057.58V794.398Z" class="change-color-in-svg" fill="#4D61FC"/>
<path opacity="0.5" d="M1057.58 794.398H1046.66V896.168H1057.58V794.398Z" fill="white"/>
<path opacity="0.1" d="M1057.58 794.398H1046.66V896.168H1057.58V794.398Z" fill="black"/>
<path d="M985.68 896.16H1050.48V794.39H985.68V896.16Z" fill="#3F4249"/>
<path d="M1018.08 889.25H1046.23V800.33H1018.08V889.25Z" fill="#F4F4F4"/>
<path opacity="0.2" d="M1018.08 889.25H1046.23V800.33H1018.08V889.25Z" class="change-color-in-svg" fill="#4D61FC"/>
<path d="M985.679 889.25H1014.36V800.33H985.679V889.25Z" fill="#F4F4F4"/>
<path opacity="0.2" d="M985.679 889.25H1014.36V800.33H985.679V889.25Z" class="change-color-in-svg" fill="#4D61FC"/>
<path opacity="0.5" d="M985.68 800.328L1014.36 877.388V889.248H1011.71L985.68 822.058V800.328Z" fill="white"/>
<path opacity="0.6" d="M985.68 800.328H988.28L1014.36 871.708V877.388L985.68 800.328Z" fill="white"/>
<path d="M990.309 800.328L1014.36 866.128V868.018L989.619 800.328H990.309Z" fill="#E4E4ED"/>
<path opacity="0.5" d="M992.589 800.328L1014.36 859.608V864.618L990.859 800.328H992.589Z" fill="white"/>
<path opacity="0.5" d="M990.861 800.328L1014.36 864.618V866.128L990.311 800.328H990.861Z" fill="white"/>
<path opacity="0.5" d="M1005.33 800.328L1014.36 823.748V830.678L1002.54 800.328H1005.33Z" fill="white"/>
<path opacity="0.7" d="M1002.54 800.328L1014.36 830.678V836.198L999.5 800.328H1002.54Z" fill="white"/>
<path opacity="0.7" d="M985.68 856.641L997.9 889.251H995.24L985.68 863.561V856.641Z" fill="white"/>
<path opacity="0.5" d="M1018.08 800.328L1046.23 877.388V889.248H1043.62L1018.08 822.058V800.328Z" fill="white"/>
<path opacity="0.6" d="M1018.08 800.328H1020.63L1046.23 871.708V877.388L1018.08 800.328Z" fill="white"/>
<path d="M1022.62 800.328L1046.23 866.128V868.018L1021.95 800.328H1022.62Z" fill="#E4E4ED"/>
<path opacity="0.5" d="M1024.86 800.328L1046.23 859.608V864.618L1023.17 800.328H1024.86Z" fill="white"/>
<path opacity="0.5" d="M1023.17 800.328L1046.23 864.618V866.128L1022.62 800.328H1023.17Z" fill="white"/>
<path opacity="0.5" d="M1037.36 800.328L1046.23 823.748V830.678L1034.63 800.328H1037.36Z" fill="white"/>
<path opacity="0.7" d="M1034.63 800.328L1046.23 830.678V836.198L1031.63 800.328H1034.63Z" fill="white"/>
<path opacity="0.7" d="M1018.08 856.641L1030.07 889.251H1027.46L1018.08 863.561V856.641Z" fill="white"/>
<path opacity="0.3" d="M1045.17 889.25H1046.23V800.33H1045.17V889.25Z" fill="black"/>
<path opacity="0.3" d="M1013.3 889.25H1014.36V800.33H1013.3V889.25Z" fill="black"/>
<path d="M1057.58 926.789H985.68V1028.56H1057.58V926.789Z" fill="#F4F4F4"/>
<path d="M1057.58 926.789H1046.66V1028.56H1057.58V926.789Z" class="change-color-in-svg" fill="#4D61FC"/>
<path opacity="0.5" d="M1057.58 926.789H1046.66V1028.56H1057.58V926.789Z" fill="white"/>
<path opacity="0.1" d="M1057.58 926.789H1046.66V1028.56H1057.58V926.789Z" fill="black"/>
<path d="M985.68 1028.57H1050.48V926.8H985.68V1028.57Z" fill="#3F4249"/>
<path d="M1018.08 1021.65H1046.23V932.728H1018.08V1021.65Z" fill="#F4F4F4"/>
<path opacity="0.2" d="M1018.08 1021.65H1046.23V932.728H1018.08V1021.65Z" class="change-color-in-svg" fill="#4D61FC"/>
<path d="M985.679 1021.65H1014.36V932.728H985.679V1021.65Z" fill="#F4F4F4"/>
<path opacity="0.2" d="M985.679 1021.65H1014.36V932.728H985.679V1021.65Z" class="change-color-in-svg" fill="#4D61FC"/>
<path opacity="0.5" d="M985.68 932.719L1014.36 1009.79V1021.65H1011.71L985.68 954.459V932.719Z" fill="white"/>
<path opacity="0.6" d="M985.68 932.719H988.28L1014.36 1004.1V1009.79L985.68 932.719Z" fill="white"/>
<path d="M990.309 932.719L1014.36 998.529V1000.42L989.619 932.719H990.309Z" fill="#E4E4ED"/>
<path opacity="0.5" d="M992.589 932.719L1014.36 991.999V997.019L990.859 932.719H992.589Z" fill="white"/>
<path opacity="0.5" d="M990.861 932.719L1014.36 997.019V998.529L990.311 932.719H990.861Z" fill="white"/>
<path opacity="0.5" d="M1005.33 932.719L1014.36 956.149V963.079L1002.54 932.719H1005.33Z" fill="white"/>
<path opacity="0.7" d="M1002.54 932.719L1014.36 963.079V968.599L999.5 932.719H1002.54Z" fill="white"/>
<path opacity="0.7" d="M985.68 989.039L997.9 1021.65H995.24L985.68 995.959V989.039Z" fill="white"/>
<path opacity="0.5" d="M1018.08 932.719L1046.23 1009.79V1021.65H1043.62L1018.08 954.459V932.719Z" fill="white"/>
<path opacity="0.6" d="M1018.08 932.719H1020.63L1046.23 1004.1V1009.79L1018.08 932.719Z" fill="white"/>
<path d="M1022.62 932.719L1046.23 998.529V1000.42L1021.95 932.719H1022.62Z" fill="#E4E4ED"/>
<path opacity="0.5" d="M1024.86 932.719L1046.23 991.999V997.019L1023.17 932.719H1024.86Z" fill="white"/>
<path opacity="0.5" d="M1023.17 932.719L1046.23 997.019V998.529L1022.62 932.719H1023.17Z" fill="white"/>
<path opacity="0.5" d="M1037.36 932.719L1046.23 956.149V963.079L1034.63 932.719H1037.36Z" fill="white"/>
<path opacity="0.7" d="M1034.63 932.719L1046.23 963.079V968.599L1031.63 932.719H1034.63Z" fill="white"/>
<path opacity="0.7" d="M1018.08 989.039L1030.07 1021.65H1027.46L1018.08 995.959V989.039Z" fill="white"/>
<path opacity="0.3" d="M1045.17 1021.65H1046.23V932.728H1045.17V1021.65Z" fill="black"/>
<path opacity="0.3" d="M1013.3 1021.65H1014.36V932.728H1013.3V1021.65Z" fill="black"/>
<path d="M1152.56 926.789H1080.66V1028.56H1152.56V926.789Z" fill="#F4F4F4"/>
<path d="M1152.56 926.789H1141.64V1028.56H1152.56V926.789Z" class="change-color-in-svg" fill="#4D61FC"/>
<path opacity="0.5" d="M1152.56 926.789H1141.64V1028.56H1152.56V926.789Z" fill="white"/>
<path opacity="0.1" d="M1152.56 926.789H1141.64V1028.56H1152.56V926.789Z" fill="black"/>
<path d="M1080.65 1028.57H1145.45V926.8H1080.65V1028.57Z" fill="#3F4249"/>
<path d="M1113.05 1021.65H1141.2V932.728H1113.05V1021.65Z" fill="#F4F4F4"/>
<path opacity="0.2" d="M1113.05 1021.65H1141.2V932.728H1113.05V1021.65Z" class="change-color-in-svg" fill="#4D61FC"/>
<path d="M1080.65 1021.65H1109.33V932.728H1080.65V1021.65Z" fill="#F4F4F4"/>
<path opacity="0.2" d="M1080.65 1021.65H1109.33V932.728H1080.65V1021.65Z" class="change-color-in-svg" fill="#4D61FC"/>
<path opacity="0.5" d="M1080.66 932.719L1109.34 1009.79V1021.65H1106.68L1080.66 954.459V932.719Z" fill="white"/>
<path opacity="0.6" d="M1080.66 932.719H1083.25L1109.34 1004.1V1009.79L1080.66 932.719Z" fill="white"/>
<path d="M1085.29 932.719L1109.34 998.529V1000.42L1084.6 932.719H1085.29Z" fill="#E4E4ED"/>
<path opacity="0.5" d="M1087.56 932.719L1109.34 991.999V997.019L1085.84 932.719H1087.56Z" fill="white"/>
<path opacity="0.5" d="M1085.84 932.719L1109.34 997.019V998.529L1085.29 932.719H1085.84Z" fill="white"/>
<path opacity="0.5" d="M1100.3 932.719L1109.34 956.149V963.079L1097.52 932.719H1100.3Z" fill="white"/>
<path opacity="0.7" d="M1097.52 932.719L1109.34 963.079V968.599L1094.48 932.719H1097.52Z" fill="white"/>
<path opacity="0.7" d="M1080.66 989.039L1092.87 1021.65H1090.22L1080.66 995.959V989.039Z" fill="white"/>
<path opacity="0.5" d="M1113.06 932.719L1141.2 1009.79V1021.65H1138.6L1113.06 954.459V932.719Z" fill="white"/>
<path opacity="0.6" d="M1113.06 932.719H1115.6L1141.2 1004.1V1009.79L1113.06 932.719Z" fill="white"/>
<path d="M1117.6 932.719L1141.2 998.529V1000.42L1116.92 932.719H1117.6Z" fill="#E4E4ED"/>
<path opacity="0.5" d="M1119.83 932.719L1141.2 991.999V997.019L1118.14 932.719H1119.83Z" fill="white"/>
<path opacity="0.5" d="M1118.14 932.719L1141.2 997.019V998.529L1117.6 932.719H1118.14Z" fill="white"/>
<path opacity="0.5" d="M1132.34 932.719L1141.2 956.149V963.079L1129.6 932.719H1132.34Z" fill="white"/>
<path opacity="0.7" d="M1129.6 932.719L1141.2 963.079V968.599L1126.61 932.719H1129.6Z" fill="white"/>
<path opacity="0.7" d="M1113.06 989.039L1125.05 1021.65H1122.44L1113.06 995.959V989.039Z" fill="white"/>
<path opacity="0.3" d="M1140.15 1021.65H1141.21V932.728H1140.15V1021.65Z" fill="black"/>
<path opacity="0.3" d="M1108.27 1021.65H1109.33V932.728H1108.27V1021.65Z" fill="black"/>
<path d="M645.721 486.129V1075H955.501V486.129H645.721ZM788.631 631.369H672.351V529.599H788.631V631.369ZM926.211 763.769H809.931V661.999H926.211V763.769ZM926.211 631.369H809.931V529.599H926.211V631.369Z" class="change-color-in-svg" fill="#4D61FC"/>
<path opacity="0.7" d="M645.721 486.129V1075H955.501V486.129H645.721ZM788.631 631.369H672.351V529.599H788.631V631.369ZM926.211 763.769H809.931V661.999H926.211V763.769ZM926.211 631.369H809.931V529.599H926.211V631.369Z" fill="white"/>
<path d="M788.63 794.398H672.35V896.168H788.63V794.398Z" fill="white"/>
<path d="M683.89 794.398H672.35V896.168H683.89V794.398Z" class="change-color-in-svg" fill="#4D61FC"/>
<path opacity="0.5" d="M683.89 794.398H672.35V896.168H683.89V794.398Z" fill="white"/>
<path d="M788.63 794.398H680.34V896.168H788.63V794.398Z" fill="#3F4249"/>
<path d="M734.479 800.32H687.439V889.24H734.479V800.32Z" fill="#F4F4F4"/>
<path opacity="0.2" d="M734.479 800.32H687.439V889.24H734.479V800.32Z" class="change-color-in-svg" fill="#4D61FC"/>
<path d="M788.629 800.32H740.699V889.24H788.629V800.32Z" fill="#F4F4F4"/>
<path opacity="0.2" d="M788.629 800.32H740.699V889.24H788.629V800.32Z" class="change-color-in-svg" fill="#4D61FC"/>
<path opacity="0.5" d="M788.629 800.328L740.699 877.388V889.248H745.129L788.629 817.118V800.328Z" fill="white"/>
<path opacity="0.6" d="M788.629 800.328H784.289L740.699 871.708V877.388L788.629 800.328Z" fill="white"/>
<path d="M780.889 800.328L740.699 866.128V868.018L782.039 800.328H780.889Z" fill="#E4E4ED"/>
<path opacity="0.5" d="M777.089 800.328L740.699 859.608V864.618L779.969 800.328H777.089Z" fill="white"/>
<path opacity="0.5" d="M779.969 800.328L740.699 864.618V866.128L780.889 800.328H779.969Z" fill="white"/>
<path opacity="0.5" d="M755.789 800.328L740.699 823.748V830.678L760.449 800.328H755.789Z" fill="white"/>
<path opacity="0.7" d="M760.449 800.328L740.699 830.678V836.198L764.039 800.328H760.449Z" fill="white"/>
<path opacity="0.7" d="M788.631 856.641L768.211 889.251H772.651L788.631 863.561V856.641Z" fill="white"/>
<path opacity="0.5" d="M734.479 800.328L687.439 877.388V889.248H691.789L734.479 817.118V800.328Z" fill="white"/>
<path opacity="0.6" d="M734.479 800.328H730.229L687.439 871.708V877.388L734.479 800.328Z" fill="white"/>
<path d="M726.889 800.328L687.439 866.128V868.018L728.019 800.328H726.889Z" fill="#E4E4ED"/>
<path opacity="0.5" d="M723.159 800.328L687.439 859.608V864.618L725.979 800.328H723.159Z" fill="white"/>
<path opacity="0.5" d="M725.979 800.328L687.439 864.618V866.128L726.889 800.328H725.979Z" fill="white"/>
<path opacity="0.5" d="M702.259 800.328L687.439 823.748V830.678L706.829 800.328H702.259Z" fill="white"/>
<path opacity="0.7" d="M706.829 800.328L687.439 830.678V836.198L710.349 800.328H706.829Z" fill="white"/>
<path opacity="0.7" d="M734.479 856.641L714.449 889.251H718.799L734.479 863.561V856.641Z" fill="white"/>
<path opacity="0.3" d="M689.219 800.32H687.439V889.24H689.219V800.32Z" fill="black"/>
<path opacity="0.3" d="M742.479 800.32H740.699V889.24H742.479V800.32Z" fill="black"/>
<path d="M926.21 794.398H809.93V896.168H926.21V794.398Z" fill="white"/>
<path d="M821.47 794.398H809.93V896.168H821.47V794.398Z" class="change-color-in-svg" fill="#4D61FC"/>
<path opacity="0.5" d="M821.47 794.398H809.93V896.168H821.47V794.398Z" fill="white"/>
<path d="M926.21 794.398H817.92V896.168H926.21V794.398Z" fill="#3F4249"/>
<path d="M872.06 800.32H825.02V889.24H872.06V800.32Z" fill="#F4F4F4"/>
<path opacity="0.2" d="M872.06 800.32H825.02V889.24H872.06V800.32Z" class="change-color-in-svg" fill="#4D61FC"/>
<path d="M926.209 800.32H878.279V889.24H926.209V800.32Z" fill="#F4F4F4"/>
<path opacity="0.2" d="M926.209 800.32H878.279V889.24H926.209V800.32Z" class="change-color-in-svg" fill="#4D61FC"/>
<path opacity="0.5" d="M926.209 800.328L878.279 877.388V889.248H882.719L926.209 817.118V800.328Z" fill="white"/>
<path opacity="0.6" d="M926.209 800.328H921.869L878.279 871.708V877.388L926.209 800.328Z" fill="white"/>
<path d="M918.469 800.328L878.279 866.128V868.018L919.619 800.328H918.469Z" fill="#E4E4ED"/>
<path opacity="0.5" d="M914.669 800.328L878.279 859.608V864.618L917.549 800.328H914.669Z" fill="white"/>
<path opacity="0.5" d="M917.549 800.328L878.279 864.618V866.128L918.469 800.328H917.549Z" fill="white"/>
<path opacity="0.5" d="M893.379 800.328L878.279 823.748V830.678L898.029 800.328H893.379Z" fill="white"/>
<path opacity="0.7" d="M898.029 800.328L878.279 830.678V836.198L901.629 800.328H898.029Z" fill="white"/>
<path opacity="0.7" d="M926.209 856.641L905.789 889.251H910.229L926.209 863.561V856.641Z" fill="white"/>
<path opacity="0.5" d="M872.06 800.328L825.02 877.388V889.248H829.38L872.06 817.118V800.328Z" fill="white"/>
<path opacity="0.6" d="M872.06 800.328H867.81L825.02 871.708V877.388L872.06 800.328Z" fill="white"/>
<path d="M864.469 800.328L825.02 866.128V868.018L865.599 800.328H864.469Z" fill="#E4E4ED"/>
<path opacity="0.5" d="M860.74 800.328L825.02 859.608V864.618L863.56 800.328H860.74Z" fill="white"/>
<path opacity="0.5" d="M863.56 800.328L825.02 864.618V866.128L864.469 800.328H863.56Z" fill="white"/>
<path opacity="0.5" d="M839.84 800.328L825.02 823.748V830.678L844.409 800.328H839.84Z" fill="white"/>
<path opacity="0.7" d="M844.409 800.328L825.02 830.678V836.198L847.93 800.328H844.409Z" fill="white"/>
<path opacity="0.7" d="M872.059 856.641L852.029 889.251H856.379L872.059 863.561V856.641Z" fill="white"/>
<path opacity="0.3" d="M826.799 800.32H825.02V889.24H826.799V800.32Z" fill="black"/>
<path opacity="0.3" d="M880.059 800.32H878.279V889.24H880.059V800.32Z" fill="black"/>
<path d="M788.63 926.789H672.35V1028.56H788.63V926.789Z" fill="white"/>
<path d="M683.89 926.789H672.35V1028.56H683.89V926.789Z" class="change-color-in-svg" fill="#4D61FC"/>
<path opacity="0.5" d="M683.89 926.789H672.35V1028.56H683.89V926.789Z" fill="white"/>
<path d="M788.63 926.789H680.34V1028.56H788.63V926.789Z" fill="#3F4249"/>
<path d="M734.479 932.719H687.439V1021.64H734.479V932.719Z" fill="#F4F4F4"/>
<path opacity="0.2" d="M734.479 932.719H687.439V1021.64H734.479V932.719Z" class="change-color-in-svg" fill="#4D61FC"/>
<path d="M788.629 932.719H740.699V1021.64H788.629V932.719Z" fill="#F4F4F4"/>
<path opacity="0.2" d="M788.629 932.719H740.699V1021.64H788.629V932.719Z" class="change-color-in-svg" fill="#4D61FC"/>
<path opacity="0.5" d="M788.629 932.719L740.699 1009.79V1021.65H745.129L788.629 949.519V932.719Z" fill="white"/>
<path opacity="0.6" d="M788.629 932.719H784.289L740.699 1004.1V1009.79L788.629 932.719Z" fill="white"/>
<path d="M780.889 932.719L740.699 998.529V1000.42L782.039 932.719H780.889Z" fill="#E4E4ED"/>
<path opacity="0.5" d="M777.089 932.719L740.699 991.999V997.019L779.969 932.719H777.089Z" fill="white"/>
<path opacity="0.5" d="M779.969 932.719L740.699 997.019V998.529L780.889 932.719H779.969Z" fill="white"/>
<path opacity="0.5" d="M755.789 932.719L740.699 956.149V963.079L760.449 932.719H755.789Z" fill="white"/>
<path opacity="0.7" d="M760.449 932.719L740.699 963.079V968.599L764.039 932.719H760.449Z" fill="white"/>
<path opacity="0.7" d="M788.631 989.039L768.211 1021.65H772.651L788.631 995.959V989.039Z" fill="white"/>
<path opacity="0.5" d="M734.479 932.719L687.439 1009.79V1021.65H691.789L734.479 949.519V932.719Z" fill="white"/>
<path opacity="0.6" d="M734.479 932.719H730.229L687.439 1004.1V1009.79L734.479 932.719Z" fill="white"/>
<path d="M726.889 932.719L687.439 998.529V1000.42L728.019 932.719H726.889Z" fill="#E4E4ED"/>
<path opacity="0.5" d="M723.159 932.719L687.439 991.999V997.019L725.979 932.719H723.159Z" fill="white"/>
<path opacity="0.5" d="M725.979 932.719L687.439 997.019V998.529L726.889 932.719H725.979Z" fill="white"/>
<path opacity="0.5" d="M702.259 932.719L687.439 956.149V963.079L706.829 932.719H702.259Z" fill="white"/>
<path opacity="0.7" d="M706.829 932.719L687.439 963.079V968.599L710.349 932.719H706.829Z" fill="white"/>
<path opacity="0.7" d="M734.479 989.039L714.449 1021.65H718.799L734.479 995.959V989.039Z" fill="white"/>
<path opacity="0.3" d="M689.219 932.719H687.439V1021.64H689.219V932.719Z" fill="black"/>
<path opacity="0.3" d="M742.479 932.719H740.699V1021.64H742.479V932.719Z" fill="black"/>
<path d="M926.21 926.789H809.93V1028.56H926.21V926.789Z" fill="white"/>
<path d="M821.47 926.789H809.93V1028.56H821.47V926.789Z" class="change-color-in-svg" fill="#4D61FC"/>
<path opacity="0.5" d="M821.47 926.789H809.93V1028.56H821.47V926.789Z" fill="white"/>
<path d="M926.21 926.789H817.92V1028.56H926.21V926.789Z" fill="#3F4249"/>
<path d="M872.06 932.719H825.02V1021.64H872.06V932.719Z" fill="#F4F4F4"/>
<path opacity="0.2" d="M872.06 932.719H825.02V1021.64H872.06V932.719Z" class="change-color-in-svg" fill="#4D61FC"/>
<path d="M926.209 932.719H878.279V1021.64H926.209V932.719Z" fill="#F4F4F4"/>
<path opacity="0.2" d="M926.209 932.719H878.279V1021.64H926.209V932.719Z" class="change-color-in-svg" fill="#4D61FC"/>
<path opacity="0.5" d="M926.209 932.719L878.279 1009.79V1021.65H882.719L926.209 949.519V932.719Z" fill="white"/>
<path opacity="0.6" d="M926.209 932.719H921.869L878.279 1004.1V1009.79L926.209 932.719Z" fill="white"/>
<path d="M918.469 932.719L878.279 998.529V1000.42L919.619 932.719H918.469Z" fill="#E4E4ED"/>
<path opacity="0.5" d="M914.669 932.719L878.279 991.999V997.019L917.549 932.719H914.669Z" fill="white"/>
<path opacity="0.5" d="M917.549 932.719L878.279 997.019V998.529L918.469 932.719H917.549Z" fill="white"/>
<path opacity="0.5" d="M893.379 932.719L878.279 956.149V963.079L898.029 932.719H893.379Z" fill="white"/>
<path opacity="0.7" d="M898.029 932.719L878.279 963.079V968.599L901.629 932.719H898.029Z" fill="white"/>
<path opacity="0.7" d="M926.209 989.039L905.789 1021.65H910.229L926.209 995.959V989.039Z" fill="white"/>
<path opacity="0.5" d="M872.06 932.719L825.02 1009.79V1021.65H829.38L872.06 949.519V932.719Z" fill="white"/>
<path opacity="0.6" d="M872.06 932.719H867.81L825.02 1004.1V1009.79L872.06 932.719Z" fill="white"/>
<path d="M864.469 932.719L825.02 998.529V1000.42L865.599 932.719H864.469Z" fill="#E4E4ED"/>
<path opacity="0.5" d="M860.74 932.719L825.02 991.999V997.019L863.56 932.719H860.74Z" fill="white"/>
<path opacity="0.5" d="M863.56 932.719L825.02 997.019V998.529L864.469 932.719H863.56Z" fill="white"/>
<path opacity="0.5" d="M839.84 932.719L825.02 956.149V963.079L844.409 932.719H839.84Z" fill="white"/>
<path opacity="0.7" d="M844.409 932.719L825.02 963.079V968.599L847.93 932.719H844.409Z" fill="white"/>
<path opacity="0.7" d="M872.059 989.039L852.029 1021.65H856.379L872.059 995.959V989.039Z" fill="white"/>
<path opacity="0.3" d="M826.799 932.719H825.02V1021.64H826.799V932.719Z" fill="black"/>
<path opacity="0.3" d="M880.059 932.719H878.279V1021.64H880.059V932.719Z" fill="black"/>
<path d="M683.89 529.602H672.35V631.372H683.89V529.602Z" class="change-color-in-svg" fill="#4D61FC"/>
<path d="M788.63 662H672.35V763.77H788.63V662Z" fill="white"/>
<path d="M683.89 662H672.35V763.77H683.89V662Z" class="change-color-in-svg" fill="#4D61FC"/>
<path opacity="0.5" d="M683.89 662H672.35V763.77H683.89V662Z" fill="white"/>
<path d="M788.63 662H680.34V763.77H788.63V662Z" fill="#3F4249"/>
<path d="M734.479 667.93H687.439V756.85H734.479V667.93Z" fill="#F4F4F4"/>
<path opacity="0.2" d="M734.479 667.93H687.439V756.85H734.479V667.93Z" class="change-color-in-svg" fill="#4D61FC"/>
<path d="M788.629 667.93H740.699V756.85H788.629V667.93Z" fill="#F4F4F4"/>
<path opacity="0.2" d="M788.629 667.93H740.699V756.85H788.629V667.93Z" class="change-color-in-svg" fill="#4D61FC"/>
<path opacity="0.5" d="M788.629 667.93L740.699 745V756.85H745.129L788.629 684.72V667.93Z" fill="white"/>
<path opacity="0.6" d="M788.629 667.93H784.289L740.699 739.31V745L788.629 667.93Z" fill="white"/>
<path d="M780.889 667.93L740.699 733.74V735.63L782.039 667.93H780.889Z" fill="#E4E4ED"/>
<path opacity="0.5" d="M777.089 667.93L740.699 727.21V732.23L779.969 667.93H777.089Z" fill="white"/>
<path opacity="0.5" d="M779.969 667.93L740.699 732.23V733.74L780.889 667.93H779.969Z" fill="white"/>
<path opacity="0.5" d="M755.789 667.93L740.699 691.35V698.29L760.449 667.93H755.789Z" fill="white"/>
<path opacity="0.7" d="M760.449 667.93L740.699 698.29V703.81L764.039 667.93H760.449Z" fill="white"/>
<path opacity="0.7" d="M788.631 724.25L768.211 756.85H772.651L788.631 731.16V724.25Z" fill="white"/>
<path opacity="0.5" d="M734.479 667.93L687.439 745V756.85H691.789L734.479 684.72V667.93Z" fill="white"/>
<path opacity="0.6" d="M734.479 667.93H730.229L687.439 739.31V745L734.479 667.93Z" fill="white"/>
<path d="M726.889 667.93L687.439 733.74V735.63L728.019 667.93H726.889Z" fill="#E4E4ED"/>
<path opacity="0.5" d="M723.159 667.93L687.439 727.21V732.23L725.979 667.93H723.159Z" fill="white"/>
<path opacity="0.5" d="M725.979 667.93L687.439 732.23V733.74L726.889 667.93H725.979Z" fill="white"/>
<path opacity="0.5" d="M702.259 667.93L687.439 691.35V698.29L706.829 667.93H702.259Z" fill="white"/>
<path opacity="0.7" d="M706.829 667.93L687.439 698.29V703.81L710.349 667.93H706.829Z" fill="white"/>
<path opacity="0.7" d="M734.479 724.25L714.449 756.85H718.799L734.479 731.16V724.25Z" fill="white"/>
<path opacity="0.3" d="M689.219 667.93H687.439V756.85H689.219V667.93Z" fill="black"/>
<path opacity="0.3" d="M742.479 667.93H740.699V756.85H742.479V667.93Z" fill="black"/>
<path d="M821.47 662H809.93V763.77H821.47V662Z" class="change-color-in-svg" fill="#4D61FC"/>
<path d="M821.47 529.602H809.93V631.372H821.47V529.602Z" class="change-color-in-svg" fill="#4D61FC"/>
<path opacity="0.5" d="M683.89 529.602H672.35V631.372H683.89V529.602Z" fill="white"/>
<path opacity="0.5" d="M821.47 662H809.93V763.77H821.47V662Z" fill="white"/>
<path opacity="0.5" d="M821.47 529.602H809.93V631.372H821.47V529.602Z" fill="white"/>
<path d="M1057.58 529.602H1046.66V631.372H1057.58V529.602Z" class="change-color-in-svg" fill="#4D61FC"/>
<path opacity="0.5" d="M1057.58 529.602H1046.66V631.372H1057.58V529.602Z" fill="white"/>
<path opacity="0.1" d="M1057.58 529.602H1046.66V631.372H1057.58V529.602Z" fill="black"/>
<path d="M1152.56 662H1141.64V763.77H1152.56V662Z" class="change-color-in-svg" fill="#4D61FC"/>
<path opacity="0.5" d="M1152.56 662H1141.64V763.77H1152.56V662Z" fill="white"/>
<path opacity="0.1" d="M1152.56 662H1141.64V763.77H1152.56V662Z" fill="black"/>
<path d="M1057.58 662H985.68V763.77H1057.58V662Z" fill="#F4F4F4"/>
<path d="M1057.58 662H1046.66V763.77H1057.58V662Z" class="change-color-in-svg" fill="#4D61FC"/>
<path opacity="0.5" d="M1057.58 662H1046.66V763.77H1057.58V662Z" fill="white"/>
<path opacity="0.1" d="M1057.58 662H1046.66V763.77H1057.58V662Z" fill="black"/>
<path d="M985.68 763.77H1050.48V662H985.68V763.77Z" fill="#3F4249"/>
<path d="M1018.08 756.852H1046.23V667.932H1018.08V756.852Z" fill="#F4F4F4"/>
<path opacity="0.2" d="M1018.08 756.852H1046.23V667.932H1018.08V756.852Z" class="change-color-in-svg" fill="#4D61FC"/>
<path d="M985.679 756.852H1014.36V667.932H985.679V756.852Z" fill="#F4F4F4"/>
<path opacity="0.2" d="M985.679 756.852H1014.36V667.932H985.679V756.852Z" class="change-color-in-svg" fill="#4D61FC"/>
<path opacity="0.5" d="M985.68 667.93L1014.36 745V756.85H1011.71L985.68 689.66V667.93Z" fill="white"/>
<path opacity="0.6" d="M985.68 667.93H988.28L1014.36 739.31V745L985.68 667.93Z" fill="white"/>
<path d="M990.309 667.93L1014.36 733.74V735.63L989.619 667.93H990.309Z" fill="#E4E4ED"/>
<path opacity="0.5" d="M992.589 667.93L1014.36 727.21V732.23L990.859 667.93H992.589Z" fill="white"/>
<path opacity="0.5" d="M990.861 667.93L1014.36 732.23V733.74L990.311 667.93H990.861Z" fill="white"/>
<path opacity="0.5" d="M1005.33 667.93L1014.36 691.35V698.29L1002.54 667.93H1005.33Z" fill="white"/>
<path opacity="0.7" d="M1002.54 667.93L1014.36 698.29V703.81L999.5 667.93H1002.54Z" fill="white"/>
<path opacity="0.7" d="M985.68 724.25L997.9 756.85H995.24L985.68 731.16V724.25Z" fill="white"/>
<path opacity="0.5" d="M1018.08 667.93L1046.23 745V756.85H1043.62L1018.08 689.66V667.93Z" fill="white"/>
<path opacity="0.6" d="M1018.08 667.93H1020.63L1046.23 739.31V745L1018.08 667.93Z" fill="white"/>
<path d="M1022.62 667.93L1046.23 733.74V735.63L1021.95 667.93H1022.62Z" fill="#E4E4ED"/>
<path opacity="0.5" d="M1024.86 667.93L1046.23 727.21V732.23L1023.17 667.93H1024.86Z" fill="white"/>
<path opacity="0.5" d="M1023.17 667.93L1046.23 732.23V733.74L1022.62 667.93H1023.17Z" fill="white"/>
<path opacity="0.5" d="M1037.36 667.93L1046.23 691.35V698.29L1034.63 667.93H1037.36Z" fill="white"/>
<path opacity="0.7" d="M1034.63 667.93L1046.23 698.29V703.81L1031.63 667.93H1034.63Z" fill="white"/>
<path opacity="0.7" d="M1018.08 724.25L1030.07 756.85H1027.46L1018.08 731.16V724.25Z" fill="white"/>
<path opacity="0.3" d="M1045.17 756.852H1046.23V667.932H1045.17V756.852Z" fill="black"/>
<path opacity="0.3" d="M1013.3 756.852H1014.36V667.932H1013.3V756.852Z" fill="black"/>
<path d="M1152.56 529.602H1141.64V631.372H1152.56V529.602Z" class="change-color-in-svg" fill="#4D61FC"/>
<path opacity="0.5" d="M1152.56 529.602H1141.64V631.372H1152.56V529.602Z" fill="white"/>
<path opacity="0.1" d="M1152.56 529.602H1141.64V631.372H1152.56V529.602Z" fill="black"/>
<path opacity="0.2" d="M948.379 858.072V750.862H955.129V738.302H948.379V613.922H936.289V738.302H840.839V729.302H829.909V662.152H840.839V631.422H828.749V738.302H731.519V631.422H719.429V738.302H644.269V750.862H719.429V858.072H645.169V870.632H719.429V978.752H635.189V991.312H719.429V1075H731.519V991.312H828.749V1075H840.839V991.312H936.289V1074.74H948.379V870.632H955.999V858.072H948.379ZM828.749 978.752H731.519V870.632H828.749V978.752ZM828.749 858.072H731.519V750.862H828.749V858.072ZM936.289 978.752H840.839V870.632H936.289V978.752ZM936.289 858.072H840.839V763.782H829.909V743.782H921.549V750.782H936.289V858.072Z" fill="black"/>
<path d="M939.361 614.059H926.801V1075H939.361V614.059Z" fill="#61656D"/>
<path d="M830.47 614.059H817.91V1075H830.47V614.059Z" fill="#61656D"/>
<path d="M720.679 614.059H708.119V1075H720.679V614.059Z" fill="#61656D"/>
<path d="M611.8 614.059H599.24V1075H611.8V614.059Z" fill="#61656D"/>
<path d="M921.3 614.059V729.299H822.4V614.059H812.2V729.299H713.3V614.059H703.1V729.299H604.2V614.059H594V1075H604.2V985.169H703.1V1075H713.3V985.169H812.2V1075H822.4V985.169H921.3V1075H931.51V614.059H921.3ZM921.3 743.819V849.999H822.4V743.819H921.3ZM812.2 743.819V849.999H713.3V743.819H812.2ZM703.1 743.819V849.999H604.2V743.819H703.1ZM604.2 970.649V864.489H703.1V970.649H604.2ZM713.3 970.649V864.489H812.2V970.649H713.3ZM822.4 970.649V864.489H921.3V970.649H822.4Z" fill="#868A91"/>
<path d="M1070.14 613.961H1057.58V1074.9H1070.14V613.961Z" fill="#61656D"/>
<g opacity="0.2">
<path opacity="0.2" d="M1070.14 613.961H1057.58V1074.9H1070.14V613.961Z" fill="black"/>
</g>
<path d="M1204.43 613.961H1191.87V1074.9H1204.43V613.961Z" fill="#61656D"/>
<g opacity="0.2">
<path opacity="0.2" d="M1204.43 613.961H1191.87V1074.9H1204.43V613.961Z" fill="black"/>
</g>
<path d="M1200.23 614.059V729.299H1076.83V614.059H1066.07V729.299H932.73V743.819H1066.07V849.069H932.73V863.589H1066.07V968.839H932.73V983.359H1066.07V1075H1076.83V983.359H1200.23V1075H1211V614.059H1200.23ZM1076.83 743.819H1200.23V849.069H1076.83V743.819ZM1076.83 968.819V863.589H1200.23V968.839L1076.83 968.819Z" fill="#61656D"/>
<path d="M1053.51 1019.38H1052.28C1034.28 1019.73 1034.28 1075.08 1052.28 1075.43H1251.39V1019.36L1053.51 1019.38Z" class="change-color-in-svg" fill="#4D61FC"/>
<path opacity="0.1" d="M1053.51 1019.38H1052.28C1034.28 1019.73 1034.28 1075.08 1052.28 1075.43H1251.39V1019.36L1053.51 1019.38Z" fill="black"/>
<path opacity="0.15" d="M1043 1047.27H1041.7C1040.72 1047.25 1039.75 1047.08 1038.83 1046.75C1038.69 1060.9 1043.18 1075.28 1052.32 1075.45H1251.43V1047.27H1043Z" fill="black"/>
<path d="M1253.22 1019.38H1252.16C1233.94 1019.38 1233.94 1075.45 1252.16 1075.45H1253.22C1271.44 1075.45 1271.44 1019.38 1253.22 1019.38Z" class="change-color-in-svg" fill="#4D61FC"/>
<path opacity="0.2" d="M1253.22 1019.38H1252.16C1233.94 1019.38 1233.94 1075.45 1252.16 1075.45H1253.22C1271.44 1075.45 1271.44 1019.38 1253.22 1019.38Z" fill="black"/>
<path d="M1253.13 1023.13H1252.25C1237.11 1023.13 1237.11 1071.7 1252.25 1071.7H1253.13C1268.27 1071.7 1268.27 1023.13 1253.13 1023.13Z" class="change-color-in-svg" fill="#4D61FC"/>
<path opacity="0.1" d="M1253.13 1023.13H1252.25C1237.11 1023.13 1237.11 1071.7 1252.25 1071.7H1253.13C1268.27 1071.7 1268.27 1023.13 1253.13 1023.13Z" fill="black"/>
<path opacity="0.2" d="M1245.38 1051C1251.32 1046.76 1257.51 1042.87 1263.91 1039.36C1262.59 1030.42 1259 1023.13 1253.13 1023.13H1252.25C1243.25 1023.13 1239.64 1040.13 1241.25 1054.01C1242.62 1053 1244 1052 1245.38 1051Z" fill="black"/>
<g opacity="0.2">
<path opacity="0.2" d="M1113.75 1024.11C1113.34 1024.57 1113.07 1025.14 1112.97 1025.75C1112.87 1026.36 1112.95 1026.98 1113.2 1027.55C1113.46 1028.11 1113.86 1028.59 1114.38 1028.93C1114.9 1029.27 1115.5 1029.45 1116.12 1029.45H1204.29C1204.66 1029.45 1205.05 1029.45 1205.43 1029.45C1209.43 1029.13 1209.11 1023.07 1205.08 1023.07H1116.16C1115.71 1023.06 1115.26 1023.15 1114.84 1023.33C1114.43 1023.51 1114.06 1023.78 1113.75 1024.11Z" fill="white"/>
<path opacity="0.2" d="M1086.41 1029.49C1086.91 1028.94 1087.23 1028.25 1087.35 1027.51C1087.47 1026.78 1087.37 1026.02 1087.07 1025.34C1086.76 1024.66 1086.27 1024.08 1085.65 1023.68C1085.02 1023.27 1084.29 1023.05 1083.55 1023.05H1062.55C1062.17 1023.05 1061.79 1023.05 1061.41 1023.1C1057.41 1023.41 1057.72 1029.48 1061.76 1029.48L1086.41 1029.49Z" fill="white"/>
</g>
<path d="M1137.34 1019.42C1137.08 1019.41 1136.83 1019.41 1136.57 1019.42H1135.51C1117.29 1019.42 1117.29 1075.49 1135.51 1075.49H1136.57C1136.83 1075.49 1137.09 1075.49 1137.34 1075.49C1120.15 1073.88 1120.15 1021 1137.34 1019.42Z" fill="#3F4249"/>
<path d="M1037 969H1035.77C1017.77 969.35 1017.77 1024.71 1035.77 1025.06H1234.88V969H1037Z" class="change-color-in-svg" fill="#4D61FC"/>
<path opacity="0.2" d="M1037 969H1035.77C1017.77 969.35 1017.77 1024.71 1035.77 1025.06H1234.88V969H1037Z" fill="white"/>
<path opacity="0.15" d="M1229.65 973.47L1227.08 994.47H1028C1025.96 994.418 1024.01 993.65 1022.48 992.3C1021.34 1007.61 1025.78 1024.86 1035.8 1025.06H1234.91V969L1229.65 973.47Z" fill="black"/>
<path d="M1236.71 969H1235.65C1217.43 969 1217.43 1025.08 1235.65 1025.08H1236.71C1254.93 1025.08 1254.93 969 1236.71 969Z" class="change-color-in-svg" fill="#4D61FC"/>
<g opacity="0.2">
<path opacity="0.2" d="M1097.39 973.459C1096.98 973.92 1096.71 974.491 1096.61 975.102C1096.52 975.713 1096.6 976.339 1096.85 976.904C1097.1 977.469 1097.51 977.949 1098.03 978.288C1098.55 978.626 1099.15 978.807 1099.77 978.809H1187.94C1188.31 978.809 1188.69 978.809 1189.08 978.759C1193.08 978.439 1192.76 972.379 1188.72 972.379H1099.8C1099.34 972.375 1098.89 972.469 1098.48 972.655C1098.06 972.842 1097.69 973.116 1097.39 973.459V973.459Z" fill="white"/>
<path opacity="0.2" d="M1070.05 978.838C1070.55 978.286 1070.88 977.599 1071 976.862C1071.12 976.124 1071.02 975.368 1070.72 974.686C1070.42 974.003 1069.92 973.424 1069.3 973.017C1068.67 972.611 1067.94 972.396 1067.19 972.398H1046.19C1045.81 972.398 1045.43 972.398 1045.05 972.448C1041.05 972.768 1041.36 978.838 1045.4 978.838H1070.05Z" fill="white"/>
</g>
<path opacity="0.2" d="M1236.71 969H1235.65C1217.43 969 1217.43 1025.08 1235.65 1025.08H1236.71C1254.93 1025.08 1254.93 969 1236.71 969Z" fill="black"/>
<path d="M1236.62 972.75H1235.74C1220.6 972.75 1220.6 1021.32 1235.74 1021.32H1236.62C1251.76 1021.32 1251.76 972.75 1236.62 972.75Z" class="change-color-in-svg" fill="#4D61FC"/>
<path opacity="0.1" d="M1236.62 972.75H1235.74C1220.6 972.75 1220.6 1021.32 1235.74 1021.32H1236.62C1251.76 1021.32 1251.76 972.75 1236.62 972.75Z" fill="black"/>
<path opacity="0.2" d="M1246.94 986.41C1245.35 978.69 1241.94 972.75 1236.62 972.75H1235.74C1227.28 972.75 1223.55 987.92 1224.54 1001.31L1246.94 986.41Z" fill="black"/>
<path d="M1121 969C1120.74 968.984 1120.49 968.984 1120.23 969H1119.17C1100.95 969 1100.95 1025.08 1119.17 1025.08H1120.23C1120.49 1025.08 1120.75 1025.08 1121 1025.08C1103.84 1023.5 1103.84 970.57 1121 969Z" fill="#3F4249"/>
<path d="M1025 1019.38H1023.77C1005.77 1019.73 1005.77 1075.08 1023.77 1075.43H1222.88V1019.36L1025 1019.38Z" class="change-color-in-svg" fill="#4D61FC"/>
<path opacity="0.2" d="M1025 1019.38H1023.77C1005.77 1019.73 1005.77 1075.08 1023.77 1075.43H1222.88V1019.36L1025 1019.38Z" fill="white"/>
<path opacity="0.15" d="M1014.46 1047.27H1013.16C1012.18 1047.25 1011.21 1047.08 1010.29 1046.75C1010.14 1060.9 1014.63 1075.28 1023.77 1075.45H1222.88V1047.27H1014.46Z" fill="black"/>
<path d="M1224.71 1019.38H1223.65C1205.44 1019.38 1205.44 1075.45 1223.65 1075.45H1224.71C1242.93 1075.45 1242.93 1019.38 1224.71 1019.38Z" class="change-color-in-svg" fill="#4D61FC"/>
<path opacity="0.2" d="M1224.71 1019.38H1223.65C1205.44 1019.38 1205.44 1075.45 1223.65 1075.45H1224.71C1242.93 1075.45 1242.93 1019.38 1224.71 1019.38Z" fill="black"/>
<path d="M1224.62 1023.13H1223.74C1208.6 1023.13 1208.6 1071.7 1223.74 1071.7H1224.62C1239.76 1071.7 1239.76 1023.13 1224.62 1023.13Z" class="change-color-in-svg" fill="#4D61FC"/>
<path opacity="0.1" d="M1224.62 1023.13H1223.74C1208.6 1023.13 1208.6 1071.7 1223.74 1071.7H1224.62C1239.76 1071.7 1239.76 1023.13 1224.62 1023.13Z" fill="black"/>
<path opacity="0.2" d="M1216.87 1051C1222.81 1046.76 1229 1042.87 1235.4 1039.36C1234.08 1030.42 1230.49 1023.13 1224.62 1023.13H1223.74C1214.74 1023.13 1211.13 1040.13 1212.74 1054.01C1214.12 1053 1215.48 1052 1216.87 1051Z" fill="black"/>
<g opacity="0.2">
<path opacity="0.2" d="M1085.24 1024.11C1084.83 1024.57 1084.56 1025.14 1084.46 1025.75C1084.36 1026.36 1084.45 1026.99 1084.7 1027.55C1084.95 1028.12 1085.36 1028.6 1085.88 1028.93C1086.4 1029.27 1087 1029.45 1087.62 1029.45H1175.78C1176.16 1029.45 1176.54 1029.45 1176.92 1029.45C1180.92 1029.13 1180.61 1023.07 1176.57 1023.07H1087.65C1087.2 1023.06 1086.75 1023.15 1086.33 1023.33C1085.92 1023.51 1085.55 1023.78 1085.24 1024.11Z" fill="white"/>
<path opacity="0.2" d="M1057.91 1029.49C1058.41 1028.94 1058.74 1028.25 1058.85 1027.51C1058.97 1026.78 1058.87 1026.02 1058.57 1025.34C1058.26 1024.66 1057.77 1024.08 1057.14 1023.67C1056.52 1023.27 1055.79 1023.05 1055.04 1023.05H1034.04C1033.67 1023.05 1033.29 1023.05 1032.9 1023.1C1028.9 1023.41 1029.22 1029.48 1033.26 1029.48L1057.91 1029.49Z" fill="white"/>
</g>
<path d="M1108.83 1019.42C1108.58 1019.41 1108.32 1019.41 1108.07 1019.42H1107C1088.78 1019.42 1088.78 1075.49 1107 1075.49H1108.06C1108.32 1075.49 1108.57 1075.49 1108.82 1075.49C1091.64 1073.88 1091.64 1021 1108.83 1019.42Z" fill="#3F4249"/>
<path d="M1035.28 1075H762.789C762.789 1075 825.579 968.321 908.489 940.891C908.489 940.891 973.099 988.441 1035.28 1075Z" fill="#B2B6BB"/>
<path opacity="0.2" d="M911.149 942.922C994.149 1067.99 786.149 1064.28 769.409 1064.56C765.099 1071.08 762.789 1075 762.789 1075H1035.28C980.519 998.762 923.879 952.802 911.149 942.922Z" fill="black"/>
<path d="M1095 1075H950.551C950.551 1075 990.631 1031.84 1036.33 1020.75C1036.33 1020.75 1067.56 1040 1095 1075Z" fill="#B2B6BB"/>
<path opacity="0.2" d="M1036.33 1020.75L1035.76 1020.9C1044.42 1033.55 1043.76 1049.49 1033.15 1058.54C1014.72 1074.24 971.991 1074.03 955.351 1070.16C952.261 1073.16 950.551 1075 950.551 1075H1095C1067.56 1040 1036.33 1020.75 1036.33 1020.75Z" fill="black"/>
<path d="M329.699 1068C330.009 1070.11 330.449 1073 328.119 1074.18C325.279 1075.54 323.469 1072.45 323.119 1070.06L307.119 962.161C306.189 956.261 306.919 951.242 308.739 950.962C310.559 950.682 312.799 955.221 313.739 961.121C313.689 961.081 329.539 1066.93 329.699 1068Z" fill="#61656D"/>
<path opacity="0.3" d="M313.469 959.849C312.469 954.559 310.399 950.649 308.709 950.919C307.019 951.189 306.249 955.679 306.949 961.149C309.119 960.689 311.299 960.259 313.469 959.849Z" fill="black"/>
<path d="M293.989 955.978L272.949 929.928L284.989 898.688L318.059 893.488L339.099 919.538L327.059 950.778L293.989 955.978Z" class="change-color-in-svg" fill="#4D61FC"/>
<path d="M328.07 952L293.41 957.45L271.41 930.16L284 897.45L318.63 892L340.68 919.29L328.07 952ZM294.56 954.46L326.06 949.46L337.51 919.71L317.51 894.92L286.02 899.92L274.56 929.67L294.56 954.46Z" class="change-color-in-svg" fill="#4D61FC"/>
<path opacity="0.2" d="M328.07 952L293.41 957.45L271.41 930.16L284 897.45L318.63 892L340.68 919.29L328.07 952ZM294.56 954.46L326.06 949.46L337.51 919.71L317.51 894.92L286.02 899.92L274.56 929.67L294.56 954.46Z" fill="black"/>
<path d="M323.33 919.001L316.33 915.201L315.1 907.301L310.62 907.991L311.32 912.481L304.01 908.481L288.75 924.331L292.02 927.461L293.66 925.761L296.19 942.071L321.62 938.141L319.09 921.821L321.17 922.951L323.33 919.001ZM318.73 936.071L313 937.001L311.54 927.561L302.54 928.951L304 938.391L298.26 939.281L295.87 923.861L304.87 914.491L316.29 920.691L318.73 936.071Z" fill="white"/>
<path d="M714.729 569.74L781.309 499.26L780.399 498.39C780.219 498.218 780.007 498.083 779.774 497.994C779.542 497.904 779.294 497.861 779.045 497.868C778.796 497.874 778.55 497.93 778.323 498.032C778.096 498.133 777.89 498.279 777.719 498.46L712.439 567.55L714.729 569.74Z" fill="#21252B"/>
<path d="M480.6 278.5L695.87 369.72H736.87L480.6 276.18V278.5ZM491.28 281.45L729.51 368.45H696.26L491.28 281.45Z" fill="#21252B"/>
<path d="M470.93 276.461V278.191L370.55 366.121L369.59 365.251L470.93 276.461Z" fill="#21252B"/>
<path d="M477.041 367.509L490.131 350.739L488.941 349.809L475.131 367.509H477.041Z" fill="#3F4249"/>
<path d="M480.84 367.511L467.55 349.961L466.35 350.881L478.95 367.511H480.84Z" fill="#3F4249"/>
<path d="M486.909 316.09L466.793 347.738L468.067 348.548L488.183 316.9L486.909 316.09Z" fill="#3F4249"/>
<path d="M469.807 316.25L468.521 317.043L487.638 348.043L488.923 347.25L469.807 316.25Z" fill="#3F4249"/>
<path d="M484.598 282.942L469.105 314.594L470.462 315.258L485.954 283.606L484.598 282.942Z" fill="#3F4249"/>
<path d="M471.803 283.09L470.439 283.738L485.186 314.739L486.55 314.091L471.803 283.09Z" fill="#3F4249"/>
<path d="M489.621 346.898H466.391V351.038H489.621V346.898Z" fill="#3F4249"/>
<path d="M487.341 313.941H468.631V318.081H487.341V313.941Z" fill="#3F4249"/>
<path d="M466.9 367.508L472.22 284.658L484.06 284.648L489.49 367.508H491.91L486.39 283.358L486.31 282.238L469.96 282.248L464.48 367.508H466.9Z" fill="#3F4249"/>
<path d="M487.59 300.812H468.59C468.51 300.812 468.431 300.796 468.357 300.765C468.283 300.735 468.216 300.69 468.159 300.633C468.102 300.576 468.058 300.509 468.027 300.435C467.996 300.361 467.98 300.282 467.98 300.202V282.132C467.98 279.448 469.047 276.874 470.945 274.976C472.842 273.078 475.416 272.012 478.1 272.012C480.784 272.012 483.359 273.078 485.256 274.976C487.154 276.874 488.22 279.448 488.22 282.132V300.212C488.215 300.374 488.146 300.528 488.028 300.641C487.91 300.753 487.753 300.814 487.59 300.812V300.812Z" fill="#3F4249"/>
<path d="M484.3 283.049C483.943 284.284 483.229 285.385 482.246 286.214C481.264 287.043 480.058 287.562 478.781 287.705C477.504 287.849 476.213 287.611 475.071 287.021C473.929 286.431 472.988 285.516 472.366 284.391C471.744 283.266 471.47 281.982 471.578 280.701C471.685 279.421 472.17 278.201 472.971 277.195C473.772 276.19 474.853 275.445 476.077 275.054C477.302 274.663 478.614 274.644 479.85 274.999C481.506 275.478 482.905 276.594 483.74 278.103C484.574 279.613 484.775 281.391 484.3 283.049V283.049Z" fill="#868A91"/>
<path d="M482.32 282.48C482.073 283.324 481.582 284.076 480.909 284.64C480.235 285.205 479.409 285.557 478.535 285.651C477.661 285.746 476.779 285.579 476 285.171C475.221 284.764 474.58 284.135 474.159 283.363C473.738 282.591 473.556 281.712 473.635 280.837C473.714 279.961 474.052 279.129 474.604 278.445C475.157 277.762 475.9 277.258 476.74 276.997C477.579 276.736 478.477 276.73 479.32 276.98C480.445 277.314 481.393 278.08 481.955 279.111C482.517 280.142 482.648 281.353 482.32 282.48V282.48Z" fill="#3F4249"/>
<g opacity="0.8">
<path opacity="0.8" d="M478.929 278.219C478.33 278.048 477.694 278.058 477.101 278.248C476.508 278.438 475.985 278.799 475.597 279.287C475.209 279.774 474.975 280.366 474.923 280.986C474.871 281.607 475.005 282.229 475.307 282.774C475.608 283.319 476.065 283.762 476.618 284.047C477.172 284.333 477.798 284.448 478.416 284.378C479.035 284.308 479.619 284.056 480.095 283.654C480.571 283.252 480.917 282.718 481.089 282.119C481.204 281.721 481.239 281.305 481.192 280.893C481.146 280.482 481.018 280.084 480.818 279.721C480.617 279.359 480.347 279.04 480.023 278.782C479.699 278.525 479.327 278.333 478.929 278.219ZM477.279 283.939C476.747 283.786 476.273 283.478 475.917 283.055C475.56 282.632 475.336 282.112 475.275 281.562C475.213 281.012 475.315 280.456 475.569 279.965C475.823 279.473 476.217 279.068 476.701 278.8C477.186 278.532 477.738 278.413 478.29 278.459C478.841 278.505 479.367 278.714 479.8 279.058C480.233 279.403 480.554 279.868 480.723 280.395C480.892 280.922 480.901 281.487 480.749 282.019C480.648 282.374 480.478 282.704 480.248 282.993C480.019 283.281 479.735 283.521 479.413 283.7C479.09 283.878 478.736 283.991 478.37 284.032C478.004 284.073 477.633 284.042 477.279 283.939V283.939Z" fill="#868A91"/>
</g>
<path d="M488.211 300.201V299.691C488.125 299.759 488.02 299.797 487.911 299.801H468.291C468.173 299.795 468.059 299.757 467.961 299.691V300.191C467.961 300.353 468.025 300.508 468.14 300.623C468.254 300.737 468.409 300.801 468.571 300.801H487.571C487.652 300.804 487.734 300.791 487.81 300.762C487.886 300.733 487.956 300.69 488.015 300.634C488.075 300.578 488.123 300.511 488.156 300.437C488.19 300.363 488.208 300.283 488.211 300.201V300.201Z" fill="#868A91"/>
<path d="M464.329 1029.69V1029.4H465.329L465.599 1029.69H467.759L467.499 1029.4H492.419L492.129 1029.71H500.029V371.102H494.239V389.442L480.839 374.662L494.619 359.922H496.239V355.512H463.109V359.912H465.319L478.649 374.622L464.329 390.002V371.102H458.529V1029.69H464.329ZM465.819 1024.99L479.759 1010.07L493.269 1025L465.819 1024.99ZM493.819 427.192H465.259L479.759 411.662L493.819 427.192ZM467.519 395.772H492.439L479.779 409.322L467.519 395.772ZM492.439 431.602L479.779 445.152L467.519 431.612L492.439 431.602ZM493.269 462.432H465.819L479.759 447.502L493.269 462.432ZM492.439 466.842L479.779 480.392L467.519 466.852L492.439 466.842ZM493.269 497.672H465.819L479.759 482.752L493.269 497.672ZM492.439 502.082L479.779 515.632L467.519 502.092L492.439 502.082ZM493.269 532.912H465.819L479.759 518.002L493.269 532.912ZM492.439 537.322L479.779 550.872L467.519 537.332L492.439 537.322ZM493.269 568.152H465.819L479.759 553.222L493.269 568.152ZM492.439 572.552L479.779 586.112L467.519 572.572L492.439 572.552ZM493.269 603.382H465.819L479.759 588.452L493.269 603.382ZM492.439 607.792L479.779 621.342L467.519 607.812L492.439 607.792ZM493.269 638.622H465.819L479.759 623.692L493.269 638.622ZM492.439 643.032L479.779 656.582L467.519 643.002L492.439 643.032ZM493.269 673.862H465.819L479.759 659.002L493.269 673.862ZM492.439 678.272L479.779 691.822L467.519 678.282L492.439 678.272ZM493.269 709.102H465.819L479.759 694.182L493.269 709.102ZM492.439 713.512L479.779 727.062L467.519 713.522L492.439 713.512ZM493.269 744.342H465.819L479.759 729.422L493.269 744.342ZM492.439 748.752L479.779 762.302L467.519 748.762L492.439 748.752ZM493.269 779.582H465.819L479.759 764.652L493.269 779.582ZM492.439 783.982L479.779 797.542L467.519 784.002L492.439 783.982ZM493.269 814.812H465.819L479.759 799.882L493.269 814.812ZM490.689 819.222L479.779 830.902L469.209 819.232L490.689 819.222ZM493.819 848.782H465.259L479.759 833.252L493.819 848.782ZM492.439 853.192L479.779 866.742L467.519 853.212L492.439 853.192ZM493.269 884.022H465.819L479.759 869.092L493.269 884.022ZM492.439 888.432L479.779 902.002L467.519 888.472L492.439 888.432ZM493.269 919.262H465.819L479.759 904.332L493.269 919.262ZM492.439 923.672L479.779 937.222L467.519 923.682L492.439 923.672ZM493.269 954.502H465.819L479.759 939.572L493.269 954.502ZM492.439 958.912L479.779 972.462L467.519 958.922L492.439 958.912ZM493.269 989.742H465.819L479.759 974.822L493.269 989.742ZM492.439 994.152L479.779 1007.7L467.519 994.162L492.439 994.152ZM494.259 1023.67L480.859 1008.89L494.259 994.552V1023.67ZM494.259 988.432L480.859 973.652L494.259 959.312V988.432ZM494.259 953.192L480.859 938.412L494.259 924.072V953.192ZM494.259 917.962L480.859 903.172L494.259 888.842V917.962ZM494.259 882.722L480.859 867.942L494.259 853.602V882.722ZM494.259 823.092V846.882L480.859 832.092L492.859 819.222H494.229L494.259 823.092ZM494.259 792.702V813.512L480.859 798.732L494.259 784.392V792.702ZM494.259 778.272L480.859 763.492L494.259 749.152V778.272ZM494.259 743.032L480.859 728.252L494.259 713.912V743.032ZM494.259 707.792L480.859 693.002L494.259 678.662V707.792ZM494.259 672.552L480.859 657.772L494.259 643.442V672.552ZM494.259 637.322L480.859 622.542L494.259 608.202V637.322ZM494.259 602.082L480.859 587.302L494.259 573.002V602.082ZM494.259 566.842L480.859 552.062L494.259 537.722V566.842ZM494.259 531.602L480.859 516.822L494.259 502.482V531.602ZM494.259 496.362L480.859 481.582L494.259 467.242V496.362ZM494.259 461.132L480.859 446.342L494.259 432.002V461.132ZM494.259 425.282L480.859 410.502L494.259 396.162V425.282ZM467.519 359.932H492.439L479.779 373.482L467.519 359.932ZM479.759 375.842L493.819 391.352H465.259L479.759 375.842ZM464.329 395.772H465.329L478.659 410.492L464.309 425.862L464.329 395.772ZM464.329 431.622H465.329L478.659 446.332L464.329 461.702V431.622ZM464.329 466.852H465.329L478.659 481.572L464.309 496.942L464.329 466.852ZM464.329 502.092H465.329L478.659 516.802L464.309 532.172L464.329 502.092ZM464.329 537.332H465.329L478.679 552.002L464.329 567.372V537.332ZM464.329 572.572H465.329L478.659 587.282L464.309 602.652L464.329 572.572ZM464.329 607.812H465.329L478.659 622.522L464.309 637.892L464.329 607.812ZM464.329 643.052H465.329L478.659 657.762L464.309 673.132L464.329 643.052ZM464.329 678.282H465.329L478.679 693.002L464.329 708.372V678.282ZM464.329 713.522H465.329L478.659 728.232L464.329 743.602V713.522ZM464.329 748.762H465.329L478.659 763.472L464.309 778.842L464.329 748.762ZM464.329 792.702V784.002H465.329L478.659 798.712L464.309 814.082L464.329 792.702ZM464.329 823.092V819.242H467.049L478.679 832.082L464.329 847.452V823.092ZM464.329 853.212H465.329L478.659 867.922L464.309 883.292L464.329 853.212ZM464.329 888.452H465.329L478.659 903.162L464.309 918.532L464.329 888.452ZM464.329 923.692H465.329L478.659 938.412L464.309 953.782L464.329 923.692ZM464.329 958.922H465.329L478.659 973.642L464.329 989.002V958.922ZM464.329 994.162H465.329L478.659 1008.87L464.309 1024.24L464.329 994.162Z" fill="#3F4249"/>
<path d="M540.857 368.54L539.834 369.637L571.418 399.11L572.442 398.013L540.857 368.54Z" fill="#3F4249"/>
<path d="M570.92 368.334L540.004 396.348L541.011 397.459L571.927 369.446L570.92 368.334Z" fill="#3F4249"/>
<path d="M573.14 367.41L570.17 367.42L570.19 398.47H573.14V367.41Z" fill="#3F4249"/>
<path d="M507.83 368.563L506.807 369.66L538.396 399.128L539.419 398.031L507.83 368.563Z" fill="#3F4249"/>
<path d="M537.885 368.342L506.969 396.355L507.976 397.467L538.892 369.454L537.885 368.342Z" fill="#3F4249"/>
<path d="M537.15 367.43L537.166 398.48L541.296 398.478L541.28 367.428L537.15 367.43Z" fill="#3F4249"/>
<path d="M474.791 368.536L473.768 369.633L505.352 399.106L506.375 398.01L474.791 368.536Z" fill="#3F4249"/>
<path d="M504.85 368.338L473.934 396.352L474.941 397.463L505.857 369.45L504.85 368.338Z" fill="#3F4249"/>
<path d="M504.117 367.43L504.133 398.48L508.263 398.478L508.247 367.428L504.117 367.43Z" fill="#3F4249"/>
<path d="M441.75 368.544L440.727 369.641L472.311 399.114L473.334 398.017L441.75 368.544Z" fill="#3F4249"/>
<path d="M471.815 368.334L440.898 396.348L441.906 397.459L472.822 369.446L471.815 368.334Z" fill="#3F4249"/>
<path d="M471.33 367.63V398.68H475.46V367.63H471.33Z" fill="#3F4249"/>
<path d="M408.725 368.54L407.701 369.637L439.285 399.11L440.309 398.013L408.725 368.54Z" fill="#3F4249"/>
<path d="M438.772 368.338L407.855 396.352L408.863 397.463L439.779 369.45L438.772 368.338Z" fill="#3F4249"/>
<path d="M438.279 367.641V398.691H442.409V367.641H438.279Z" fill="#3F4249"/>
<path d="M375.684 368.548L374.66 369.645L406.244 399.118L407.268 398.021L375.684 368.548Z" fill="#3F4249"/>
<path d="M406.75 369.462L375.83 397.472L374.82 396.362L385.33 386.832L405.74 368.352L406.75 369.462Z" fill="#3F4249"/>
<path d="M405.009 367.43L405.025 398.48L409.155 398.478L409.139 367.428L405.009 367.43Z" fill="#3F4249"/>
<path d="M342.656 368.567L341.633 369.664L373.222 399.132L374.245 398.035L342.656 368.567Z" fill="#3F4249"/>
<path d="M372.701 368.342L341.785 396.355L342.792 397.467L373.708 369.454L372.701 368.342Z" fill="#3F4249"/>
<path d="M372.17 367.63V398.68H376.3V367.63H372.17Z" fill="#3F4249"/>
<path d="M805.131 368.524L804.107 369.621L835.692 399.094L836.715 397.998L805.131 368.524Z" fill="#3F4249"/>
<path d="M835.209 368.334L804.293 396.348L805.3 397.459L836.216 369.446L835.209 368.334Z" fill="#3F4249"/>
<path d="M834.93 367.63V398.68H839.06V367.63H834.93Z" fill="#3F4249"/>
<path d="M772.105 368.532L771.082 369.629L802.666 399.102L803.69 398.006L772.105 368.532Z" fill="#3F4249"/>
<path d="M802.174 368.342L771.258 396.355L772.265 397.467L803.181 369.454L802.174 368.342Z" fill="#3F4249"/>
<path d="M801.451 367.43L801.467 398.48L805.597 398.478L805.581 367.428L801.451 367.43Z" fill="#3F4249"/>
<path d="M739.064 368.528L738.041 369.625L769.625 399.098L770.649 398.002L739.064 368.528Z" fill="#3F4249"/>
<path d="M769.139 368.33L738.223 396.344L739.23 397.455L770.146 369.442L769.139 368.33Z" fill="#3F4249"/>
<path d="M768.408 367.43L768.424 398.48L772.554 398.478L772.538 367.428L768.408 367.43Z" fill="#3F4249"/>
<path d="M706.039 368.528L705.016 369.625L736.6 399.098L737.623 398.002L706.039 368.528Z" fill="#3F4249"/>
<path d="M736.104 368.342L705.188 396.355L706.195 397.467L737.111 369.454L736.104 368.342Z" fill="#3F4249"/>
<path d="M735.386 367.442L735.402 398.492L739.532 398.49L739.516 367.44L735.386 367.442Z" fill="#3F4249"/>
<path d="M673.004 368.555L671.98 369.652L703.57 399.12L704.593 398.023L673.004 368.555Z" fill="#3F4249"/>
<path d="M703.061 368.338L672.145 396.352L673.152 397.463L704.068 369.45L703.061 368.338Z" fill="#3F4249"/>
<path d="M702.711 367.63V398.68H706.841V367.63H702.711Z" fill="#3F4249"/>
<path d="M639.967 368.532L638.943 369.629L670.528 399.102L671.551 398.006L639.967 368.532Z" fill="#3F4249"/>
<path d="M670.033 368.338L639.117 396.352L640.124 397.463L671.041 369.45L670.033 368.338Z" fill="#3F4249"/>
<path d="M669.66 367.63V398.68H673.79V367.63H669.66Z" fill="#3F4249"/>
<path d="M606.932 368.528L605.908 369.625L637.492 399.098L638.516 398.002L606.932 368.528Z" fill="#3F4249"/>
<path d="M636.99 368.334L606.074 396.348L607.081 397.459L637.998 369.446L636.99 368.334Z" fill="#3F4249"/>
<path d="M636.257 367.43L636.273 398.48L640.403 398.478L640.387 367.428L636.257 367.43Z" fill="#3F4249"/>
<path d="M573.9 368.536L572.877 369.633L604.461 399.106L605.485 398.01L573.9 368.536Z" fill="#3F4249"/>
<path d="M603.955 368.338L573.039 396.352L574.046 397.463L604.962 369.45L603.955 368.338Z" fill="#3F4249"/>
<path d="M603.224 367.442L603.24 398.492L607.37 398.49L607.354 367.44L603.224 367.442Z" fill="#3F4249"/>
<path d="M570.193 367.442L570.209 398.492L574.339 398.49L574.323 367.44L570.193 367.442Z" fill="#3F4249"/>
<path d="M844.83 366.129C842.842 364.658 840.434 363.862 837.96 363.859H342V369.289H837.9C840.404 369.297 842.846 370.068 844.9 371.499L882.05 397.349H342V402.779H883.69C884.555 402.779 885.384 402.436 885.995 401.825C886.607 401.213 886.95 400.384 886.95 399.519V398.999C886.949 398.49 886.829 397.988 886.6 397.533C886.371 397.078 886.039 396.683 885.63 396.379L844.83 366.129Z" fill="#3F4249"/>
<path d="M780.01 455.012H777.75V471.902H780.01V455.012Z" fill="#21252B"/>
<path d="M779.53 455.551L750.24 410.521L751.24 409.831L779.45 453.191L803.61 409.441L804.66 410.061L779.53 455.551Z" fill="#21252B"/>
<path d="M746.46 410C746.429 410.185 746.409 410.372 746.4 410.56C746.371 411.175 746.467 411.789 746.682 412.366C746.898 412.942 747.228 413.469 747.653 413.914C748.078 414.36 748.588 414.714 749.154 414.956C749.72 415.198 750.329 415.323 750.945 415.323C751.56 415.323 752.169 415.198 752.735 414.956C753.301 414.714 753.812 414.36 754.236 413.914C754.661 413.469 754.991 412.942 755.207 412.366C755.422 411.789 755.518 411.175 755.489 410.56C755.5 410.373 755.5 410.187 755.489 410H746.46Z" fill="#3F4249"/>
<path d="M748.141 410.199C748.141 410.309 748.141 410.429 748.141 410.549C748.141 411.302 748.44 412.025 748.972 412.557C749.505 413.09 750.227 413.389 750.981 413.389C751.734 413.389 752.456 413.09 752.989 412.557C753.521 412.025 753.821 411.302 753.821 410.549C753.821 410.429 753.821 410.309 753.821 410.199H748.141Z" fill="#868A91"/>
<path d="M798.93 410C798.9 410.185 798.88 410.372 798.87 410.56C798.841 411.175 798.938 411.789 799.153 412.366C799.368 412.942 799.698 413.469 800.123 413.914C800.548 414.36 801.059 414.714 801.625 414.956C802.191 415.198 802.8 415.323 803.415 415.323C804.031 415.323 804.64 415.198 805.206 414.956C805.771 414.714 806.282 414.36 806.707 413.914C807.132 413.469 807.462 412.942 807.677 412.366C807.893 411.789 807.989 411.175 807.96 410.56C807.954 410.373 807.937 410.186 807.91 410H798.93Z" fill="#3F4249"/>
<path d="M800.609 410.199C800.609 410.309 800.609 410.429 800.609 410.549C800.609 411.302 800.909 412.025 801.441 412.557C801.974 413.09 802.696 413.389 803.449 413.389C804.203 413.389 804.925 413.09 805.458 412.557C805.99 412.025 806.289 411.302 806.289 410.549C806.3 410.433 806.3 410.316 806.289 410.199H800.609Z" fill="#868A91"/>
<path d="M778.01 462.659C782.975 462.659 787 458.567 787 453.519C787 448.471 782.975 444.379 778.01 444.379C773.044 444.379 769.02 448.471 769.02 453.519C769.02 458.567 773.044 462.659 778.01 462.659Z" fill="#3F4249"/>
<path d="M814.581 402.469H790.561L795.951 411.719H809.191L814.581 402.469Z" fill="#3F4249"/>
<path d="M761.501 402.469H737.471L742.861 411.719H756.111L761.501 402.469Z" fill="#3F4249"/>
<path d="M772.711 453.52C772.754 454.558 773.101 455.561 773.709 456.403C774.318 457.246 775.16 457.891 776.132 458.258C777.104 458.625 778.163 458.699 779.176 458.469C780.19 458.24 781.114 457.717 781.833 456.967C782.551 456.217 783.034 455.272 783.22 454.25C783.406 453.227 783.288 452.173 782.88 451.217C782.471 450.262 781.791 449.447 780.924 448.875C780.056 448.303 779.04 447.999 778.001 448C777.29 448.013 776.589 448.166 775.938 448.451C775.287 448.736 774.699 449.147 774.207 449.66C773.716 450.173 773.33 450.778 773.074 451.44C772.817 452.103 772.693 452.81 772.711 453.52V453.52Z" fill="#868A91"/>
<path d="M777.08 484.85C780.42 487.04 782.17 488.25 782.64 489.46C783.11 490.67 783.08 499.46 777.94 498.57C775.6 498.17 775.52 495.5 775.52 495.5C775.52 494.2 772.52 494.2 772.52 495.5C772.52 495.5 772.2 500.03 778.39 500.03C785.12 500.03 788.79 496.03 788.79 491.85C788.79 485.46 780.73 482.3 780.65 481.41C780.57 480.52 780.65 474.41 780.65 474.41H777.29L777.08 484.85Z" class="change-color-in-svg" fill="#4D61FC"/>
<path d="M781.86 473.711H777.24V482.221L781.86 479.131V473.711Z" class="change-color-in-svg" fill="#4D61FC"/>
<g opacity="0.2">
<path opacity="0.2" d="M777.08 484.85C780.42 487.04 782.17 488.25 782.64 489.46C783.11 490.67 783.08 499.46 777.94 498.57C775.6 498.17 775.52 495.5 775.52 495.5C775.52 494.2 772.52 494.2 772.52 495.5C772.52 495.5 772.2 500.03 778.39 500.03C785.12 500.03 788.79 496.03 788.79 491.85C788.79 485.46 780.73 482.3 780.65 481.41C780.57 480.52 780.65 474.41 780.65 474.41H777.29L777.08 484.85Z" fill="black"/>
<path opacity="0.2" d="M781.86 473.711H777.24V482.221L781.86 479.131V473.711Z" fill="black"/>
</g>
<path d="M773.679 453.52C773.716 454.368 774.002 455.186 774.5 455.873C774.998 456.56 775.688 457.085 776.482 457.383C777.276 457.682 778.141 457.74 778.968 457.552C779.795 457.363 780.549 456.935 781.135 456.322C781.721 455.708 782.115 454.936 782.266 454.101C782.417 453.266 782.319 452.405 781.985 451.625C781.651 450.845 781.095 450.18 780.387 449.714C779.678 449.247 778.848 448.999 777.999 449C777.418 449.012 776.845 449.138 776.313 449.372C775.782 449.606 775.301 449.942 774.9 450.362C774.498 450.782 774.184 451.277 773.974 451.819C773.765 452.361 773.665 452.939 773.679 453.52V453.52Z" fill="#3F4249"/>
<path d="M775.919 484.85C779.259 487.04 781.009 488.25 781.479 489.46C781.949 490.67 781.909 499.46 776.779 498.57C774.429 498.17 774.349 495.5 774.349 495.5C774.349 494.2 771.299 494.2 771.299 495.5C771.299 495.5 770.989 500.03 777.169 500.03C783.899 500.03 787.579 496.03 787.579 491.85C787.579 485.46 779.519 482.3 779.439 481.41C779.359 480.52 779.439 474.41 779.439 474.41H776.079L775.919 484.85Z" class="change-color-in-svg" fill="#4D61FC"/>
<path d="M780.69 473.711H776.08V482.221L780.69 479.131V473.711Z" class="change-color-in-svg" fill="#4D61FC"/>
<g opacity="0.2">
<path opacity="0.2" d="M775.919 484.85C779.259 487.04 781.009 488.25 781.479 489.46C781.949 490.67 781.909 499.46 776.779 498.57C774.429 498.17 774.349 495.5 774.349 495.5C774.349 494.2 771.299 494.2 771.299 495.5C771.299 495.5 770.989 500.03 777.169 500.03C783.899 500.03 787.579 496.03 787.579 491.85C787.579 485.46 779.519 482.3 779.439 481.41C779.359 480.52 779.439 474.41 779.439 474.41H776.079L775.919 484.85Z" fill="white"/>
<path opacity="0.2" d="M780.69 473.711H776.08V482.221L780.69 479.131V473.711Z" fill="white"/>
</g>
<path d="M774.44 473.28C774.467 474.11 774.739 474.914 775.22 475.591C775.701 476.268 776.371 476.788 777.146 477.087C777.921 477.386 778.766 477.45 779.578 477.271C780.389 477.092 781.129 476.679 781.707 476.082C782.285 475.485 782.674 474.732 782.826 473.915C782.978 473.099 782.887 472.256 782.563 471.491C782.239 470.726 781.697 470.073 781.005 469.614C780.312 469.156 779.5 468.911 778.67 468.91C777.53 468.931 776.445 469.403 775.653 470.222C774.86 471.041 774.424 472.14 774.44 473.28V473.28Z" fill="#868A91"/>
<path d="M776.469 473.28C776.483 473.714 776.624 474.135 776.876 474.489C777.127 474.843 777.478 475.116 777.883 475.272C778.289 475.428 778.731 475.462 779.155 475.368C779.58 475.274 779.967 475.057 780.268 474.745C780.57 474.432 780.773 474.037 780.852 473.61C780.93 473.183 780.881 472.742 780.71 472.342C780.54 471.942 780.255 471.602 779.892 471.363C779.529 471.125 779.104 470.998 778.669 471C778.375 471.005 778.085 471.068 777.815 471.186C777.545 471.303 777.301 471.473 777.097 471.684C776.893 471.896 776.732 472.146 776.624 472.42C776.517 472.693 776.464 472.986 776.469 473.28V473.28Z" fill="#3F4249"/>
<path d="M777.43 473.28C777.438 473.523 777.517 473.759 777.658 473.958C777.799 474.156 777.995 474.309 778.222 474.397C778.45 474.484 778.697 474.503 778.935 474.451C779.173 474.399 779.39 474.278 779.56 474.103C779.729 473.928 779.843 473.707 779.888 473.468C779.933 473.228 779.906 472.981 779.811 472.757C779.716 472.532 779.557 472.341 779.354 472.207C779.151 472.072 778.913 472 778.67 472C778.504 472.003 778.341 472.038 778.189 472.104C778.037 472.169 777.9 472.264 777.785 472.383C777.67 472.502 777.579 472.642 777.518 472.796C777.457 472.95 777.427 473.115 777.43 473.28V473.28Z" fill="#868A91"/>
<path d="M444.77 356.85V433.85H516.87L514.61 424.94L519.91 402.15C520.27 400.438 520.378 398.683 520.23 396.94H508.79C507.735 396.945 506.71 396.59 505.884 395.934C505.059 395.277 504.482 394.359 504.25 393.33L498.48 366C498.34 365.341 498.353 364.658 498.518 364.005C498.682 363.351 498.994 362.744 499.43 362.23C499.87 361.707 500.42 361.288 501.04 361.001C501.66 360.714 502.336 360.567 503.02 360.57H509.02L507.41 355.47C507.119 354.561 506.547 353.767 505.775 353.205C505.004 352.642 504.074 352.339 503.12 352.34H449.29C448.696 352.339 448.109 352.454 447.561 352.68C447.012 352.906 446.514 353.238 446.094 353.657C445.674 354.076 445.341 354.574 445.114 355.122C444.887 355.669 444.77 356.257 444.77 356.85V356.85ZM465.12 364.34C465.066 363.865 465.113 363.384 465.259 362.928C465.405 362.472 465.645 362.053 465.964 361.697C466.283 361.341 466.674 361.056 467.111 360.862C467.548 360.668 468.021 360.568 468.5 360.57H486.5C487.54 360.573 488.547 360.933 489.354 361.59C490.16 362.248 490.716 363.162 490.93 364.18L497.15 396.45C497.282 397.046 497.278 397.665 497.138 398.26C496.998 398.855 496.726 399.41 496.341 399.885C495.957 400.36 495.47 400.742 494.918 401.002C494.365 401.263 493.761 401.395 493.15 401.39H479.92C477.201 401.437 474.549 400.544 472.412 398.863C470.274 397.181 468.783 394.814 468.19 392.16C468.13 391.83 468.07 391.49 468.04 391.16L465.12 364.34Z" class="change-color-in-svg" fill="#4D61FC"/>
<path opacity="0.2" d="M444.77 356.85V433.85H516.87L514.61 424.94L519.91 402.15C520.27 400.438 520.378 398.683 520.23 396.94H508.79C507.735 396.945 506.71 396.59 505.884 395.934C505.059 395.277 504.482 394.359 504.25 393.33L498.48 366C498.34 365.341 498.353 364.658 498.518 364.005C498.682 363.351 498.994 362.744 499.43 362.23C499.87 361.707 500.42 361.288 501.04 361.001C501.66 360.714 502.336 360.567 503.02 360.57H509.02L507.41 355.47C507.119 354.561 506.547 353.767 505.775 353.205C505.004 352.642 504.074 352.339 503.12 352.34H449.29C448.696 352.339 448.109 352.454 447.561 352.68C447.012 352.906 446.514 353.238 446.094 353.657C445.674 354.076 445.341 354.574 445.114 355.122C444.887 355.669 444.77 356.257 444.77 356.85V356.85ZM465.12 364.34C465.066 363.865 465.113 363.384 465.259 362.928C465.405 362.472 465.645 362.053 465.964 361.697C466.283 361.341 466.674 361.056 467.111 360.862C467.548 360.668 468.021 360.568 468.5 360.57H486.5C487.54 360.573 488.547 360.933 489.354 361.59C490.16 362.248 490.716 363.162 490.93 364.18L497.15 396.45C497.282 397.046 497.278 397.665 497.138 398.26C496.998 398.855 496.726 399.41 496.341 399.885C495.957 400.36 495.47 400.742 494.918 401.002C494.365 401.263 493.761 401.395 493.15 401.39H479.92C477.201 401.437 474.549 400.544 472.412 398.863C470.274 397.181 468.783 394.814 468.19 392.16C468.13 391.83 468.07 391.49 468.04 391.16L465.12 364.34Z" fill="white"/>
<path opacity="0.3" d="M503.231 425.198V407.288C503.229 405.299 503.024 403.316 502.621 401.368L493.761 358.998C493.647 358.461 493.353 357.979 492.927 357.631C492.502 357.284 491.97 357.092 491.421 357.088H462.921C462.589 357.088 462.262 357.158 461.958 357.292C461.655 357.427 461.384 357.623 461.161 357.868C460.936 358.111 460.764 358.399 460.657 358.712C460.55 359.026 460.511 359.358 460.541 359.688L466.121 425.178H465.321L459.751 359.758C459.711 359.318 459.765 358.874 459.908 358.455C460.051 358.036 460.28 357.653 460.581 357.328C460.881 357.01 461.244 356.757 461.647 356.585C462.049 356.413 462.483 356.325 462.921 356.328H491.421C492.153 356.333 492.861 356.587 493.428 357.049C493.996 357.511 494.388 358.153 494.541 358.868L503.391 401.218C503.811 403.218 504.022 405.255 504.021 407.298V425.198H503.231Z" fill="black"/>
<path d="M493.229 401.398C493.84 401.402 494.443 401.268 494.995 401.007C495.546 400.746 496.032 400.364 496.417 399.889C496.801 399.415 497.073 398.86 497.214 398.266C497.355 397.672 497.36 397.054 497.229 396.458L490.999 364.188C490.786 363.17 490.23 362.256 489.424 361.599C488.617 360.942 487.61 360.581 486.569 360.578H468.569C468.091 360.577 467.618 360.676 467.181 360.87C466.744 361.065 466.353 361.349 466.034 361.705C465.715 362.061 465.474 362.481 465.329 362.936C465.183 363.392 465.136 363.873 465.189 364.348L468.189 391.178C468.189 391.518 468.279 391.858 468.339 392.178C468.929 394.822 470.409 397.183 472.531 398.865C474.654 400.547 477.291 401.449 479.999 401.418L493.229 401.398Z" fill="#F4F4F4"/>
<path d="M520.291 396.928C520.177 395.612 519.912 394.314 519.501 393.058L509.001 360.578H503.001C502.317 360.573 501.64 360.72 501.02 361.007C500.399 361.294 499.85 361.714 499.411 362.238C498.977 362.754 498.667 363.361 498.502 364.014C498.338 364.667 498.323 365.349 498.461 366.008L504.231 393.318C504.461 394.348 505.037 395.268 505.863 395.925C506.689 396.581 507.715 396.935 508.771 396.928H520.291Z" fill="#F4F4F4"/>
<path opacity="0.3" d="M444.66 424.82H514.66L515.01 426.18H444.66V424.82Z" fill="black"/>
<path d="M443.08 438.788H518C518.62 438.788 518.62 433.238 518 433.238H443.08C442.46 433.238 442.46 438.788 443.08 438.788Z" fill="#61656D"/>
<g opacity="0.2">
<path opacity="0.2" d="M491 364.188C490.787 363.17 490.231 362.256 489.425 361.599C488.618 360.942 487.611 360.581 486.57 360.578H481.87L467.73 387.698L468.12 391.178C468.12 391.518 468.21 391.858 468.27 392.178C468.582 393.7 469.206 395.141 470.103 396.409C471 397.678 472.15 398.746 473.48 399.548L491.23 365.448L491 364.188Z" class="change-color-in-svg" fill="#4D61FC"/>
<path opacity="0.2" d="M491.74 368.098L475 400.348L475.64 400.598L491.99 369.178L491.74 368.098Z" class="change-color-in-svg" fill="#4D61FC"/>
<path opacity="0.2" d="M492.271 370.867L476.621 400.937C477.444 401.169 478.288 401.317 479.141 401.377L493.001 374.727L492.271 370.867Z" class="change-color-in-svg" fill="#4D61FC"/>
</g>
<g opacity="0.2">
<path opacity="0.2" d="M509.04 360.578H507.88L500.4 374.948L503.84 391.238L513.15 373.348L509.04 360.578Z" class="change-color-in-svg" fill="#4D61FC"/>
<path opacity="0.2" d="M513.87 375.578L504.41 393.758C504.502 394.038 504.619 394.309 504.76 394.568L514.17 376.498L513.87 375.578Z" class="change-color-in-svg" fill="#4D61FC"/>
<path opacity="0.2" d="M514.631 377.93L505.471 395.52C506.053 396.109 506.781 396.534 507.581 396.75L515.681 381.2L514.631 377.93Z" class="change-color-in-svg" fill="#4D61FC"/>
</g>
<path d="M333.211 366.162C333.658 365.092 334.366 364.151 335.271 363.426C336.176 362.701 337.249 362.215 338.391 362.012H383.141C383.984 362.012 384.793 362.347 385.389 362.943C385.986 363.539 386.321 364.348 386.321 365.192V403.622H330.681C330.641 390.782 331.001 371.522 333.211 366.162Z" class="change-color-in-svg" fill="#4D61FC"/>
<g opacity="0.2">
<path opacity="0.2" d="M333.211 366.162C333.658 365.092 334.366 364.151 335.271 363.426C336.176 362.701 337.249 362.215 338.391 362.012H383.141C383.984 362.012 384.793 362.347 385.389 362.943C385.986 363.539 386.321 364.348 386.321 365.192V403.622H330.681C330.641 390.782 331.001 371.522 333.211 366.162Z" fill="white"/>
</g>
<path d="M330.681 403.41H386.321V407.36H330.681C329.591 407.36 329.591 403.41 330.681 403.41Z" fill="#61656D"/>
<path d="M451.25 1054.48H508V1029.16H451.25V1054.48Z" class="change-color-in-svg" fill="#4D61FC"/>
<path d="M424.77 1075H534.48V1049.68H424.77V1075Z" class="change-color-in-svg" fill="#4D61FC"/>
<g opacity="0.2">
<path opacity="0.2" d="M451.25 1054.48H508V1029.16H451.25V1054.48Z" fill="white"/>
<path opacity="0.2" d="M424.77 1075H534.48V1049.68H424.77V1075Z" fill="white"/>
</g>
<path d="M823.05 543.391H730.68V562.771H823.05V543.391Z" fill="#49231F"/>
<path d="M827.87 561.941H725.58V567.261H827.87V561.941Z" fill="#B2B6BB"/>
<path d="M828.521 561.941H746.971V567.261H828.521V561.941Z" fill="#868A91"/>
<path d="M830.03 550.211H727.74V555.531H830.03V550.211Z" fill="#B2B6BB"/>
<path d="M830.42 550.211H747.66V555.531H830.42V550.211Z" fill="#868A91"/>
<path d="M825.411 556.078H723.221V561.398H825.411V556.078Z" fill="#B2B6BB"/>
<path d="M829.06 556.078H744.68V561.398H829.06V556.078Z" fill="#868A91"/>
<path d="M826.88 538.48H729.6V543.8H826.88V538.48Z" fill="#B2B6BB"/>
<path d="M831.771 538.48H746.811V543.8H831.771V538.48Z" fill="#868A91"/>
<path d="M825.519 544.352H724.699V549.672H825.519V544.352Z" fill="#B2B6BB"/>
<path d="M834.001 544.352H743.311V549.672H834.001V544.352Z" fill="#868A91"/>
<path d="M842.711 569.739L776.051 497.619C777.571 497.173 779.202 497.305 780.631 497.989L845.001 567.549L842.711 569.739Z" fill="#21252B"/>
<path d="M844.999 567.551H712.439V576.011H844.999V567.551Z" class="change-color-in-svg" fill="#4D61FC"/>
<path opacity="0.2" d="M844.999 567.551H712.439V576.011H844.999V567.551Z" fill="white"/>
</svg>