<?xml version="1.0" encoding="UTF-8"?>
<svg width="121px" height="143px" viewBox="0 0 121 143" version="1.1" xmlns="http://www.w3.org/2000/svg" xmlns:xlink="http://www.w3.org/1999/xlink">
    <!-- Generator: Sketch 55 (78076) - https://sketchapp.com -->
    <title>icn_fluxo_customer-support</title>
    <desc>Created with Sketch.</desc>
    <g id="Page-1" stroke="none" stroke-width="1" fill="none" fill-rule="evenodd">
        <g id="Artboard" transform="translate(-15.000000, -4.000000)" fill-rule="nonzero">
            <g id="icn_fluxo_customer-support" transform="translate(15.000000, 4.000000)">
                <path d="M60.5,0 C27.5,0 0,27.5 0,60.5 L0,93.5 C0,100.65 4.4,106.7 11,108.9 C11,108.9 18.7,110 22,110 L33,110 L33,60.5 L11,60.5 C11,33 33,11 60.5,11 C88,11 110,33 110,60.5 L88,60.5 L88,110 L104.5,110 C113.3,110 121,102.3 121,93.5 L121,60.5 C121,27.5 93.5,0 60.5,0 Z M22,71.5 L22,99 L16.5,99 C13.2,99 11,96.8 11,93.5 L11,71.5 L22,71.5 Z M110,93.5 C110,96.8 107.8,99 104.5,99 L99,99 L99,71.5 L110,71.5 L110,93.5 Z" id="Shape" fill="#4D5BED"></path>
                <path d="M11,110 C11,124.85 23.65,137.5 38.5,137.5 L45.65,137.5 C47.3,140.8 51.15,143 55,143 L66,143 C72.05,143 77,138.05 77,132 C77,125.95 72.05,121 66,121 L55,121 C51.15,121 47.3,123.2 45.65,126.5 L38.5,126.5 C29.15,126.5 22,119.35 22,110 C18.7,110 11,108.9 11,108.9 L11,110 Z" id="Path" fill-opacity="0.65" fill="#7C87FB"></path>
            </g>
        </g>
    </g>
</svg>