<svg class="gridItem__media" version="1.1" id="Layer_1" xmlns="http://www.w3.org/2000/svg" xmlns:xlink="http://www.w3.org/1999/xlink" x="0px" y="0px" width="1600" height="1200" viewBox="0 0 1600 1200" style="enable-background:new 0 0 1600 1200;" xml:space="preserve" fill="none">    
<path d="M1228.94 1017.07L1388.48 700.349C1392.7 691.967 1394.75 682.659 1394.44 673.279C1394.12 663.9 1391.45 654.749 1386.68 646.669L1139.41 228.109C1134.63 220.012 1127.88 213.25 1119.79 208.447C1111.71 203.644 1102.54 200.956 1093.14 200.629L485.141 179.549C476.13 179.237 467.177 181.105 459.043 184.994C450.909 188.884 443.835 194.68 438.421 201.889L217.131 496.529C212.043 503.302 208.559 511.14 206.939 519.455C205.32 527.769 205.607 536.342 207.781 544.529L333.111 1017.09L1228.94 1017.07Z" fill="#3F4249"/>
<path d="M286.391 849.48H1313.39L1228.98 1017.07H333.111L286.391 849.48Z" fill="#858990"/>
<path d="M819.16 396C819.16 396 777.6 440 747.09 468.45C725.58 488.53 659.92 548.9 659.92 548.9C659.92 548.9 711.78 581.27 732.49 593.32C748.61 602.7 797.73 631.73 797.73 631.73C797.73 631.73 897.23 583.34 929.93 565.9C948 556.24 1000.79 525 1000.79 525C1000.79 525 923.37 477.44 898.63 459.87C878 445.15 819.16 396 819.16 396Z" fill="#D9DCDE"/>
<path d="M659.92 548.86C659.92 548.86 725.58 488.5 747.09 468.41C777.6 439.93 819.16 396 819.16 396V450.81L801.28 452.55L830.35 487.41L775.47 486.25L786.88 510L695.27 576.06L659.92 548.86Z" fill="white"/>
<path d="M1102.3 439.119C1102.3 439.119 994.999 504.439 956.699 525.329C910.809 550.329 765.189 620.789 765.189 620.789L976.699 764.269L1352.84 654.569L1299.84 549.569C1299.84 549.569 1217.48 511.979 1191.47 498.079C1160.04 481.142 1130.19 461.409 1102.3 439.119Z" fill="#D9DCDE"/>
<path opacity="0.2" d="M1102.3 439.119C1102.3 439.119 994.999 504.439 956.699 525.329C910.809 550.329 765.189 620.789 765.189 620.789L976.699 764.269L1352.84 654.569L1299.84 549.569C1299.84 549.569 1217.48 511.979 1191.47 498.079C1160.04 481.142 1130.19 461.409 1102.3 439.119Z" fill="black"/>
<path d="M765.189 620.789C765.189 620.789 910.809 550.369 956.699 525.329C994.989 504.439 1102.3 439.119 1102.3 439.119L1050.09 510.119L1091.62 523.589L1033.21 537.179L1036.38 567.019L917.479 592.699L945.169 618.589L779.619 640.939L765.189 620.789Z" fill="white"/>
<path d="M535.49 409C535.49 409 599.09 452.48 620.16 466.35C704.39 521.82 1039.26 713.77 1039.26 713.77L835 798.77L234 642L219 588.56C219 588.56 334.25 535.89 381.78 510.42C434.77 482.09 535.49 409 535.49 409Z" fill="#858990"/>
<path d="M219.061 588.59C219.061 588.59 314.571 549.16 381.841 510.45C451.071 470.61 535.501 409 535.501 409L550.001 469.63L498.701 488.18L538.001 510L254.051 682.58L219.061 588.59Z" fill="white"/>
<path d="M243.75 461.08L216.75 497.02C211.768 503.654 208.322 511.312 206.662 519.44C205.002 527.568 205.168 535.964 207.15 544.02L255.75 741.64L521.83 751.7L578.19 697.11C578.19 697.11 526.919 656.11 492.09 696.06C492.09 696.06 504.969 581.53 443.329 564.06C425.219 558.94 401.57 569.62 391.39 597.76C391.39 597.76 388.34 563.7 362.7 554.9C348.49 550.03 339.38 558.27 334.079 566.6C334.079 566.6 334.36 533.74 295.57 538.37C295.56 538.41 294.85 483.1 243.75 461.08Z" fill="#D9DCDE"/>
<path d="M751.891 780C751.891 780 783.001 707 855.891 714.62C873.811 716.5 900.471 733.62 902.831 748.62C902.831 748.62 905.971 717.39 942.381 717.62C951.998 717.612 961.429 720.267 969.631 725.29C969.631 725.29 961.691 694.45 1004.35 692.29C1004.35 692.29 989.741 648.44 1004.35 642.52C1018.96 636.6 1026.78 666.46 1026.78 666.46C1026.78 666.46 1020.22 616.72 1032.28 613.97C1044.34 611.22 1054.28 657.54 1054.28 657.54C1054.28 657.54 1059.66 584.65 1146.37 596.95C1146.37 596.95 1129.9 557.65 1153.37 554.67C1159.96 553.83 1165.64 557.59 1170.37 563.43C1170.37 563.43 1162.29 520.24 1209.5 500.17C1209.5 500.17 1189.65 473.64 1203.44 466.24C1213.29 460.95 1227.21 479.24 1234.36 490.19C1234.36 490.19 1244.83 456.92 1270.44 449.9L1386.44 646.34C1391.28 654.538 1393.98 663.824 1394.28 673.34C1394.58 682.856 1392.48 692.294 1388.16 700.78L1312.53 849.56H788.531L751.891 780Z" fill="#D9DCDE"/>
<path d="M292.68 650.24C294.087 654.603 295.723 658.889 297.58 663.08C296.301 658.673 294.662 654.379 292.68 650.24Z" fill="#AFB3B8"/>
<path d="M521.819 751.711C521.219 743.441 515.639 738.351 509.609 735.431C488.609 725.251 476.169 744.031 476.169 744.031C476.699 730.801 473.929 719.271 464.749 713.701C435.379 695.891 414.129 729.001 414.129 729.001C414.129 729.001 417.249 692.751 402.569 661.191C387.889 629.631 359.139 666.811 359.139 666.811C359.139 666.811 371.009 587.441 346.949 591.811C322.889 596.181 325.999 651.631 325.999 651.631C325.999 651.631 313.189 595.891 295.379 607.771C283.829 615.471 288.179 636.441 292.669 650.241C294.657 654.377 296.296 658.672 297.569 663.081C295.712 658.89 294.077 654.604 292.669 650.241C287.219 638.831 277.039 624.521 261.319 628.401C236.009 634.651 251.129 725.631 251.129 725.631L286.379 849.491H450.379L521.819 751.711Z" fill="#AFB3B8"/>
<path d="M1313.2 849.541L913.559 849.481C913.559 849.481 905.559 813.811 920.669 804.821C935.779 795.831 955.049 824.281 955.049 824.281C955.049 824.281 951.399 805.821 964.839 806.281C971.609 806.531 975.679 814.531 976.839 822.531C976.839 822.531 972.789 763.231 1049.43 772.981C1049.43 772.981 1042.43 753.251 1069.68 748.091C1069.68 748.091 1082.68 685.091 1146.91 704.931C1146.91 704.931 1142.6 680.931 1158.65 671.181C1172.08 662.971 1181.6 667.841 1187.36 673.671C1187.36 673.671 1174.36 649.891 1192.77 631.781C1199.12 625.425 1207.39 621.338 1216.3 620.151C1216.3 620.151 1224.7 583.491 1274.65 590.151C1294.65 592.831 1307.76 600.231 1316.23 608.151C1316.23 608.151 1328.47 579.371 1358.09 598.251L1386 646.331C1390.91 654.5 1393.73 663.754 1394.22 673.274C1394.7 682.794 1392.83 692.286 1388.77 700.911L1313.2 849.541Z" fill="#AFB3B8"/>
<path d="M603.57 1017.07C603.57 1017.07 595.77 983.891 605.18 979.911C614.59 975.931 610.83 1007.37 610.83 1007.37C610.83 1007.37 618.28 948.901 637.76 949.491C657.24 950.081 626.25 1003.8 626.25 1003.8C626.25 1003.8 646.55 983.281 653.69 991.201C660.42 998.671 638.82 1017.07 638.82 1017.07H603.57Z" fill="black"/>
<path d="M1001 734.65C1001 734.65 997.189 756.71 989.589 773.45C981.989 790.19 978.929 811.45 978.929 819.1C978.929 826.75 962.199 831.27 962.199 831.27L956.869 889.1H1230.77C1230.77 889.1 1216.31 851.81 1207.18 851.81C1198.05 851.81 1179.03 848.81 1179.03 848.81L1149.36 784.14L1131.6 759.42C1125.13 750.419 1116.53 743.166 1106.56 738.314C1096.6 733.461 1085.58 731.161 1074.51 731.62L1001 734.65Z" fill="#3F4249"/>
<path opacity="0.2" d="M1001 734.65C1001 734.65 1021.54 738.45 1027.63 744.54C1033.72 750.63 1044.37 787.15 1044.37 787.15L1051.97 805.4L1120.45 810.73L1146.62 780.29L1125.8 751.29C1121.12 744.767 1114.88 739.511 1107.66 735.995C1100.44 732.48 1092.46 730.814 1084.44 731.15L1001 734.65Z" fill="white"/>
<path opacity="0.3" d="M997.73 889.101L1049.66 873.311L1151.23 889.101H997.73Z" fill="black"/>
<path opacity="0.3" d="M1051.94 805.4L1049.66 873.31L1151.23 889.1L1120.42 810.73L1051.94 805.4Z" fill="black"/>
<path d="M1122.89 850.1C1122.89 850.371 1122.97 850.636 1123.12 850.862C1123.27 851.087 1123.49 851.263 1123.74 851.366C1123.99 851.47 1124.26 851.497 1124.53 851.444C1124.79 851.391 1125.04 851.261 1125.23 851.069C1125.42 850.878 1125.55 850.633 1125.6 850.368C1125.66 850.102 1125.63 849.827 1125.53 849.576C1125.42 849.326 1125.25 849.112 1125.02 848.961C1124.8 848.811 1124.53 848.73 1124.26 848.73C1124.08 848.73 1123.9 848.766 1123.74 848.835C1123.57 848.904 1123.42 849.005 1123.29 849.132C1123.16 849.259 1123.06 849.41 1122.99 849.576C1122.93 849.742 1122.89 849.921 1122.89 850.1Z" fill="#514A4A"/>
<path opacity="0.3" d="M1009.91 769.84C1009.91 769.84 991.081 798 991.081 814.4C991.081 830.8 979.001 842.6 972.821 848.73C966.641 854.86 972.821 889.1 972.821 889.1H997.731C997.731 889.1 981.391 860.1 990.001 851.47C998.611 842.84 1001 824.56 1001 810.73C1001 796.9 1009.91 769.84 1009.91 769.84Z" fill="black"/>
<path opacity="0.2" d="M1206.77 856.239C1206.77 856.239 1160 883.999 1160 876.999C1160 869.999 1175.22 853.609 1175.22 853.609C1175.22 853.609 1176.74 854.989 1181.3 855.509C1190.73 856.559 1206.77 852.439 1206.77 856.239Z" fill="white"/>
<path d="M658.221 1017.07C658.221 1017.07 678.221 992.959 709.921 993.499C741.621 994.039 759.491 1017.07 759.491 1017.07H658.221Z" class="change-color-in-svg" fill="#4D61FC"/>
<path d="M909.42 1017.07C909.42 1017.07 915.56 1004.68 944.52 1004.07C963.22 1003.68 976.77 1014.63 976.77 1014.63C976.77 1014.63 981.62 1002.81 993.04 1003.73C1004.46 1004.65 1019.04 1017.07 1019.04 1017.07H909.42Z" class="change-color-in-svg" fill="#4D61FC"/>
<path d="M746.66 1017.07C746.66 1017.07 736 1001.78 744 996.371C752 990.961 775.4 1017.07 775.4 1017.07H746.66Z" fill="black"/>
<path d="M781.529 1017.07C781.529 1017.07 788.529 975.23 802.529 974.01C816.529 972.79 800.329 1012.75 800.329 1012.75C800.329 1012.75 827.579 980.85 843.469 982.69C859.359 984.53 829.469 1012.63 829.469 1012.63C829.469 1012.63 856.199 997.52 878.599 1003.95C896.219 1009.01 902.309 1017.07 902.309 1017.07H781.529Z" fill="black"/>
<path d="M1224.34 1017.06H1039.27C1039.27 1017.06 1047.37 1001.31 1076.72 999.67C1076.72 999.67 1055.37 984.94 1061.81 977.95C1068.25 970.96 1094.26 994.73 1094.26 994.73C1094.26 994.73 1087.81 975.17 1094.26 972.73C1100.71 970.29 1112.39 992.59 1112.39 992.59C1112.39 992.59 1114.77 967.48 1150.33 973.65C1150.33 973.65 1129.33 949 1148.23 935.59C1156.46 929.75 1168.16 933.14 1178.74 938.83C1178.74 938.83 1143.05 892.57 1167.55 882.69C1192.05 872.81 1222.62 916 1222.62 916C1222.62 916 1229.19 878.06 1280.98 913.18L1228.98 1017.07" fill="black"/>
<path d="M1257.27 1020.49H309.05C308.71 1020.49 308.48 1019.8 308.48 1018.78C308.48 1017.76 308.71 1017.07 309.05 1017.07H1257.39C1257.73 1017.07 1257.96 1017.75 1257.96 1018.78C1257.96 1019.81 1257.61 1020.49 1257.27 1020.49Z" fill="#B2B6BB"/>
<path d="M669.749 249.119C676.503 259.197 679.818 271.188 679.198 283.304C678.578 295.42 674.057 307.01 666.309 316.345C658.562 325.681 648.003 332.261 636.21 335.104C624.416 337.947 612.019 336.9 600.869 332.119C606.018 338.324 612.471 343.318 619.769 346.745C627.067 350.173 635.031 351.95 643.093 351.95C651.156 351.95 659.12 350.173 666.418 346.746C673.716 343.319 680.169 338.325 685.318 332.121C690.467 325.916 694.186 318.653 696.209 310.848C698.232 303.043 698.51 294.889 697.024 286.964C695.537 279.039 692.323 271.54 687.609 264.999C682.894 258.458 676.797 253.036 669.749 249.119Z" fill="white"/>
<path d="M830.35 273.411C830.732 273.411 831.105 273.298 831.422 273.086C831.74 272.873 831.987 272.572 832.133 272.219C832.279 271.867 832.317 271.479 832.243 271.104C832.168 270.73 831.985 270.386 831.715 270.116C831.445 269.846 831.101 269.662 830.726 269.588C830.352 269.513 829.964 269.552 829.611 269.698C829.259 269.844 828.957 270.091 828.745 270.409C828.533 270.726 828.42 271.099 828.42 271.481C828.423 271.992 828.627 272.481 828.988 272.843C829.349 273.204 829.839 273.408 830.35 273.411Z" fill="white"/>
<path d="M710.561 228.831C710.943 228.831 711.316 228.718 711.633 228.505C711.951 228.293 712.198 227.992 712.344 227.639C712.49 227.287 712.528 226.899 712.454 226.524C712.379 226.15 712.196 225.806 711.926 225.536C711.656 225.266 711.312 225.082 710.937 225.008C710.563 224.933 710.175 224.972 709.822 225.118C709.47 225.264 709.168 225.511 708.956 225.828C708.744 226.146 708.631 226.519 708.631 226.901C708.633 227.412 708.838 227.901 709.199 228.263C709.56 228.624 710.05 228.828 710.561 228.831Z" fill="white"/>
<path d="M1102.3 273.411C1102.68 273.411 1103.05 273.298 1103.37 273.086C1103.69 272.873 1103.94 272.572 1104.08 272.219C1104.23 271.867 1104.27 271.479 1104.19 271.104C1104.12 270.73 1103.93 270.386 1103.66 270.116C1103.39 269.846 1103.05 269.662 1102.68 269.588C1102.3 269.513 1101.91 269.552 1101.56 269.698C1101.21 269.844 1100.91 270.091 1100.69 270.409C1100.48 270.726 1100.37 271.099 1100.37 271.481C1100.37 271.993 1100.57 272.484 1100.93 272.846C1101.3 273.207 1101.79 273.411 1102.3 273.411Z" fill="white"/>
<path d="M325.629 408.049C326.011 408.049 326.384 407.936 326.701 407.724C327.019 407.512 327.266 407.211 327.412 406.858C327.558 406.505 327.597 406.117 327.522 405.743C327.448 405.369 327.264 405.025 326.994 404.755C326.724 404.485 326.38 404.301 326.006 404.227C325.631 404.152 325.243 404.19 324.891 404.336C324.538 404.482 324.237 404.73 324.024 405.047C323.812 405.365 323.699 405.738 323.699 406.119C323.702 406.631 323.906 407.12 324.267 407.481C324.629 407.843 325.118 408.047 325.629 408.049Z" fill="white"/>
<path d="M911.25 331.68C911.632 331.68 912.005 331.567 912.323 331.355C912.64 331.143 912.887 330.842 913.033 330.489C913.179 330.136 913.218 329.748 913.143 329.374C913.069 328.999 912.885 328.656 912.615 328.386C912.345 328.116 912.001 327.932 911.627 327.857C911.252 327.783 910.864 327.821 910.512 327.967C910.159 328.113 909.858 328.361 909.646 328.678C909.433 328.995 909.32 329.369 909.32 329.75C909.323 330.261 909.527 330.751 909.888 331.112C910.25 331.474 910.739 331.678 911.25 331.68Z" fill="white"/>
<path d="M1000.79 251.049C1001.17 251.049 1001.54 250.936 1001.86 250.724C1002.18 250.512 1002.43 250.211 1002.57 249.858C1002.72 249.505 1002.76 249.117 1002.68 248.743C1002.61 248.369 1002.42 248.025 1002.15 247.755C1001.88 247.485 1001.54 247.301 1001.17 247.227C1000.79 247.152 1000.4 247.19 1000.05 247.336C999.698 247.482 999.397 247.73 999.185 248.047C998.973 248.365 998.859 248.738 998.859 249.119C998.859 249.631 999.063 250.122 999.425 250.484C999.787 250.846 1000.28 251.049 1000.79 251.049Z" fill="white"/>
<path d="M1154.91 371.821C1155.29 371.821 1155.67 371.708 1155.98 371.496C1156.3 371.284 1156.55 370.982 1156.69 370.63C1156.84 370.277 1156.88 369.889 1156.8 369.514C1156.73 369.14 1156.55 368.796 1156.28 368.526C1156.01 368.256 1155.66 368.072 1155.29 367.998C1154.91 367.924 1154.52 367.962 1154.17 368.108C1153.82 368.254 1153.52 368.501 1153.31 368.819C1153.09 369.136 1152.98 369.509 1152.98 369.891C1152.98 370.403 1153.18 370.894 1153.55 371.256C1153.91 371.618 1154.4 371.821 1154.91 371.821Z" fill="white"/>
<path d="M1008.73 421.889C1009.11 421.889 1009.49 421.776 1009.8 421.564C1010.12 421.352 1010.37 421.051 1010.51 420.698C1010.66 420.345 1010.7 419.957 1010.62 419.583C1010.55 419.208 1010.37 418.864 1010.1 418.595C1009.83 418.325 1009.48 418.141 1009.11 418.066C1008.73 417.992 1008.34 418.03 1007.99 418.176C1007.64 418.322 1007.34 418.57 1007.13 418.887C1006.91 419.204 1006.8 419.578 1006.8 419.959C1006.8 420.471 1007 420.962 1007.37 421.324C1007.73 421.686 1008.22 421.889 1008.73 421.889Z" fill="white"/>
<path d="M765.19 364.309C765.571 364.309 765.945 364.196 766.262 363.984C766.579 363.772 766.827 363.47 766.973 363.118C767.119 362.765 767.157 362.377 767.083 362.003C767.008 361.628 766.824 361.284 766.554 361.015C766.285 360.745 765.941 360.561 765.566 360.486C765.192 360.412 764.804 360.45 764.451 360.596C764.099 360.742 763.797 360.99 763.585 361.307C763.373 361.624 763.26 361.997 763.26 362.379C763.262 362.89 763.467 363.38 763.828 363.741C764.189 364.102 764.679 364.307 765.19 364.309Z" fill="white"/>
<path d="M420.84 439.12C421.222 439.12 421.595 439.007 421.912 438.794C422.23 438.582 422.477 438.281 422.623 437.928C422.769 437.576 422.808 437.188 422.733 436.813C422.659 436.439 422.475 436.095 422.205 435.825C421.935 435.555 421.591 435.371 421.217 435.297C420.842 435.222 420.454 435.261 420.102 435.407C419.749 435.553 419.447 435.8 419.235 436.117C419.023 436.435 418.91 436.808 418.91 437.19C418.913 437.701 419.117 438.19 419.478 438.552C419.84 438.913 420.329 439.117 420.84 439.12Z" fill="white"/>
<path d="M490.34 335.54C490.722 335.54 491.095 335.426 491.412 335.214C491.73 335.002 491.977 334.701 492.123 334.348C492.269 333.996 492.308 333.608 492.233 333.233C492.159 332.859 491.975 332.515 491.705 332.245C491.435 331.975 491.091 331.791 490.717 331.717C490.342 331.642 489.954 331.681 489.602 331.827C489.249 331.973 488.947 332.22 488.735 332.537C488.523 332.855 488.41 333.228 488.41 333.61C488.413 334.121 488.617 334.61 488.978 334.972C489.34 335.333 489.829 335.537 490.34 335.54Z" fill="white"/>
<path d="M332.151 489.889C332.532 489.889 332.906 489.776 333.223 489.564C333.54 489.352 333.788 489.051 333.934 488.698C334.08 488.345 334.118 487.957 334.044 487.583C333.969 487.208 333.785 486.864 333.515 486.595C333.245 486.325 332.902 486.141 332.527 486.066C332.153 485.992 331.765 486.03 331.412 486.176C331.059 486.322 330.758 486.57 330.546 486.887C330.334 487.204 330.221 487.578 330.221 487.959C330.223 488.47 330.428 488.96 330.789 489.321C331.15 489.682 331.64 489.887 332.151 489.889Z" fill="white"/>
<path d="M569.26 287.59C569.642 287.59 570.015 287.477 570.332 287.265C570.65 287.053 570.897 286.752 571.043 286.399C571.189 286.046 571.227 285.658 571.153 285.284C571.078 284.91 570.895 284.566 570.625 284.296C570.355 284.026 570.011 283.842 569.637 283.768C569.262 283.693 568.874 283.731 568.521 283.877C568.169 284.023 567.867 284.271 567.655 284.588C567.443 284.906 567.33 285.279 567.33 285.66C567.333 286.172 567.537 286.661 567.898 287.022C568.26 287.384 568.749 287.588 569.26 287.59Z" fill="white"/>
<path d="M480.311 232.69C480.693 232.69 481.066 232.577 481.383 232.365C481.701 232.153 481.948 231.851 482.094 231.499C482.24 231.146 482.278 230.758 482.204 230.384C482.129 230.009 481.945 229.665 481.676 229.395C481.406 229.125 481.062 228.942 480.687 228.867C480.313 228.793 479.925 228.831 479.572 228.977C479.22 229.123 478.918 229.37 478.706 229.688C478.494 230.005 478.381 230.378 478.381 230.76C478.383 231.271 478.588 231.761 478.949 232.122C479.31 232.483 479.8 232.687 480.311 232.69Z" fill="white"/>
<path d="M619.619 406.12C620.001 406.12 620.374 406.007 620.692 405.794C621.009 405.582 621.256 405.281 621.403 404.928C621.549 404.576 621.587 404.188 621.512 403.813C621.438 403.439 621.254 403.095 620.984 402.825C620.714 402.555 620.37 402.371 619.996 402.297C619.622 402.222 619.234 402.261 618.881 402.407C618.528 402.553 618.227 402.8 618.015 403.117C617.803 403.435 617.689 403.808 617.689 404.19C617.692 404.701 617.896 405.19 618.258 405.552C618.619 405.913 619.108 406.117 619.619 406.12Z" fill="white"/>
<path d="M745.141 429.491C745.523 429.491 745.896 429.378 746.213 429.166C746.531 428.954 746.778 428.652 746.924 428.299C747.07 427.947 747.108 427.559 747.034 427.184C746.959 426.81 746.776 426.466 746.506 426.196C746.236 425.926 745.892 425.742 745.517 425.668C745.143 425.593 744.755 425.632 744.402 425.778C744.05 425.924 743.748 426.171 743.536 426.489C743.324 426.806 743.211 427.179 743.211 427.561C743.214 428.072 743.418 428.561 743.779 428.923C744.14 429.284 744.63 429.488 745.141 429.491Z" fill="white"/>
<path d="M394.891 337.46C395.273 337.46 395.646 337.346 395.963 337.134C396.281 336.922 396.528 336.621 396.674 336.268C396.82 335.916 396.858 335.527 396.784 335.153C396.709 334.779 396.526 334.435 396.256 334.165C395.986 333.895 395.642 333.711 395.267 333.637C394.893 333.562 394.505 333.6 394.152 333.747C393.8 333.893 393.498 334.14 393.286 334.457C393.074 334.775 392.961 335.148 392.961 335.53C392.964 336.041 393.168 336.53 393.529 336.891C393.891 337.253 394.38 337.457 394.891 337.46Z" fill="white"/>
<path d="M535.18 691L374.33 877L375.09 877.65L535.93 691.65L535.18 691Z" fill="black"/>
<path d="M535.569 691.35C535.569 691.35 612.279 712.35 704.719 689.91L580.319 877.36H399.689L535.569 691.35Z" class="change-color-in-svg" fill="#4D61FC"/>
<path d="M704.72 689.91L807.21 877.36H580.32L704.72 689.91Z" class="change-color-in-svg" fill="#4D61FC"/>
<path opacity="0.3" d="M704.72 689.91L807.21 877.36H580.32L704.72 689.91Z" fill="white"/>
<path d="M704.721 689.91L695.721 701.46H712.281L704.721 689.91Z" class="change-color-in-svg" fill="#4D61FC"/>
<path opacity="0.5" d="M704.721 689.91L695.721 701.46H712.281L704.721 689.91Z" fill="black"/>
<path opacity="0.3" d="M699.77 701.461C699.77 701.461 677.17 815.731 625.83 864.001C625.83 864.001 642.63 868.581 647.75 877.381C647.75 877.381 693.75 820.821 704.75 720.181C715.75 820.811 761.75 877.381 761.75 877.381C766.87 868.581 783.67 864.001 783.67 864.001C732.33 815.741 709.73 701.471 709.73 701.471L699.77 701.461Z" fill="white"/>
<path d="M559.369 877.361L565.749 869.131H638.329C638.329 869.131 645.589 873.031 647.749 877.361H559.369Z" class="change-color-in-svg" fill="#4D61FC"/>
<path d="M807.211 877.361L802.421 869.131H771.131C771.131 869.131 763.871 873.031 761.711 877.361H807.211Z" class="change-color-in-svg" fill="#4D61FC"/>
<g opacity="0.3">
<path opacity="0.3" d="M399.689 877.361L405.689 869.131H638.329C638.329 869.131 645.589 873.031 647.749 877.361H399.689Z" fill="black"/>
<path opacity="0.3" d="M807.209 877.361L802.419 869.131H771.129C771.129 869.131 763.869 873.031 761.709 877.361H807.209Z" fill="black"/>
</g>
<path d="M565.38 870.431L564.59 869.811L704.75 689.051L705.13 689.631L822.07 868.861L821.23 869.411L704.68 690.771L565.38 870.431Z" fill="black"/>
<path opacity="0.5" d="M546.53 747.5C552.72 749.23 575.62 754.43 608.33 747.89C608.845 747.792 609.377 747.852 609.857 748.062C610.338 748.271 610.743 748.621 611.021 749.066C611.299 749.51 611.436 750.028 611.415 750.552C611.393 751.076 611.213 751.58 610.9 752L567.9 806.81C567.662 807.116 567.359 807.364 567.013 807.537C566.667 807.71 566.287 807.804 565.9 807.81H503.65C503.166 807.808 502.692 807.67 502.282 807.414C501.872 807.158 501.541 806.792 501.326 806.359C501.111 805.925 501.021 805.44 501.066 804.958C501.111 804.477 501.289 804.017 501.58 803.63L543.76 748.39C544.081 747.984 544.516 747.682 545.009 747.524C545.502 747.365 546.032 747.357 546.53 747.5Z" fill="black"/>
<path opacity="0.4" d="M547.69 753.53C552.64 754.91 570.96 759.08 597.12 753.84C597.533 753.769 597.957 753.824 598.338 753.998C598.719 754.172 599.038 754.457 599.254 754.816C599.47 755.175 599.573 755.591 599.549 756.009C599.525 756.427 599.376 756.828 599.12 757.16L564.78 801C564.585 801.248 564.336 801.45 564.052 801.588C563.768 801.727 563.456 801.799 563.14 801.8H513.38C512.993 801.799 512.613 801.69 512.285 801.485C511.956 801.28 511.691 800.988 511.52 800.641C511.348 800.294 511.277 799.906 511.314 799.52C511.351 799.135 511.495 798.768 511.73 798.46L545.47 754.27C545.723 753.938 546.07 753.69 546.466 753.558C546.862 753.426 547.288 753.416 547.69 753.53Z" fill="white"/>
<path d="M608.359 758.83L583.57 756.76C576.279 756.109 568.943 756.15 561.659 756.88L542.169 758.82C539.676 758.82 537.286 757.829 535.523 756.066C533.76 754.304 532.77 751.913 532.77 749.419C532.77 746.926 533.76 744.536 535.523 742.773C537.286 741.01 539.676 740.02 542.169 740.02L562.58 741.88C568.954 742.461 575.366 742.518 581.75 742.049L607.909 740.049L608.359 758.83Z" class="change-color-in-svg" fill="#4D61FC"/>
<path opacity="0.3" d="M608.359 758.83L583.57 756.76C576.279 756.109 568.943 756.15 561.659 756.88L542.169 758.82C539.676 758.82 537.286 757.829 535.523 756.066C533.76 754.304 532.77 751.913 532.77 749.419C532.77 746.926 533.76 744.536 535.523 742.773C537.286 741.01 539.676 740.02 542.169 740.02L562.58 741.88C568.954 742.461 575.366 742.518 581.75 742.049L607.909 740.049L608.359 758.83Z" fill="white"/>
<path d="M607.78 750.529C608.245 750.723 608.752 750.796 609.253 750.742C609.754 750.688 610.233 750.509 610.647 750.221C611.06 749.933 611.395 749.546 611.619 749.094C611.843 748.643 611.95 748.143 611.93 747.639C611.877 746.828 611.552 746.058 611.007 745.454C610.463 744.85 609.731 744.447 608.93 744.309C608.335 744.191 607.723 744.191 607.129 744.312C606.534 744.432 605.97 744.669 605.468 745.01C604.967 745.351 604.538 745.788 604.207 746.296C603.876 746.804 603.649 747.373 603.54 747.969C603.326 749.075 603.447 750.219 603.887 751.256C604.327 752.293 605.066 753.175 606.01 753.789C606.721 754.228 607.526 754.491 608.359 754.557C609.192 754.623 610.029 754.49 610.8 754.169C612.529 753.565 613.964 752.329 614.818 750.709C615.671 749.089 615.879 747.206 615.4 745.439C614.94 743.829 613.953 742.419 612.597 741.437C611.24 740.454 609.594 739.955 607.92 740.019C605.537 740.077 603.265 741.037 601.563 742.706C599.862 744.376 598.858 746.629 598.755 749.011C598.652 751.392 599.458 753.724 601.009 755.534C602.56 757.343 604.741 758.496 607.11 758.759C609.959 759.084 612.824 758.293 615.102 756.552C617.381 754.81 618.896 752.254 619.33 749.419L615.49 748.879" class="change-color-in-svg" fill="#4D61FC"/>
<g opacity="0.5">
<g opacity="0.5">
<path opacity="0.5" d="M607.78 750.529C608.245 750.723 608.752 750.796 609.253 750.742C609.754 750.688 610.233 750.509 610.647 750.221C611.06 749.933 611.395 749.546 611.619 749.094C611.843 748.643 611.95 748.143 611.93 747.639C611.877 746.828 611.552 746.058 611.007 745.454C610.463 744.85 609.731 744.447 608.93 744.309C608.335 744.191 607.723 744.191 607.129 744.312C606.534 744.432 605.97 744.669 605.468 745.01C604.967 745.351 604.538 745.788 604.207 746.296C603.876 746.804 603.649 747.373 603.54 747.969C603.326 749.075 603.447 750.219 603.887 751.256C604.327 752.293 605.066 753.175 606.01 753.789C606.721 754.228 607.526 754.491 608.359 754.557C609.192 754.623 610.029 754.49 610.8 754.169C612.529 753.565 613.964 752.329 614.818 750.709C615.671 749.089 615.879 747.206 615.4 745.439C614.94 743.829 613.953 742.419 612.597 741.437C611.24 740.454 609.594 739.955 607.92 740.019C605.537 740.077 603.265 741.037 601.563 742.706C599.862 744.376 598.858 746.629 598.755 749.011C598.652 751.392 599.458 753.724 601.009 755.534C602.56 757.343 604.741 758.496 607.11 758.759C609.959 759.084 612.824 758.293 615.102 756.552C617.381 754.81 618.896 752.254 619.33 749.419L615.49 748.879" fill="white"/>
</g>
</g>
<path d="M554.699 877.359V854.559C554.699 854.153 554.86 853.764 555.147 853.477C555.434 853.19 555.823 853.029 556.229 853.029H557.999C558.372 853.029 558.733 853.165 559.013 853.412C559.293 853.658 559.473 853.999 559.519 854.369L560.249 859.909L561.249 855.279C561.323 854.936 561.512 854.629 561.785 854.408C562.058 854.188 562.398 854.068 562.749 854.069H563.999C564.405 854.069 564.794 854.23 565.081 854.517C565.368 854.804 565.529 855.193 565.529 855.599V877.359H554.699Z" class="change-color-in-svg" fill="#4D61FC"/>
<path d="M821 877.359V851.089C821 850.874 821.085 850.668 821.237 850.517C821.389 850.365 821.595 850.279 821.81 850.279H824.92C825.123 850.279 825.319 850.354 825.469 850.491C825.619 850.628 825.712 850.817 825.73 851.019L826.56 859.909L827.56 853.959C827.579 853.849 827.62 853.743 827.682 853.649C827.743 853.555 827.823 853.474 827.917 853.412C828.011 853.35 828.116 853.308 828.227 853.289C828.337 853.27 828.451 853.273 828.56 853.299L831.21 853.919C831.389 853.96 831.549 854.06 831.663 854.204C831.778 854.348 831.84 854.526 831.84 854.709V877.359H821Z" class="change-color-in-svg" fill="#4D61FC"/>
<path d="M369.279 877.359V854.559C369.279 854.153 369.44 853.764 369.727 853.477C370.014 853.19 370.404 853.029 370.809 853.029H372.589C372.962 853.029 373.323 853.165 373.603 853.412C373.883 853.658 374.063 853.999 374.109 854.369L374.839 859.909L375.839 855.279C375.913 854.936 376.102 854.629 376.375 854.408C376.648 854.188 376.988 854.068 377.339 854.069H378.559C378.965 854.069 379.354 854.23 379.641 854.517C379.928 854.804 380.089 855.193 380.089 855.599V877.359H369.279Z" class="change-color-in-svg" fill="#4D61FC"/>
<g opacity="0.5">
<path opacity="0.5" d="M554.699 877.359V854.559C554.699 854.153 554.86 853.764 555.147 853.477C555.434 853.19 555.823 853.029 556.229 853.029H557.999C558.372 853.029 558.733 853.165 559.013 853.412C559.293 853.658 559.473 853.999 559.519 854.369L560.249 859.909L561.249 855.279C561.323 854.936 561.512 854.629 561.785 854.408C562.058 854.188 562.398 854.068 562.749 854.069H563.999C564.405 854.069 564.794 854.23 565.081 854.517C565.368 854.804 565.529 855.193 565.529 855.599V877.359H554.699Z" fill="black"/>
<path opacity="0.5" d="M369.279 877.359V854.559C369.279 854.153 369.44 853.764 369.727 853.477C370.014 853.19 370.404 853.029 370.809 853.029H372.589C372.962 853.029 373.323 853.165 373.603 853.412C373.883 853.658 374.063 853.999 374.109 854.369L374.839 859.909L375.839 855.279C375.913 854.936 376.102 854.629 376.375 854.408C376.648 854.188 376.988 854.068 377.339 854.069H378.559C378.965 854.069 379.354 854.23 379.641 854.517C379.928 854.804 380.089 855.193 380.089 855.599V877.359H369.279Z" fill="black"/>
<path opacity="0.5" d="M821 877.359V851.089C821 850.874 821.085 850.668 821.237 850.517C821.389 850.365 821.595 850.279 821.81 850.279H824.92C825.123 850.279 825.319 850.354 825.469 850.491C825.619 850.628 825.712 850.817 825.73 851.019L826.56 859.909L827.56 853.959C827.579 853.849 827.62 853.743 827.682 853.649C827.743 853.555 827.823 853.474 827.917 853.412C828.011 853.35 828.116 853.308 828.227 853.289C828.337 853.27 828.451 853.273 828.56 853.299L831.21 853.919C831.389 853.96 831.549 854.06 831.663 854.204C831.778 854.348 831.84 854.526 831.84 854.709V877.359H821Z" fill="black"/>
</g>
<path opacity="0.3" d="M531.639 696.729C531.639 696.729 527.819 731.279 609.639 726.729C659.309 723.989 691.899 699.789 704.639 689.859C704.639 689.859 670.639 699.239 619.259 700.099C581.929 700.719 554.049 694.959 535.499 691.309L531.639 696.729Z" fill="white"/>
<path opacity="0.5" d="M535.151 691.189C535.151 691.189 532.351 722.099 600.491 718.339C641.841 716.059 664.041 703.999 674.671 695.729C674.671 695.729 652.301 700.279 609.671 700.179C567.041 700.079 535.151 691.189 535.151 691.189Z" fill="white"/>
<path d="M647.75 877.36C647.75 877.36 693.75 820.8 704.75 720.16C715.75 820.79 761.75 877.36 761.75 877.36H647.75Z" fill="black"/>
<path d="M700.88 746.681C700.88 746.681 702.34 738.101 702.77 735.211C703.33 731.481 704.71 720.211 704.71 720.211C704.71 720.211 705.98 730.681 706.49 734.211C706.95 737.341 708.49 746.751 708.49 746.751V877.361H700.82V746.681H700.88Z" class="change-color-in-svg" fill="#4D61FC"/>
<path d="M608.36 759.28C607.925 759.281 607.491 759.258 607.06 759.21C604.889 758.948 602.867 757.975 601.307 756.443C599.748 754.91 598.74 752.905 598.44 750.74C598.256 749.374 598.36 747.984 598.747 746.661C599.134 745.338 599.794 744.111 600.684 743.059C601.575 742.008 602.677 741.154 603.918 740.555C605.159 739.956 606.512 739.623 607.89 739.58C609.042 739.523 610.192 739.723 611.257 740.164C612.323 740.604 613.278 741.276 614.053 742.13C614.829 742.983 615.405 743.998 615.742 745.101C616.078 746.205 616.167 747.368 616 748.51L619.38 748.98C619.496 748.997 619.6 749.059 619.671 749.152C619.742 749.246 619.774 749.363 619.76 749.48C619.352 752.209 617.976 754.701 615.883 756.5C613.79 758.299 611.12 759.286 608.36 759.28ZM608.15 740.47H607.93C605.739 740.642 603.687 741.611 602.161 743.192C600.635 744.773 599.74 746.858 599.646 749.054C599.551 751.249 600.263 753.404 601.647 755.111C603.031 756.817 604.992 757.959 607.16 758.32C609.818 758.622 612.492 757.913 614.652 756.335C616.812 754.757 618.3 752.424 618.82 749.8L615.82 749.38C615.476 750.571 614.854 751.663 614.006 752.567C613.158 753.471 612.107 754.161 610.94 754.58C610.106 754.929 609.201 755.074 608.3 755.003C607.399 754.932 606.528 754.646 605.76 754.17C604.736 753.504 603.934 752.548 603.457 751.424C602.98 750.3 602.848 749.059 603.08 747.86C603.199 747.206 603.448 746.583 603.811 746.027C604.175 745.47 604.645 744.992 605.195 744.62C605.746 744.247 606.365 743.988 607.016 743.858C607.668 743.727 608.339 743.728 608.99 743.86C609.893 744.019 610.716 744.478 611.327 745.161C611.938 745.845 612.302 746.714 612.36 747.63C612.371 748.227 612.227 748.817 611.944 749.342C611.66 749.868 611.245 750.311 610.74 750.63C610.276 750.936 609.744 751.123 609.191 751.174C608.638 751.224 608.081 751.137 607.57 750.92C607.51 750.898 607.456 750.864 607.411 750.819C607.365 750.775 607.33 750.722 607.307 750.663C607.283 750.604 607.273 750.541 607.275 750.478C607.278 750.415 607.294 750.353 607.323 750.296C607.351 750.239 607.391 750.189 607.44 750.149C607.489 750.109 607.546 750.08 607.607 750.063C607.668 750.046 607.732 750.043 607.794 750.053C607.857 750.062 607.917 750.085 607.97 750.12C608.344 750.269 608.749 750.325 609.149 750.283C609.55 750.241 609.934 750.103 610.27 749.88C610.65 749.645 610.962 749.315 611.174 748.921C611.387 748.528 611.492 748.086 611.48 747.64C611.425 746.93 611.134 746.259 610.654 745.733C610.174 745.208 609.532 744.858 608.83 744.74C608.292 744.63 607.738 744.629 607.199 744.738C606.661 744.846 606.151 745.062 605.697 745.371C605.244 745.681 604.858 746.079 604.561 746.54C604.264 747.002 604.063 747.519 603.97 748.06C603.771 749.076 603.881 750.129 604.286 751.082C604.69 752.036 605.371 752.846 606.24 753.41C606.892 753.816 607.632 754.059 608.398 754.118C609.164 754.177 609.933 754.051 610.64 753.75C611.715 753.35 612.678 752.696 613.448 751.845C614.217 750.994 614.77 749.97 615.06 748.86V748.75C615.267 747.701 615.226 746.619 614.94 745.59C614.517 744.115 613.625 742.818 612.401 741.895C611.176 740.971 609.684 740.471 608.15 740.47Z" class="change-color-in-svg" fill="#4D61FC"/>
<g opacity="0.5">
<g opacity="0.5">
<g opacity="0.5">
<path opacity="0.5" d="M608.36 759.28C607.925 759.281 607.491 759.258 607.06 759.21C604.889 758.948 602.867 757.975 601.307 756.443C599.748 754.91 598.74 752.905 598.44 750.74C598.256 749.374 598.36 747.984 598.747 746.661C599.134 745.338 599.794 744.111 600.684 743.059C601.575 742.008 602.677 741.154 603.918 740.555C605.159 739.956 606.512 739.623 607.89 739.58C609.042 739.523 610.192 739.723 611.257 740.164C612.323 740.604 613.278 741.276 614.053 742.13C614.829 742.983 615.405 743.998 615.742 745.101C616.078 746.205 616.167 747.368 616 748.51L619.38 748.98C619.496 748.997 619.6 749.059 619.671 749.152C619.742 749.246 619.774 749.363 619.76 749.48C619.352 752.209 617.976 754.701 615.883 756.5C613.79 758.299 611.12 759.286 608.36 759.28ZM608.15 740.47H607.93C605.739 740.642 603.687 741.611 602.161 743.192C600.635 744.773 599.74 746.858 599.646 749.054C599.551 751.249 600.263 753.404 601.647 755.111C603.031 756.817 604.992 757.959 607.16 758.32C609.818 758.622 612.492 757.913 614.652 756.335C616.812 754.757 618.3 752.424 618.82 749.8L615.82 749.38C615.476 750.571 614.854 751.663 614.006 752.567C613.158 753.471 612.107 754.161 610.94 754.58C610.106 754.929 609.201 755.074 608.3 755.003C607.399 754.932 606.528 754.646 605.76 754.17C604.736 753.504 603.934 752.548 603.457 751.424C602.98 750.3 602.848 749.059 603.08 747.86C603.199 747.206 603.448 746.583 603.811 746.027C604.175 745.47 604.645 744.992 605.195 744.62C605.746 744.247 606.365 743.988 607.016 743.858C607.668 743.727 608.339 743.728 608.99 743.86C609.893 744.019 610.716 744.478 611.327 745.161C611.938 745.845 612.302 746.714 612.36 747.63C612.371 748.227 612.227 748.817 611.944 749.342C611.66 749.868 611.245 750.311 610.74 750.63C610.276 750.936 609.744 751.123 609.191 751.174C608.638 751.224 608.081 751.137 607.57 750.92C607.51 750.898 607.456 750.864 607.411 750.819C607.365 750.775 607.33 750.722 607.307 750.663C607.283 750.604 607.273 750.541 607.275 750.478C607.278 750.415 607.294 750.353 607.323 750.296C607.351 750.239 607.391 750.189 607.44 750.149C607.489 750.109 607.546 750.08 607.607 750.063C607.668 750.046 607.732 750.043 607.794 750.053C607.857 750.062 607.917 750.085 607.97 750.12C608.344 750.269 608.749 750.325 609.149 750.283C609.55 750.241 609.934 750.103 610.27 749.88C610.65 749.645 610.962 749.315 611.174 748.921C611.387 748.528 611.492 748.086 611.48 747.64C611.425 746.93 611.134 746.259 610.654 745.733C610.174 745.208 609.532 744.858 608.83 744.74C608.292 744.63 607.738 744.629 607.199 744.738C606.661 744.846 606.151 745.062 605.697 745.371C605.244 745.681 604.858 746.079 604.561 746.54C604.264 747.002 604.063 747.519 603.97 748.06C603.771 749.076 603.881 750.129 604.286 751.082C604.69 752.036 605.371 752.846 606.24 753.41C606.892 753.816 607.632 754.059 608.398 754.118C609.164 754.177 609.933 754.051 610.64 753.75C611.715 753.35 612.678 752.696 613.448 751.845C614.217 750.994 614.77 749.97 615.06 748.86V748.75C615.267 747.701 615.226 746.619 614.94 745.59C614.517 744.115 613.625 742.818 612.401 741.895C611.176 740.971 609.684 740.471 608.15 740.47Z" fill="black"/>
</g>
</g>
</g>
<path d="M570.109 756.359C569.451 753.943 569.397 751.402 569.953 748.96C570.51 746.519 571.659 744.252 573.299 742.359H574.389L574.309 742.559C574.249 742.699 572.039 747.469 576.369 756.139L576.469 756.349H575.469C572.689 750.689 572.599 746.629 572.939 744.349C571.766 746.071 570.985 748.029 570.652 750.085C570.318 752.141 570.44 754.245 571.009 756.249V756.359H570.109Z" fill="black"/>
<path d="M565.509 872.64L554.699 865.06V863.84L565.509 871.42V872.64Z" fill="black"/>
<path d="M554.699 872.6V871.46L565.509 865.57V866.71L554.699 872.6Z" fill="black"/>
<path d="M831.8 872.64L821 865.06V863.84L831.82 871.42L831.8 872.64Z" fill="black"/>
<path d="M821 872.6V871.46L831.82 865.57V866.71L821 872.6Z" fill="black"/>
<path d="M273.211 802.2C274.441 800.07 275.991 798.87 277.971 799.13C288.511 800.52 302.651 855.43 302.651 855.43C302.651 855.43 297.131 817.2 305.181 814.52C313.231 811.84 316.671 852.83 316.671 852.83C316.671 852.83 312.261 788.66 326.251 788.66C340.241 788.66 332.761 865.09 332.761 865.09C332.761 865.09 345.441 840.51 353.911 843.93C362.381 847.35 346.911 883.93 346.911 883.93C346.911 883.93 366.471 863.46 383.561 869.4C400.651 875.34 404.111 912.49 404.111 912.49C404.111 912.49 417.251 902.49 428.331 910.07C439.411 917.65 429.331 932.07 429.331 932.07C429.331 932.07 487.151 905.87 518.671 961.72C525.171 973.23 528.671 988.48 530.161 1005.42C530.161 1005.42 553.411 983.17 580.081 999.66C586.715 1003.69 591.839 1009.8 594.661 1017.03H333.111L273.211 802.2Z" fill="black"/>
<path d="M841 913L843.06 919.67C843.139 919.93 843.163 920.204 843.129 920.474C843.096 920.744 843.006 921.004 842.865 921.237C842.725 921.47 842.537 921.67 842.314 921.826C842.091 921.982 841.837 922.089 841.57 922.14L778.69 934L776 919.68L838.84 911.68C839.299 911.598 839.772 911.687 840.17 911.931C840.568 912.174 840.863 912.554 841 913Z" fill="#3F4249"/>
<path opacity="0.2" d="M841 913L843.06 919.67C843.139 919.93 843.163 920.204 843.129 920.474C843.096 920.744 843.006 921.004 842.865 921.237C842.725 921.47 842.537 921.67 842.314 921.826C842.091 921.982 841.837 922.089 841.57 922.14L778.69 934L776 919.68L838.84 911.68C839.299 911.598 839.772 911.687 840.17 911.931C840.568 912.174 840.863 912.554 841 913Z" fill="black"/>
<path d="M778.739 933.999C780.419 933.689 781.189 930.219 780.449 926.259C779.709 922.299 777.749 919.339 776.059 919.649C774.369 919.959 773.619 923.429 774.349 927.389C775.079 931.349 777.059 934.339 778.739 933.999Z" fill="#21252B"/>
<path opacity="0.3" d="M778.739 933.999C780.419 933.689 781.189 930.219 780.449 926.259C779.709 922.299 777.749 919.339 776.059 919.649C774.369 919.959 773.619 923.429 774.349 927.389C775.079 931.349 777.059 934.339 778.739 933.999Z" fill="black"/>
<path opacity="0.3" d="M780.679 928.34L801.959 924.34C803.648 924.024 805.224 923.268 806.529 922.15C807.765 921.085 809.276 920.392 810.889 920.15L818.739 918.97C818.873 918.933 818.99 918.849 819.066 918.733C819.142 918.617 819.174 918.477 819.154 918.339C819.134 918.201 819.065 918.076 818.959 917.986C818.853 917.895 818.718 917.847 818.579 917.85L810.729 919C808.907 919.27 807.198 920.05 805.799 921.25C804.658 922.234 803.279 922.903 801.799 923.19L780.619 927.19L780.679 928.34Z" fill="#61656D"/>
<g opacity="0.3">
<path opacity="0.3" d="M811.54 925H811.63L843.08 920V919.83C843.02 919.6 842.8 918.91 842.8 918.91L811.49 923.91C811.342 923.935 811.21 924.017 811.122 924.139C811.034 924.26 810.997 924.412 811.02 924.56C811.05 924.679 811.116 924.786 811.209 924.865C811.302 924.944 811.418 924.991 811.54 925Z" fill="black"/>
</g>
<path opacity="0.3" d="M780.091 924.82L793.63 922.49C793.708 922.481 793.783 922.456 793.85 922.418C793.918 922.379 793.977 922.327 794.023 922.264C794.07 922.202 794.103 922.13 794.121 922.054C794.139 921.979 794.141 921.9 794.127 921.823C794.113 921.747 794.084 921.674 794.041 921.609C793.998 921.544 793.942 921.488 793.877 921.446C793.812 921.403 793.738 921.375 793.662 921.362C793.585 921.349 793.506 921.351 793.43 921.37L779.73 923.73L780.091 924.82Z" fill="#61656D"/>
<path d="M808.681 916.001C778.561 913.001 781.471 883.331 781.471 883.331C783.235 886.298 785.847 888.67 788.971 890.141C788.971 890.141 779.971 876.081 782.971 859.901C782.971 859.901 784.781 864.901 792.491 867.741C792.491 867.741 781.411 831.511 814.121 811.561C814.121 811.561 807.121 824.151 816.851 837.821C825.541 850.041 827.681 849.991 825.251 866.531C825.251 866.531 829.251 852.271 842.251 854.291C842.251 854.291 833.251 856.641 837.031 867.191C842.281 881.761 848.761 919.931 808.681 916.001Z" fill="white"/>
<path d="M808.671 916C808.671 916 793.721 915.51 791.611 886.4C793.179 886.859 794.601 887.717 795.738 888.889C796.875 890.062 797.69 891.509 798.101 893.09C798.101 893.09 799.551 884.35 794.471 878.38C789.391 872.41 789.471 869.74 789.471 869.74C789.471 869.74 795.141 873.12 800.681 873.15C800.681 873.15 795.981 868.9 797.681 859C799.381 849.1 807.071 835.5 807.071 835.5C806.538 839.673 807.143 843.913 808.82 847.771C810.497 851.629 813.186 854.963 816.601 857.42C828.601 866.5 820.521 886.88 820.521 886.88C820.521 886.88 824.861 870.88 832.001 866.02C832.001 866.02 830.341 872.15 834.601 880.87C840.351 892.6 835.791 921.19 808.671 916Z" class="change-color-in-svg" fill="#4D61FC"/>
<path d="M830.999 849.181C830.679 847.241 830.999 843.961 833.999 838.801C833.723 840.796 833.781 842.824 834.169 844.801C834.869 847.151 835.17 848.021 835.01 849.181C835.01 849.713 834.798 850.223 834.422 850.599C834.046 850.975 833.536 851.186 833.004 851.186C832.473 851.186 831.963 850.975 831.587 850.599C831.211 850.223 830.999 849.713 830.999 849.181Z" class="change-color-in-svg" fill="#4D61FC"/>
<path d="M852.44 860.34C851.44 865.8 847.3 864.04 845 865.99C842.7 867.94 845.16 873.39 845.16 873.39C845.501 872.466 846.049 871.633 846.761 870.954C847.473 870.275 848.331 869.767 849.27 869.47C854.72 867.79 852.44 860.34 852.44 860.34Z" class="change-color-in-svg" fill="#4D61FC"/>
<path d="M770.629 861.599C769.049 860.289 766.489 856.829 769.369 849.289C769.369 849.289 768.059 853.459 771.199 855.659C773.949 857.589 775.019 860.789 773.149 861.899C772.748 862.11 772.293 862.194 771.843 862.14C771.393 862.087 770.97 861.898 770.629 861.599Z" class="change-color-in-svg" fill="#4D61FC"/>
<path d="M777.54 883.75C775.16 883.75 772.2 881.68 771.08 876.75C771.08 876.75 774.08 879.28 776.6 879.58C780.2 880 779.15 883.73 777.54 883.75Z" class="change-color-in-svg" fill="#4D61FC"/>
<path d="M787.241 914.851L785.181 921.521C785.1 921.781 785.075 922.055 785.108 922.326C785.141 922.596 785.23 922.857 785.371 923.09C785.512 923.324 785.7 923.524 785.924 923.68C786.148 923.835 786.403 923.941 786.671 923.991L849.511 935.821L852.171 921.491L789.331 913.491C788.877 913.432 788.418 913.536 788.035 913.785C787.652 914.035 787.37 914.412 787.241 914.851Z" fill="#3F4249"/>
<path d="M853.921 929.19C854.661 925.19 853.921 921.76 852.211 921.45C850.501 921.14 848.561 924.09 847.831 928.06C847.101 932.03 847.831 935.49 849.541 935.8C851.251 936.11 853.181 933.15 853.921 929.19Z" fill="#3F4249"/>
<path opacity="0.3" d="M853.921 929.19C854.661 925.19 853.921 921.76 852.211 921.45C850.501 921.14 848.561 924.09 847.831 928.06C847.101 932.03 847.831 935.49 849.541 935.8C851.251 936.11 853.181 933.15 853.921 929.19Z" fill="black"/>
<path opacity="0.3" d="M847.53 930.15L826.25 926.15C824.56 925.834 822.984 925.079 821.679 923.96C820.444 922.895 818.932 922.202 817.32 921.96L809.469 920.78C809.335 920.744 809.219 920.66 809.143 920.543C809.066 920.427 809.035 920.287 809.055 920.15C809.074 920.012 809.143 919.886 809.249 919.796C809.355 919.706 809.49 919.658 809.63 919.66L817.479 920.84C819.302 921.111 821.011 921.891 822.409 923.09C823.551 924.074 824.93 924.743 826.409 925.03L847.59 929.03L847.53 930.15Z" fill="#868A91"/>
<path opacity="0.3" d="M816.659 926.849H816.569L785.119 921.789V921.619C785.179 921.389 785.399 920.699 785.399 920.699L816.709 925.699C816.783 925.705 816.854 925.725 816.92 925.759C816.986 925.793 817.044 925.839 817.092 925.895C817.14 925.951 817.176 926.016 817.199 926.086C817.221 926.157 817.23 926.231 817.224 926.304C817.218 926.378 817.198 926.449 817.164 926.515C817.131 926.581 817.084 926.639 817.028 926.687C816.972 926.735 816.907 926.771 816.837 926.794C816.767 926.817 816.693 926.825 816.619 926.819L816.659 926.849Z" fill="#868A91"/>
<path opacity="0.3" d="M848.119 926.629L834.579 924.299C834.438 924.265 834.316 924.178 834.237 924.057C834.158 923.935 834.128 923.788 834.153 923.646C834.179 923.503 834.258 923.375 834.374 923.289C834.49 923.202 834.635 923.163 834.779 923.179L848.479 925.539L848.119 926.629Z" fill="#868A91"/>
<path opacity="0.2" d="M1032.28 938.089C1096.57 938.089 1148.69 926.117 1148.69 911.349C1148.69 896.581 1096.57 884.609 1032.28 884.609C967.988 884.609 915.869 896.581 915.869 911.349C915.869 926.117 967.988 938.089 1032.28 938.089Z" fill="black"/>
<path d="M1099.64 789.74L1113 811.67C1114.71 814.327 1115.31 817.546 1114.69 820.643C1114.06 823.739 1112.25 826.468 1109.64 828.25L1058.72 859.61L1049.79 848.11L1083.23 815.5L1076.42 805.44L1099.64 789.74Z" fill="#FC9D9D"/>
<path d="M935.879 789.74L922.539 811.67C920.829 814.326 920.222 817.544 920.848 820.641C921.473 823.737 923.282 826.467 925.889 828.25L978.299 859.61L987.229 848.11L952.299 815.5L959.109 805.44L935.879 789.74Z" fill="#FC9D9D"/>
<path d="M1036.28 738.721L999.941 737.461L968.281 743.811C965.748 744.255 963.336 745.226 961.202 746.661C959.068 748.096 957.258 749.963 955.891 752.141L934.221 790.601L958.701 807.111L970.571 789.851V862.691H1065.38V789.851L1076.05 806.271L1101.05 790.581L1079.9 752.001C1078.5 749.701 1076.6 747.738 1074.36 746.25C1072.11 744.762 1069.57 743.786 1066.9 743.391L1036.24 738.751" fill="#21252B"/>
<path d="M998.68 702.301L998.33 737.611C998.324 738.401 998.573 739.173 999.04 739.811L999.36 740.361C1007.75 753.361 1028.26 749.201 1034.86 742.491C1035.4 742.038 1035.82 741.453 1036.07 740.792C1036.31 740.132 1036.39 739.418 1036.28 738.721L1030.38 699.721L998.68 702.301Z" fill="#FC9D9D"/>
<path d="M1033.84 686.249C1033.84 686.249 1040.29 728.879 1016.77 730.609C993.771 732.339 993.091 689.239 993.091 689.239L992.471 676.889L1022 671.699L1029.47 675.549L1033.84 686.249Z" fill="#FC9D9D"/>
<path opacity="0.15" d="M1034.39 727.07L1032.66 715.35C1030.54 722.91 1026.13 729.2 1018.42 730.46H1018.5L1016.85 730.69C1010.71 731.16 1005.6 728.33 1001.75 722.28C1001.68 722.164 1001.56 722.083 1001.43 722.053C1001.3 722.023 1001.16 722.047 1001.04 722.12C1000.93 722.193 1000.84 722.308 1000.81 722.441C1000.78 722.575 1000.81 722.714 1000.88 722.83C1004.97 729.28 1010.4 732.27 1016.88 731.83C1018.24 731.733 1019.58 731.471 1020.88 731.05C1025.73 731.535 1030.58 730.107 1034.39 727.07Z" fill="black"/>
<path d="M1028.26 676.73C1028.26 676.73 1035.73 671.73 1039.26 680.27C1042.26 687.43 1037.26 695.27 1037.26 695.27L1032.94 694.8C1031.13 694.72 1029.87 693.8 1029.71 692.12L1028.26 676.73Z" fill="#21252B"/>
<path d="M1033.6 671.541C1034.23 679.641 1027.31 681.771 1024.48 682.001L1001.28 684.001C1000.37 684.085 999.527 684.516 998.925 685.205C998.324 685.894 998.011 686.787 998.05 687.701L998.44 695.091C998.47 695.571 998.316 696.045 998.01 696.416C997.703 696.787 997.268 697.029 996.79 697.091L995.38 697.251L993.8 699.251C984.68 697.051 980.9 671.171 997.66 665.981C999.464 665.399 1000.96 664.126 1001.83 662.441C1004.26 657.441 1014.25 656.071 1019.29 661.731C1019.78 662.31 1020.39 662.767 1021.09 663.067C1021.78 663.368 1022.54 663.502 1023.29 663.461C1029.36 663.281 1033.29 667.061 1033.6 671.541Z" fill="#21252B"/>
<path d="M995.45 699.78C995.383 699.093 995.132 698.436 994.722 697.88C994.312 697.324 993.76 696.889 993.122 696.623C992.485 696.356 991.788 696.267 991.104 696.365C990.42 696.463 989.776 696.745 989.24 697.18L989.16 697.26C985.16 700.72 987.75 711.58 996.56 710.63L995.45 699.78Z" fill="#FC9D9D"/>
<path d="M1039.27 694L1039.19 693.92C1038.6 693.575 1037.92 693.395 1037.24 693.4C1036.55 693.406 1035.88 693.595 1035.3 693.949C1034.71 694.303 1034.23 694.808 1033.9 695.412C1033.58 696.015 1033.42 696.695 1033.45 697.38L1033.92 707.76C1042.81 707.49 1043.67 696.87 1039.27 694Z" fill="#FC9D9D"/>
<path d="M996.56 701.12C996.574 701.39 996.483 701.656 996.306 701.861C996.129 702.066 995.879 702.194 995.61 702.22C995.35 702.255 995.087 702.194 994.87 702.049C994.652 701.903 994.496 701.683 994.43 701.43L993.43 694.43L996.34 694.51L996.56 701.12Z" fill="#21252B"/>
<path d="M1035.26 698.28C1035.27 698.559 1035.18 698.833 1034.99 699.041C1034.8 699.249 1034.54 699.374 1034.26 699.39C1034 699.423 1033.74 699.361 1033.52 699.216C1033.31 699.071 1033.15 698.852 1033.08 698.6L1032.08 691.6L1034.99 691.68L1035.26 698.28Z" fill="#21252B"/>
<path d="M1024.64 682.999C1024.25 683.041 1023.85 683.041 1023.46 682.999C1023.35 682.961 1023.26 682.888 1023.2 682.792C1023.14 682.696 1023.11 682.582 1023.12 682.469C1023.13 682.355 1023.17 682.248 1023.25 682.163C1023.33 682.078 1023.43 682.021 1023.54 681.999C1023.61 681.999 1028.26 682.239 1030.22 679.169C1030.29 679.054 1030.41 678.972 1030.54 678.942C1030.68 678.912 1030.82 678.936 1030.93 679.009C1031.05 679.082 1031.13 679.198 1031.16 679.331C1031.19 679.464 1031.16 679.604 1031.09 679.719C1030.34 680.721 1029.36 681.537 1028.24 682.105C1027.13 682.674 1025.89 682.979 1024.64 682.999Z" fill="#FC9D9D"/>
<path d="M1007.17 707.92C1007.57 707.92 1007.95 707.803 1008.28 707.583C1008.61 707.363 1008.87 707.051 1009.02 706.685C1009.17 706.32 1009.21 705.918 1009.13 705.53C1009.05 705.142 1008.86 704.785 1008.58 704.506C1008.3 704.226 1007.95 704.036 1007.56 703.958C1007.17 703.881 1006.77 703.921 1006.4 704.072C1006.04 704.224 1005.73 704.48 1005.51 704.809C1005.29 705.138 1005.17 705.524 1005.17 705.92C1005.17 706.45 1005.38 706.959 1005.76 707.334C1006.13 707.709 1006.64 707.92 1007.17 707.92Z" fill="#21252B"/>
<path d="M1007.27 707.161C1007.4 707.158 1007.52 707.107 1007.61 707.018C1007.7 706.928 1007.75 706.807 1007.75 706.681C1007.75 706.555 1007.7 706.436 1007.61 706.348C1007.52 706.26 1007.4 706.211 1007.27 706.211C1007.15 706.211 1007.03 706.26 1006.94 706.349C1006.85 706.437 1006.8 706.556 1006.8 706.681C1006.8 706.806 1006.85 706.927 1006.94 707.017C1007.03 707.107 1007.15 707.158 1007.27 707.161Z" fill="white"/>
<path d="M1022.91 706.74C1023.31 706.74 1023.69 706.623 1024.02 706.403C1024.35 706.183 1024.61 705.871 1024.76 705.506C1024.91 705.14 1024.95 704.738 1024.87 704.35C1024.79 703.962 1024.6 703.606 1024.32 703.326C1024.04 703.046 1023.69 702.856 1023.3 702.779C1022.91 702.702 1022.51 702.741 1022.14 702.892C1021.78 703.044 1021.47 703.3 1021.25 703.629C1021.03 703.958 1020.91 704.345 1020.91 704.74C1020.91 705.271 1021.12 705.779 1021.5 706.154C1021.87 706.53 1022.38 706.74 1022.91 706.74Z" fill="#21252B"/>
<path d="M1023 706.049C1023.09 706.047 1023.18 706.018 1023.26 705.965C1023.33 705.912 1023.39 705.838 1023.43 705.752C1023.46 705.666 1023.47 705.572 1023.45 705.482C1023.43 705.391 1023.38 705.308 1023.32 705.244C1023.25 705.179 1023.17 705.135 1023.08 705.118C1022.99 705.1 1022.89 705.11 1022.81 705.146C1022.72 705.182 1022.65 705.242 1022.6 705.319C1022.55 705.396 1022.52 705.487 1022.52 705.579C1022.52 705.705 1022.57 705.824 1022.66 705.912C1022.75 706 1022.87 706.049 1023 706.049Z" fill="white"/>
<g opacity="0.3">
<path opacity="0.3" d="M1016.06 713.469L1017.71 713.309C1017.87 713.294 1018.01 713.221 1018.11 713.104C1018.22 712.987 1018.27 712.835 1018.27 712.679C1018.26 712.525 1018.18 712.381 1018.06 712.279C1017.95 712.177 1017.8 712.123 1017.64 712.129L1015.98 712.289C1015.82 712.299 1015.65 712.276 1015.49 712.222C1015.34 712.168 1015.19 712.083 1015.07 711.973C1014.94 711.863 1014.84 711.73 1014.77 711.581C1014.7 711.432 1014.66 711.27 1014.65 711.104C1014.64 710.939 1014.66 710.773 1014.71 710.616C1014.77 710.46 1014.85 710.315 1014.96 710.191C1015.07 710.067 1015.21 709.966 1015.35 709.894C1015.5 709.821 1015.67 709.779 1015.83 709.769C1015.91 709.764 1015.98 709.743 1016.05 709.709C1016.12 709.674 1016.19 709.627 1016.24 709.568C1016.29 709.51 1016.33 709.442 1016.35 709.368C1016.38 709.294 1016.39 709.217 1016.38 709.139C1016.38 709.062 1016.36 708.986 1016.32 708.916C1016.29 708.847 1016.24 708.785 1016.18 708.734C1016.12 708.683 1016.05 708.644 1015.98 708.619C1015.91 708.594 1015.83 708.584 1015.75 708.589C1015.43 708.606 1015.12 708.688 1014.84 708.829C1014.55 708.971 1014.3 709.169 1014.09 709.411C1013.89 709.653 1013.73 709.935 1013.64 710.239C1013.55 710.543 1013.52 710.863 1013.55 711.179C1013.55 711.499 1013.62 711.815 1013.75 712.108C1013.88 712.4 1014.06 712.662 1014.3 712.878C1014.54 713.093 1014.82 713.257 1015.12 713.359C1015.42 713.461 1015.74 713.498 1016.06 713.469Z" fill="black"/>
</g>
<path d="M1074.75 910.311L1056.12 906.881L1053.65 924.631L1071.91 926.631L1074.75 910.311Z" fill="#FC9D9D"/>
<path opacity="0.15" d="M1056.46 924.83L1062.9 907.68L1062.65 916.55C1062.73 916.956 1062.93 917.328 1063.23 917.61C1063.54 917.893 1063.92 918.071 1064.33 918.12L1073.19 919.23L1071.91 926.61L1056.46 924.83Z" fill="black"/>
<path d="M1087 938.49C1083.74 938.022 1080.75 936.414 1078.56 933.95L1075.98 931.05C1074.43 929.288 1072.45 927.961 1070.23 927.2C1068.42 926.566 1066.88 925.322 1065.88 923.68C1064.88 922.038 1064.49 920.101 1064.76 918.2V917.83C1065.09 915.521 1066.32 913.436 1068.18 912.03C1070.04 910.624 1072.38 910.013 1074.69 910.33L1090.57 912.54L1087 938.49Z" class="change-color-in-svg" fill="#4D61FC"/>
<path d="M1072.24 925.571C1072.11 925.571 1071.86 925.571 1071.83 925.391C1071.19 923.817 1070.97 922.101 1071.21 920.417C1071.44 918.733 1072.11 917.141 1073.16 915.801C1073.19 915.769 1073.22 915.743 1073.26 915.726C1073.3 915.708 1073.34 915.699 1073.39 915.699C1073.43 915.699 1073.47 915.708 1073.51 915.726C1073.55 915.743 1073.58 915.769 1073.61 915.801C1073.64 915.829 1073.66 915.863 1073.68 915.901C1073.7 915.939 1073.71 915.98 1073.71 916.021C1073.71 916.062 1073.7 916.103 1073.68 916.141C1073.66 916.179 1073.64 916.213 1073.61 916.241C1072.63 917.48 1071.99 918.96 1071.78 920.527C1071.56 922.094 1071.76 923.69 1072.37 925.151C1072.38 925.18 1072.39 925.213 1072.39 925.246C1072.39 925.279 1072.38 925.311 1072.37 925.341C1072.35 925.428 1072.3 925.508 1072.24 925.571Z" fill="white"/>
<path d="M1074.35 926.88C1074.21 926.88 1073.96 926.88 1073.93 926.7C1073.29 925.125 1073.07 923.408 1073.31 921.724C1073.54 920.04 1074.22 918.448 1075.27 917.11C1075.3 917.079 1075.33 917.055 1075.37 917.039C1075.41 917.022 1075.45 917.014 1075.49 917.014C1075.53 917.014 1075.57 917.022 1075.61 917.039C1075.65 917.055 1075.68 917.079 1075.71 917.11C1075.74 917.139 1075.76 917.174 1075.78 917.212C1075.8 917.251 1075.81 917.293 1075.81 917.335C1075.81 917.377 1075.8 917.418 1075.78 917.457C1075.76 917.496 1075.74 917.531 1075.71 917.56C1074.73 918.798 1074.1 920.276 1073.88 921.841C1073.66 923.406 1073.86 925 1074.47 926.46C1074.49 926.525 1074.49 926.595 1074.47 926.66C1074.49 926.77 1074.41 926.89 1074.35 926.88Z" fill="white"/>
<path d="M1076.55 928.4C1076.42 928.4 1076.17 928.4 1076.13 928.21C1075.49 926.635 1075.28 924.919 1075.51 923.235C1075.75 921.552 1076.42 919.96 1077.47 918.62C1077.5 918.592 1077.53 918.569 1077.57 918.553C1077.61 918.537 1077.65 918.529 1077.69 918.529C1077.73 918.529 1077.77 918.537 1077.81 918.553C1077.85 918.569 1077.88 918.592 1077.91 918.62C1077.94 918.649 1077.96 918.684 1077.98 918.721C1077.99 918.759 1078 918.8 1078 918.84C1078 918.881 1077.99 918.922 1077.98 918.959C1077.96 918.997 1077.94 919.032 1077.91 919.06C1076.93 920.3 1076.29 921.78 1076.08 923.347C1075.86 924.913 1076.06 926.51 1076.67 927.97C1076.68 928 1076.69 928.033 1076.69 928.065C1076.69 928.098 1076.68 928.131 1076.67 928.16C1076.66 928.253 1076.62 928.339 1076.55 928.4Z" fill="white"/>
<path d="M1089.18 938.851L1087.07 938.561L1090.7 912.561L1092.81 912.851C1092.96 912.868 1093.11 912.915 1093.24 912.989C1093.37 913.063 1093.49 913.162 1093.58 913.281C1093.67 913.4 1093.74 913.537 1093.78 913.683C1093.82 913.828 1093.83 913.981 1093.81 914.131L1090.5 937.861C1090.45 938.165 1090.29 938.44 1090.04 938.625C1089.8 938.81 1089.49 938.891 1089.18 938.851Z" fill="#3F4249"/>
<path d="M962.761 924.729L980.901 921.889L977.591 904.279L959.141 908.579L962.761 924.729Z" fill="#FC9D9D"/>
<path opacity="0.15" d="M975.8 922.66L962.8 924.73L961.17 917.42L969.96 915.9C970.366 915.825 970.738 915.626 971.027 915.331C971.315 915.035 971.505 914.658 971.57 914.25L973.91 905.15L975.91 922.65L975.8 922.66Z" fill="black"/>
<path d="M943.391 911.551L959.141 908.551C961.431 908.126 963.797 908.623 965.722 909.934C967.648 911.245 968.977 913.264 969.421 915.551L969.491 915.921C969.858 917.804 969.56 919.757 968.648 921.446C967.737 923.135 966.267 924.455 964.491 925.181C962.311 926.048 960.395 927.468 958.931 929.301L956.491 932.301C954.422 934.867 951.508 936.614 948.271 937.231L943.391 911.551Z" class="change-color-in-svg" fill="#4D61FC"/>
<path d="M962.2 923.49C962.186 923.458 962.179 923.424 962.179 923.39C962.179 923.355 962.186 923.321 962.2 923.29C962.735 921.803 962.863 920.201 962.571 918.649C962.279 917.097 961.578 915.65 960.54 914.46C960.51 914.431 960.485 914.396 960.469 914.357C960.452 914.318 960.443 914.277 960.443 914.235C960.443 914.192 960.452 914.151 960.469 914.112C960.485 914.073 960.51 914.039 960.54 914.01C960.569 913.981 960.603 913.957 960.641 913.942C960.679 913.926 960.719 913.918 960.76 913.918C960.801 913.918 960.842 913.926 960.879 913.942C960.917 913.957 960.951 913.981 960.98 914.01C962.087 915.3 962.834 916.859 963.149 918.53C963.463 920.201 963.332 921.925 962.77 923.53C962.77 923.73 962.5 923.77 962.36 923.73C962.287 923.665 962.232 923.582 962.2 923.49Z" fill="white"/>
<path d="M960.16 924.9C960.146 924.868 960.139 924.834 960.139 924.8C960.139 924.765 960.146 924.731 960.16 924.7C960.695 923.212 960.824 921.608 960.532 920.054C960.24 918.5 959.539 917.052 958.5 915.86C958.439 915.804 958.403 915.727 958.399 915.644C958.395 915.561 958.424 915.481 958.48 915.42C958.536 915.359 958.613 915.322 958.696 915.319C958.778 915.315 958.859 915.344 958.92 915.4C960.033 916.687 960.785 918.246 961.099 919.918C961.413 921.591 961.279 923.316 960.71 924.92C960.71 925.11 960.44 925.16 960.3 925.12C960.16 925.08 960.19 925 960.16 924.9Z" fill="white"/>
<path d="M958 926.509C957.985 926.479 957.978 926.447 957.978 926.414C957.978 926.381 957.985 926.349 958 926.319C958.538 924.832 958.668 923.227 958.376 921.672C958.084 920.118 957.381 918.67 956.34 917.479C956.311 917.45 956.288 917.416 956.272 917.378C956.256 917.34 956.248 917.3 956.248 917.259C956.248 917.218 956.256 917.178 956.272 917.14C956.288 917.102 956.311 917.068 956.34 917.039C956.368 917.007 956.402 916.982 956.441 916.964C956.48 916.947 956.522 916.938 956.565 916.938C956.607 916.938 956.649 916.947 956.688 916.964C956.727 916.982 956.761 917.007 956.79 917.039C957.897 918.327 958.646 919.885 958.96 921.554C959.274 923.224 959.143 924.946 958.58 926.549C958.58 926.749 958.3 926.799 958.17 926.759C958.122 926.736 958.081 926.701 958.051 926.657C958.021 926.613 958.003 926.562 958 926.509Z" fill="white"/>
<path d="M944.751 936.821L940.321 913.281C940.265 912.985 940.328 912.679 940.497 912.43C940.665 912.181 940.925 912.009 941.221 911.951L943.321 911.561L948.181 937.391L946.081 937.781C945.777 937.827 945.468 937.752 945.219 937.573C944.97 937.393 944.802 937.123 944.751 936.821Z" fill="#3F4249"/>
<path d="M1028.57 697.179L1019.68 697.659L1018.5 697.729L1010.71 698.209H1010.64L1000.64 698.759C1000.25 698.781 999.872 698.88 999.522 699.05C999.172 699.22 998.859 699.458 998.602 699.75C998.345 700.043 998.149 700.383 998.025 700.752C997.902 701.121 997.852 701.511 997.881 701.899L998.041 704.179C998.097 705.23 998.36 706.259 998.814 707.208C999.269 708.157 999.905 709.007 1000.69 709.71C1001.47 710.413 1002.38 710.955 1003.38 711.305C1004.37 711.655 1005.42 711.806 1006.47 711.749C1007.52 711.693 1008.55 711.43 1009.5 710.976C1010.45 710.522 1011.3 709.885 1012 709.102C1012.7 708.319 1013.25 707.406 1013.6 706.414C1013.95 705.421 1014.1 704.37 1014.04 703.319L1013.88 701.039C1013.85 700.398 1013.6 699.787 1013.17 699.309L1016.24 699.149C1015.89 699.683 1015.72 700.32 1015.77 700.959L1015.93 703.239C1015.99 704.29 1016.25 705.319 1016.7 706.268C1017.16 707.217 1017.8 708.067 1018.58 708.77C1019.36 709.473 1020.27 710.015 1021.27 710.365C1022.26 710.715 1023.31 710.866 1024.36 710.809C1025.41 710.753 1026.44 710.49 1027.39 710.036C1028.34 709.582 1029.19 708.945 1029.89 708.162C1030.59 707.379 1031.14 706.466 1031.49 705.474C1031.84 704.481 1031.99 703.43 1031.93 702.379L1031.78 700.089C1031.77 699.685 1031.68 699.286 1031.51 698.919C1031.34 698.551 1031.1 698.221 1030.8 697.949C1030.5 697.677 1030.15 697.469 1029.76 697.337C1029.38 697.204 1028.97 697.151 1028.57 697.179ZM1012.68 700.999L1012.84 703.279C1012.89 705.039 1012.25 706.748 1011.06 708.045C1009.86 709.341 1008.22 710.123 1006.46 710.226C1004.7 710.329 1002.97 709.744 1001.64 708.595C1000.3 707.446 999.47 705.823 999.311 704.069L999.151 701.779C999.131 701.314 999.292 700.859 999.599 700.508C999.906 700.158 1000.34 699.94 1000.8 699.899L1010.8 699.349H1010.88C1011.11 699.328 1011.34 699.356 1011.56 699.429C1011.78 699.503 1011.98 699.621 1012.15 699.776C1012.32 699.932 1012.45 700.121 1012.54 700.331C1012.63 700.542 1012.68 700.769 1012.68 700.999ZM1030.68 702.259C1030.72 704.018 1030.08 705.724 1028.89 707.018C1027.7 708.311 1026.05 709.091 1024.29 709.192C1022.54 709.294 1020.81 708.708 1019.48 707.56C1018.14 706.412 1017.31 704.791 1017.15 703.039L1017 700.759C1016.98 700.293 1017.14 699.836 1017.45 699.485C1017.76 699.133 1018.19 698.913 1018.65 698.869L1019.83 698.799L1028.72 698.319C1029.19 698.3 1029.64 698.461 1030 698.771C1030.35 699.08 1030.56 699.513 1030.6 699.979L1030.68 702.259Z" fill="#21252B"/>
<path d="M1011 716.69L1021 715.98C1021.23 715.98 1021.47 716.221 1021.39 716.451C1021.08 717.573 1020.44 718.573 1019.54 719.316C1018.65 720.059 1017.54 720.508 1016.39 720.603C1015.23 720.698 1014.07 720.434 1013.06 719.847C1012.06 719.26 1011.26 718.378 1010.77 717.32V717.24C1010.74 717.192 1010.71 717.135 1010.71 717.076C1010.7 717.016 1010.71 716.956 1010.73 716.901C1010.76 716.846 1010.79 716.798 1010.84 716.761C1010.89 716.724 1010.94 716.7 1011 716.69Z" fill="white"/>
<g opacity="0.3">
<path opacity="0.3" d="M993.25 705.439C993.098 705.433 992.953 705.375 992.838 705.275C992.724 705.175 992.647 705.039 992.62 704.889L992.47 703.629C992.437 702.61 992.043 701.636 991.36 700.879C991.232 700.766 991.083 700.68 990.922 700.627C990.76 700.574 990.589 700.554 990.42 700.569C990.263 700.593 990.102 700.558 989.971 700.469C989.839 700.38 989.746 700.244 989.71 700.089C989.68 699.934 989.713 699.774 989.801 699.643C989.889 699.512 990.025 699.421 990.18 699.389C990.846 699.313 991.517 699.48 992.07 699.859C992.563 700.308 992.958 700.855 993.23 701.464C993.502 702.073 993.645 702.732 993.65 703.399L993.8 704.659C993.809 704.832 993.76 705.003 993.66 705.145C993.56 705.286 993.416 705.39 993.25 705.439Z" fill="black"/>
</g>
<g opacity="0.3">
<path opacity="0.3" d="M1036.51 702.22C1036.67 702.204 1036.81 702.131 1036.91 702.014C1037.01 701.897 1037.07 701.745 1037.06 701.59V700.33C1036.98 699.834 1037 699.327 1037.12 698.84C1037.24 698.353 1037.46 697.897 1037.77 697.5C1037.89 697.349 1038.04 697.229 1038.22 697.147C1038.39 697.066 1038.58 697.025 1038.77 697.03C1038.92 697.021 1039.07 696.963 1039.18 696.863C1039.29 696.763 1039.37 696.628 1039.4 696.48C1039.39 696.328 1039.34 696.183 1039.24 696.068C1039.14 695.954 1039 695.877 1038.85 695.85C1038.52 695.857 1038.2 695.929 1037.9 696.063C1037.6 696.197 1037.33 696.39 1037.11 696.63C1036.69 697.157 1036.39 697.765 1036.22 698.415C1036.04 699.066 1036.01 699.745 1036.11 700.41V701.67C1035.89 702 1036.12 702.22 1036.51 702.22Z" fill="black"/>
</g>
<path opacity="0.15" d="M1058.7 859.61L1057.9 860.17L1109.62 828.25C1112.23 826.469 1114.04 823.739 1114.67 820.643C1115.29 817.546 1114.69 814.327 1112.98 811.67L1110.38 807.4C1110.38 807.4 1117.09 818.86 1101.03 829.01L1055.75 857.82L1058.7 859.61Z" fill="black"/>
<path opacity="0.15" d="M931.501 827.749C920.611 822.499 923.501 810.109 923.501 810.109L922.561 811.669C920.851 814.325 920.244 817.543 920.869 820.64C921.495 823.736 923.304 826.466 925.911 828.249L978.511 859.609L977.311 858.999L980.921 856.499L931.501 827.749Z" fill="black"/>
<path d="M927.68 855.25L970.57 860.11H1065.38L1106.1 855.25L1099.01 898.06H944.96L929.17 856.48" class="change-color-in-svg" fill="#4D61FC"/>
<path opacity="0.3" d="M927.68 855.25L970.57 860.11H1065.38L1106.1 855.25L1099.01 898.06H944.96L929.17 856.48" fill="black"/>
<path d="M1017.05 889.131L1086.62 861.321C1093.74 858.473 1101.11 856.261 1108.62 854.711C1112.68 853.876 1116.91 854.429 1120.62 856.281C1125.81 858.873 1129.77 863.418 1131.62 868.921L1132 870.001C1133.55 874.654 1133.19 879.733 1131 884.121C1129.79 886.559 1128.07 888.701 1125.94 890.395C1123.81 892.089 1121.34 893.293 1118.69 893.921L977.049 927.641L971.189 905.001L1017.05 889.131Z" class="change-color-in-svg" fill="#4D61FC"/>
<path opacity="0.2" d="M1131.05 884.131C1133.24 879.742 1133.6 874.664 1132.05 870.011L1131.69 868.921C1130.62 865.744 1128.84 862.854 1126.48 860.471C1126.48 860.471 1133.48 884.281 1108.33 889.721L1073.33 898.301C1068.17 899.569 1062.78 899.613 1057.6 898.431L1017.88 889.361L1031.38 914.741L1118.82 893.931C1121.45 893.292 1123.91 892.083 1126.02 890.39C1128.14 888.696 1129.85 886.56 1131.05 884.131Z" fill="black"/>
<path d="M1017.8 889.361L948.229 861.551C941.105 858.703 933.743 856.491 926.229 854.941C922.166 854.104 917.94 854.657 914.229 856.511C909.031 859.103 905.074 863.653 903.229 869.161L902.869 870.241C901.319 874.894 901.678 879.973 903.869 884.361C905.077 886.8 906.807 888.944 908.936 890.639C911.065 892.334 913.542 893.54 916.189 894.171L1059.66 927.871L1063.73 905.271L1017.8 889.361Z" class="change-color-in-svg" fill="#4D61FC"/>
<path d="M1064.37 882.281H972.07L967.67 822.281C967.64 821.847 967.699 821.411 967.844 821.001C967.989 820.591 968.217 820.215 968.513 819.896C968.809 819.577 969.168 819.323 969.566 819.148C969.965 818.974 970.395 818.883 970.83 818.881H1065.62C1066.05 818.883 1066.49 818.974 1066.88 819.148C1067.28 819.323 1067.64 819.577 1067.94 819.896C1068.23 820.215 1068.46 820.591 1068.61 821.001C1068.75 821.411 1068.81 821.847 1068.78 822.281L1064.37 882.281Z" fill="#61656D"/>
<path d="M1064.37 884H972.07L967.67 824C967.639 823.565 967.697 823.129 967.842 822.718C967.986 822.307 968.214 821.931 968.51 821.612C968.807 821.293 969.166 821.038 969.565 820.864C969.964 820.69 970.395 820.6 970.83 820.6H1065.62C1066.06 820.6 1066.49 820.69 1066.89 820.864C1067.29 821.038 1067.64 821.293 1067.94 821.612C1068.24 821.931 1068.46 822.307 1068.61 822.718C1068.75 823.129 1068.81 823.565 1068.78 824L1064.37 884Z" fill="#868A91"/>
<path opacity="0.4" d="M972.07 879.359H1064.4C1064.48 879.362 1064.56 879.396 1064.62 879.456C1064.68 879.515 1064.72 879.595 1064.72 879.679V883.679C1064.72 883.763 1064.68 883.843 1064.62 883.903C1064.56 883.962 1064.48 883.997 1064.4 883.999H972.4C972.318 884 972.24 883.969 972.18 883.913C972.121 883.857 972.085 883.781 972.08 883.699L971.78 879.699C971.776 879.617 971.804 879.536 971.858 879.473C971.912 879.41 971.987 879.369 972.07 879.359Z" fill="black"/>
<path opacity="0.2" d="M972.029 908.759L1007.15 920.479L1016.89 918.139L971.779 907.439L972.029 908.759Z" fill="black"/>
<path opacity="0.2" d="M1060.57 924.42L937.2 891.64C934.2 890.84 931.2 890.15 928.2 889.49C903.43 884 904.05 867 904.05 867C903.73 867.7 903.45 868.41 903.2 869.14L902.84 870.22C901.289 874.873 901.649 879.952 903.84 884.34C905.048 886.779 906.777 888.923 908.907 890.618C911.036 892.314 913.512 893.519 916.16 894.15L1059.63 927.85L1060.57 924.42Z" fill="black"/>
<path opacity="0.4" d="M1023.64 852.329C1022.93 852.329 1022.23 852.125 1021.63 851.74C1021.03 851.356 1020.55 850.807 1020.25 850.16C1019.95 849.512 1019.84 848.792 1019.94 848.085C1020.03 847.378 1020.33 846.713 1020.79 846.169C1019.47 845.618 1018.01 845.506 1016.62 845.85C1015.23 846.194 1013.99 846.976 1013.07 848.081C1012.16 849.185 1011.63 850.554 1011.56 851.983C1011.49 853.413 1011.88 854.828 1012.67 856.02C1013.46 857.212 1014.62 858.117 1015.96 858.601C1017.31 859.085 1018.78 859.123 1020.15 858.71C1021.52 858.296 1022.72 857.452 1023.57 856.303C1024.43 855.154 1024.89 853.761 1024.89 852.329C1024.89 852.259 1024.89 852.189 1024.89 852.109C1024.49 852.255 1024.07 852.33 1023.64 852.329Z" fill="black"/>
<path d="M1098.5 786.099L1072.9 802.51L1075.74 806.938L1101.34 790.527L1098.5 786.099Z" fill="white"/>
<path d="M933.885 790.33L958.959 807.537L961.935 803.2L936.862 785.993L933.885 790.33Z" fill="white"/>
<path d="M1017.34 752.001C1014.89 752.002 1012.46 751.665 1010.1 751.001C1006.76 750.097 1003.64 748.538 1000.91 746.414C998.176 744.291 995.896 741.645 994.199 738.631L998.329 737.631C998.469 737.921 1001.94 744.381 1011.22 746.981C1016.18 748.297 1021.43 748.021 1026.22 746.191C1029.91 744.851 1035.07 742.771 1036.22 738.741L1040.29 739.351C1038.96 743.871 1034.19 747.721 1027.61 750.111C1024.32 751.333 1020.85 751.972 1017.34 752.001Z" fill="white"/>
<path opacity="0.3" d="M1065.38 789.849L1060.4 783.949L1059.59 818.859H1065.62L1065.38 789.849Z" fill="black"/>
</svg>