<?xml version="1.0" encoding="utf-8"?>
<!-- Generator: Adobe Illustrator 19.0.0, SVG Export Plug-In . SVG Version: 6.00 Build 0)  -->
<svg version="1.1" id="Layer_1" xmlns="http://www.w3.org/2000/svg" xmlns:xlink="http://www.w3.org/1999/xlink" x="0px" y="0px"
	 viewBox="912.7 -457.3 1578.2 1695.2" style="enable-background:new 912.7 -457.3 1578.2 1695.2;" xml:space="preserve">
<style type="text/css">
	.st0{opacity:0.28;fill:#FFBD66;enable-background:new    ;}
	.st1{opacity:0.5;fill:#448CF2;enable-background:new    ;}
	.st2{fill:url(#SVGID_1_);}
	.st3{fill:#ECDBE3;}
	.st4{fill:url(#SVGID_2_);}
	.st5{fill:url(#SVGID_3_);}
	.st6{fill:#243549;}
	.st7{fill:#F8F9FB;}
	.st8{fill:#FFBD66;}
	.st9{fill:url(#SVGID_4_);}
	.st10{fill:url(#SVGID_5_);}
	.st11{fill:url(#SVGID_6_);}
	.st12{fill:url(#SVGID_7_);}
	.st13{fill:#F8FFFF;}
	.st14{fill:#2E4463;}
	.st15{fill:url(#SVGID_8_);}
	.st16{fill:url(#SVGID_9_);}
	.st17{fill:#405B7C;}
	.st18{fill:url(#SVGID_10_);}
	.st19{fill:#3477EA;}
	.st20{fill:url(#SVGID_11_);}
	.st21{fill:#448CF2;}
	.st22{fill:url(#SVGID_12_);}
	.st23{fill:url(#SVGID_13_);}
	.st24{fill:url(#SVGID_14_);}
	.st25{fill:url(#SVGID_15_);}
	.st26{fill:url(#SVGID_16_);}
	.st27{fill:url(#SVGID_17_);}
	.st28{fill:url(#SVGID_18_);}
	.st29{fill:url(#SVGID_19_);}
	.st30{fill:url(#SVGID_20_);}
	.st31{fill:url(#SVGID_21_);}
	.st32{fill:url(#SVGID_22_);}
	.st33{fill:#F0E5EB;}
	.st34{fill:#F5DABC;}
	.st35{fill:#F9FAFC;}
</style>
<g>
	<path class="st0" d="M2322.9,27.7c-25.7-70.6-63.1-140-122.9-187.4c-31.2-24.8-65.2-44.7-103.9-55.4c-40.3-11.2-82.1-11-122.8-2.3
		c-77.3,16.6-141.8,65.5-202.3,113.6c-11.8,9.4-23.6,18.9-35.5,28.2c-31.5,23.9-64.2,45.7-100.4,61.9
		c-49.6,19.8-102.1,30-154.9,37.4c-68.7,8.9-137.9,14.3-205.7,28.9c-35.3,7.6-69.6,18.5-101.9,34.4c-17.7,8.7-33.6,19.7-49,32.1
		c-15.5,12.3-27.7,26.8-39.4,42.6c-11.6,15.6-19.5,32.8-27,50.7c-5.9,14.3-10.3,29-13.2,44.2c-3.6,19.2-6,38.8-6.2,58.3
		c-0.2,18.5,2,36.8,4.7,55.2c9.1,62.6,39.3,120.3,79.1,168.7c29.8,36.2,67.7,66.3,110,87.6c2.4,5.2,5.7,9.9,10,13.9
		c10.8,9.9,22.7,14.3,37.3,15.5c160.9,12.4,321.8,24.7,482.7,37.1c73,5.6,146.6,13.9,219.9,10.4c74.9-3.5,151.7-19.9,214.3-63.1
		c56.7-39.2,102.1-93.8,130.5-156.7c14.7-32.4,26.4-65.7,33.1-100.6c7.9-41,11.4-82.9,9.9-124.6
		C2366.1,180,2349.7,101.1,2322.9,27.7z"/>
	<path class="st0" d="M2247.6,134.9c-13.7-26.5-30.8-51-50-73.7c-18.6-22.2-41.5-42-66.7-56.4c-31.3-18.1-66.3-27-102.2-27.9
		c-33.6-0.8-67.5,6-100.5,12.1c-11.5,2.2-23.1,4.3-34.6,6.1c-44.6,5.2-89.5,3.9-134.1-1.5c-48.6-7.1-96.3-18.7-143.6-31.9
		c-49.4-13.9-98.1-30.4-147.8-43.5c-28.8-7.6-57.6-12.9-87.2-16.6c-24.8-3.2-49.9-3.8-74.8-0.7c-16.8,2.1-33.4,4.4-49.7,9.1
		c-13.8,4.1-27.2,9.8-40.4,15.6c-22.4,9.9-42.1,24-61.2,39.2C1139.1-23.1,1125-9,1112.5,6.5c-15.5,18.9-29.8,38.7-41.3,60.2
		c-12,22.3-22,46.2-29.6,70.4c-8.2,26.1-12.7,52.8-15.9,80c-5.9,49-1.5,99.9,10.3,147.7c6.5,26,16.1,50.9,27.2,75.3
		c8.8,19.3,19.4,37.7,31.6,55.1c14.2,20.3,29.8,39.8,47.2,57.3c17.5,17.6,36.8,33.3,56.9,47.9c28.9,21.1,61.2,38,94.8,50.7
		c6.4,5.7,14,10,22.7,12.6c120.5,35.1,241.4,68,366.4,82.6c58.9,6.9,118.6,9.1,177.7,4c58.3-5.1,116.5-15.6,170.8-38.1
		c28.9-11.9,56.7-25.2,82.4-43c23.4-16.2,45.8-34.4,65.5-55c19.6-20.5,37.4-43.4,52.7-67.4c15.1-23.7,27-49.2,37.3-75.3
		c9-22.7,15.6-46.3,19.5-70.4c5.1-30.3,7.9-60.8,6.2-91.4C2291.5,248.4,2275.7,189.4,2247.6,134.9z"/>
	<path class="st1" d="M2340.1,825.8c-14.4-12.2-29-20.3-46.9-26.2c-24.8-8.3-52.5-9.4-78.5-9.1c-62.7,0.6-125.5,1.5-188.1,2.3
		c-125.3,1.5-250.6,3.1-375.8,4.6c-125.7,1.5-251.4,3.1-377.1,4.6c-30.8,0.4-61.5,0.5-92.2,1.2c-33,0.6-68.8,4.4-96.8,23.8
		c-32.6,22.5-51.3,56.8-54,96.2c-1.4,19.5,4.2,37.8,11.8,55.4c6,13.5,15.4,26.2,26.4,36c10.5,9.3,21.5,16.6,33.9,22.2
		c31.8,42.6,71.5,79.2,118.2,104.4c41.9,22.5,87.8,36.2,135.4,38.4c43.2,2,86.7-7.9,128-20c40.1-11.8,79.6-26.1,120.9-32.7
		c14.7-1.5,29.5-1.9,44.2-0.5c14.2,2.5,28,6.8,41.3,12c21.1,9.3,41.3,20.4,62.2,29.8c30.3,13.8,59.6,24.2,93,26.9
		c30.2,2.4,59.2-5.5,86.5-17.6c23.2-10.3,43.3-25.9,63.1-41.6c17.7-14.1,34.6-29.2,52.3-43.3c12.9-9.6,26.4-18.4,41-25.2
		c11.4-4.2,23.2-7.1,35.1-9c25.8-2.8,51.8-2.5,77.6-4.9c33.8-3,65.5-9,96.2-24.2c26.6-13,50.9-35.7,63.6-62.8
		c13.8-29.5,20.6-64.1,8.5-95.6C2363.3,853.6,2354.2,837.8,2340.1,825.8z"/>
	<path class="st1" d="M2237.2,790.5c-9.5-4.3-19-8.4-29.2-10.3c-11-2-22.3-3.4-33.4-3.9c-15.5-0.6-31-0.1-46.6,0
		c-33.6,0.2-67.1,0.4-100.6,0.5c-66.4,0.4-132.8,0.6-199.2,1c-132.8,0.6-265.5,1.4-398.3,2c-32.8,0.2-65.7,0.4-98.5,0.5
		c-31.6,0.2-64.3-0.5-95.1,8.3c-9.7,2.8-19.2,6.9-28.2,11.1c-9.6,4.5-17.9,11.1-26.1,17.8c-17.1,13.8-27.7,32.7-35.5,52.8
		c-13.7,35.2-7.6,80.1,14.9,110.4c11.5,15.4,24.5,29.3,41.6,38.4c28.3,24.6,61.2,41.9,97,53.6c38,12.5,79,17.7,118.9,18.6
		c36.4,0.9,72.7-2.4,108.8-7.1c43.1-5.6,85.7-13,128.7-19c47.6-6.1,95.7-9.4,143.5-4.2c23,3.6,45.5,9.5,67.1,18
		c49.8,22.4,94.1,55.5,144.3,77.2c16.6,7.1,33.1,14.1,50.6,18.5c17,4.3,34.6,6.9,52.1,7.9c34.1,2,68.6-5.2,98.9-21
		c29.8-15.6,55.3-43.2,69.5-73.6c7.4-16,13.9-32.4,17.5-49.7c3.9-19.2,6.1-39,6.4-58.6c0.5-33.5-2.1-68-7.7-101
		C2292.6,843.1,2271.4,806.1,2237.2,790.5z"/>
	<path class="st1" d="M2182.2,780.7c-50.8-5.2-101.8-8.4-152.9-10.2c-101.9-3.6-203.8-1.7-305.7,0.7c-102,2.4-204.1,5.3-306.1,3.8
		c-51.6-0.8-104.3-6.3-155.5,3.3c-22.6,4.3-45.5,12.8-64.3,26.2c-19.6,14-37.8,31.6-47.9,53.9c-4,8.8-6.7,16.8-8.7,25.2
		c-2.9,4.3-5.2,9.2-6.7,14.6c-3.2,11.2-2,21.5-0.1,32.7c1.6,9.4,4,19.3,6.6,28.5c6.4,22.5,18,44.6,32.3,63.2
		c8.8,11.5,17.8,22.7,28.1,32.9c10.1,10,21.2,18.9,32.5,27.5c19.3,14.7,40.3,26.1,62.6,35.4c22.6,9.6,45.9,17,70,21.7
		c27.2,5.2,55.7,9.1,83.5,7.6c62.9-3.6,121.3-27.8,175.8-57.8c28.2-15.6,55.6-32.6,83.6-48.5c26.1-14.9,53-28.4,80.7-40.3
		c61.1-25.2,125.3-42.8,190.7-52.1c46.2-5.7,92.4-5.9,138.8-7.2c28-0.8,55.7-2.9,83.4-7.3c24.1-3.8,48.9-11.3,66.6-29.1
		c12.4-12.6,19.4-28.8,19.9-46.3c0.6-18.4-8.3-37-21.2-49.8C2245,786,2212.9,783.9,2182.2,780.7z"/>
	
		<linearGradient id="SVGID_1_" gradientUnits="userSpaceOnUse" x1="1714.3365" y1="0.35" x2="1714.3365" y2="260.8488" gradientTransform="matrix(1 0 0 -1 0 792)">
		<stop  offset="0" style="stop-color:#F0E5EB"/>
		<stop  offset="1" style="stop-color:#DBC6D2"/>
	</linearGradient>
	<path class="st2" d="M1192.7,844.9c0,14,11.4,25.4,25.4,25.4h992.5c14,0,25.4-11.4,25.4-25.4V492H1192.7V844.9z"/>
	<path class="st3" d="M2254.5,457.1H1174.1c-2.6,0-4.8,2.2-4.8,4.8v25.2c0,2.6,2.2,4.8,4.8,4.8h1080.5c2.6,0,4.8-2.2,4.8-4.8v-25.2
		C2259.4,459.2,2257.2,457.1,2254.5,457.1z"/>
	<g>
		<g>
			
				<linearGradient id="SVGID_2_" gradientUnits="userSpaceOnUse" x1="1415.7887" y1="61.6574" x2="1426.8892" y2="116.0582" gradientTransform="matrix(1 0 0 -1 0 792)">
				<stop  offset="0" style="stop-color:#D1DAE3"/>
				<stop  offset="1" style="stop-color:#B8C6D1"/>
			</linearGradient>
			<polygon class="st4" points="1379.4,898.3 1398.1,898.3 1434.9,647 1416.2,647 			"/>
			<g>
				
					<linearGradient id="SVGID_3_" gradientUnits="userSpaceOnUse" x1="1395.9569" y1="70.1147" x2="1609.2297" y2="70.1147" gradientTransform="matrix(1 0 0 -1 0 792)">
					<stop  offset="0" style="stop-color:#F56C66"/>
					<stop  offset="1" style="stop-color:#D15252"/>
				</linearGradient>
				<path class="st5" d="M1555.4,617.9c0,0-70.2,74.9-90.1,106.3c-19.9,31.4-20.2,20.4-48.8,36.4c-14.6,8.1-28.4,95.1-15.5,89.6
					c12.9-5.5,21.4-12.5,30.8-45.3c9.5-32.8,120.2-92.5,120.2-92.5l57.1-80.7l-2.5-38.4L1555.4,617.9z"/>
				<path class="st6" d="M1555.4,617.9c0,0-70.2,74.9-90.1,106.3c-0.8,1.3-1.6,2.4-2.4,3.6l-20.2,21c0,0,1.5,28.3,15.5,36.9
					l91.1-71.9c1.8-1,2.8-1.5,2.8-1.5l1.1-1.5l20.2-15.9l3.8-18l32-45.2l-2.5-38.4L1555.4,617.9z"/>
				<path class="st7" d="M1416.6,760.6c-14.6,8.1-28.4,95.1-15.5,89.6c9.5-4,16.6-8.9,23.4-24.2c-2.2-0.5-4.7-1.5-7.4-3
					c-7.1-3.9,15.7-70.2,15.7-70.2C1428.6,754.5,1423.3,756.8,1416.6,760.6z"/>
			</g>
			<path class="st8" d="M1541.8,630h-168.1c-4.3,0-7.9,3.5-7.9,7.9v19.4c0,4.3,3.5,7.9,7.9,7.9h168.1c4.3,0,7.9-3.5,7.9-7.9v-19.4
				C1549.6,633.5,1546.1,630,1541.8,630z"/>
			
				<linearGradient id="SVGID_4_" gradientUnits="userSpaceOnUse" x1="1503.259" y1="64.1571" x2="1494.9945" y2="106.1882" gradientTransform="matrix(1 0 0 -1 0 792)">
				<stop  offset="0" style="stop-color:#D1DAE3"/>
				<stop  offset="1" style="stop-color:#B8C6D1"/>
			</linearGradient>
			<polygon class="st9" points="1487.4,665 1521.6,898.3 1540.3,898.3 1506.1,665 			"/>
			<g>
				
					<linearGradient id="SVGID_5_" gradientUnits="userSpaceOnUse" x1="1578.4253" y1="434.8114" x2="1552.49" y2="402.4345" gradientTransform="matrix(1 0 0 -1 0 792)">
					<stop  offset="0" style="stop-color:#F56C66"/>
					<stop  offset="1" style="stop-color:#D15252"/>
				</linearGradient>
				<path class="st10" d="M1662,313.8c-3-2-6,8.2-7.3,19.8c-1.4,11.6-32.1,4.2-33.1-0.5c-1-4.6-2-19.5-8.9-15.7
					c-4.8,2.6,7.5,27.3-0.7,34.8c-12.7,11.6-59.7,60.2-65.7,65.9s-48.5-51.1-48.5-51.1l-6.6,52.5c0,0,12.9,9.9,41.2,30.6
					c28.2,20.5,40.8-8.3,57.7-31.5c16.9-23.2,30.6-51.8,46.1-54.8s26.6-18.7,26.9-29C1663.2,324.4,1664.9,315.8,1662,313.8z"/>
				
					<linearGradient id="SVGID_6_" gradientUnits="userSpaceOnUse" x1="1561.2776" y1="366.1795" x2="1521.751" y2="388.5364" gradientTransform="matrix(1 0 0 -1 0 792)">
					<stop  offset="0" style="stop-color:#448CF2"/>
					<stop  offset="1" style="stop-color:#347CD1"/>
				</linearGradient>
				<path class="st11" d="M1582.9,397.9c-3.8-2-7.9-4.4-11.8-4.2c-0.1-0.2-0.2-0.3-0.3-0.5c-0.2,0.2-0.4,0.4-0.5,0.5
					c-1.6,0.3-3.2,1.1-4.7,2.5c-4.3,4.3-8.1,9.2-11.8,14.1c-3.8,3.8-6.5,6.6-7.7,7.7c-6,5.6-48.5-51.1-48.5-51.1l-6.6,52.5
					c0,0,12.9,9.9,41.2,30.6c16.3,11.8,27.3,7.3,37.1-3.2c0.4,0,0.6-0.1,1-0.1c5.5-0.8,11.2-6.8,14.7-10.8c2-2.3,3.6-4.7,4.8-7.5
					c0.5-1.4,0.9-2.8,1.4-4.3c0.9-2.2,2.1-2.6,4-3.7c4.3-2.6,6.9-7.2,4.1-12.1C1596.3,403,1588.2,400.5,1582.9,397.9z"/>
				
					<linearGradient id="SVGID_7_" gradientUnits="userSpaceOnUse" x1="1542.9305" y1="450.8448" x2="1551.0374" y2="495.4135" gradientTransform="matrix(1 0 0 -1 0 792)">
					<stop  offset="0" style="stop-color:#F56C66"/>
					<stop  offset="1" style="stop-color:#D15252"/>
				</linearGradient>
				<path class="st12" d="M1629,583.1c-10.5-9.9-50.3-18.6-92.8-32.4c-42.6-13.7-34.6-57-37.4-97.1c-2.8-40.1,17.6-33.9,15.3-69.1
					c-2.3-34-45.9-56.9-54.3-72.8c-8.4-15.9,6.9-30.8,6.9-30.8l-16.4-32.5c0,0-4.7,5-37.4,64.8c-32.7,59.8,0.8,82,4.8,119.4
					s-22.4,64.7-28.9,128.4c-9.2,91.3,202.6,65.7,202.6,65.7c-52.3,76.2-40.3,169.8-72.6,188.7c-32.4,18.9,6.5,56.7,23.9,75.2
					c17.5,18.5,25.7-3.6,15.9-16.5c-3-4-4.5-43.3-5.5-53.7c-1-10.4,22.4-45.3,55.7-127.4C1642.2,611,1639.4,593,1629,583.1z"/>
				<path class="st13" d="M1514.1,384.6c-0.3-4.6-1.4-9-3-13.2l0,0c-1.1-2.8-2.4-5.4-3.9-8.1c0,0,0-0.1-0.1-0.1
					c-0.3-0.5-0.5-0.9-0.8-1.4c0-0.1-0.1-0.2-0.1-0.2c-0.3-0.5-0.5-0.9-0.8-1.4c0-0.1-0.1-0.1-0.1-0.2c-0.4-0.5-0.6-1-1-1.4l0,0
					c-9.5,2.9-24.3-0.9-47.6-24.9s-36.2-19.7-36.2-19.7l-8.6,1.2l0,0c-25.5,48.2-7.7,71.7,1.6,99.2v0.1c0.2,0.5,0.3,0.9,0.5,1.4
					c0,0.1,0,0.1,0.1,0.2c0.2,0.5,0.3,0.9,0.5,1.3c0,0.1,0.1,0.2,0.1,0.3c0.1,0.4,0.3,0.8,0.4,1.3c0,0.1,0.1,0.3,0.1,0.4
					c0.1,0.4,0.2,0.8,0.4,1.2c0,0.2,0.1,0.3,0.1,0.5c0.1,0.4,0.2,0.7,0.3,1.1c0,0.2,0.1,0.4,0.1,0.5c0.1,0.4,0.2,0.7,0.3,1.1
					c0,0.2,0.1,0.4,0.1,0.5c0.1,0.4,0.2,0.7,0.3,1.1c0,0.2,0.1,0.4,0.1,0.5c0.1,0.4,0.2,0.7,0.2,1.1c0,0.2,0.1,0.5,0.1,0.6
					c0.1,0.4,0.1,0.7,0.2,1c0,0.2,0.1,0.5,0.1,0.6c0.1,0.4,0.1,0.8,0.2,1.2c0,0.2,0.1,0.4,0.1,0.5c0.1,0.5,0.2,1.2,0.2,1.7
					c0.1,1.2,0.2,2.4,0.3,3.6c0,0.4,0,0.8,0,1.2c0,0.8,0.1,1.6,0.1,2.4c0,0.5,0,0.9,0,1.4c0,0.7,0,1.4-0.1,2.2c0,0.5-0.1,1-0.1,1.4
					c0,0.7-0.1,1.4-0.2,2c0,0.5-0.1,1-0.2,1.5c-0.1,0.6-0.2,1.4-0.3,2c-0.1,0.5-0.2,1-0.2,1.5c-0.1,0.6-0.2,1.3-0.3,2
					c-0.1,0.5-0.2,1-0.3,1.5c-0.1,0.6-0.3,1.3-0.4,1.9c-0.1,0.5-0.2,1-0.4,1.5c-0.2,0.6-0.3,1.3-0.5,1.9c-0.1,0.5-0.3,1-0.4,1.5
					c-0.2,0.6-0.4,1.3-0.5,2c-0.2,0.5-0.3,1-0.5,1.5c-0.2,0.6-0.4,1.4-0.5,2c-0.2,0.5-0.3,1-0.5,1.5c-0.2,0.6-0.5,1.4-0.6,2
					c-0.2,0.5-0.4,1.1-0.5,1.5c-0.2,0.5-0.4,1.2-0.5,1.8c-1.8,5.5-3.9,11.2-6.1,17.3c34.6,15.3,76.6,6.5,94.8,1.4
					c-0.1-1.6-0.2-3.2-0.3-4.8l0,0c-0.2-5.1-0.3-10.1-0.5-15.3c0-1.4-0.1-2.8-0.1-4.3c0-0.2,0-0.3,0-0.5c0-1.5-0.1-3.1-0.1-4.6
					c0-0.2,0-0.3,0-0.5c-0.1-1.5-0.1-3.2-0.2-4.7c0-0.1,0-0.3,0-0.4c-0.1-1.6-0.2-3.3-0.3-4.8c0-0.6-0.1-1.3-0.1-1.8
					c0-0.2,0-0.4,0-0.6c0-0.4,0-0.8-0.1-1.2c0-0.3,0-0.5,0-0.6c0-0.4,0-0.7,0-1.1c0-0.3,0-0.5,0-0.6c0-0.4,0-0.6,0-1
					c0-0.2,0-0.4,0-0.6c0-0.4,0-0.6,0-1c0-0.2,0-0.4,0-0.5c0-0.4,0-0.7,0-1c0-0.2,0-0.3,0-0.5c0-0.4,0-0.7,0.1-1c0-0.2,0-0.3,0-0.5
					c0-0.4,0-0.6,0.1-1c0-0.1,0-0.3,0-0.4c0-0.4,0.1-0.6,0.1-1c0-0.1,0-0.2,0-0.4c0-0.4,0.1-0.6,0.1-1c0-0.1,0-0.2,0-0.3
					c0-0.4,0.1-0.6,0.1-1c0-0.1,0-0.2,0-0.3c0.1-0.4,0.1-0.6,0.2-1c0-0.1,0-0.1,0-0.2c0.1-0.4,0.1-0.6,0.2-1c0-0.1,0-0.1,0-0.2
					c0.1-0.4,0.1-0.6,0.2-1v-0.1c0.1-0.4,0.2-0.6,0.3-1v-0.1c0.1-0.4,0.2-0.6,0.3-1l0,0c4.4-16.7,15.3-19.9,13.7-45.9
					C1514.2,384.9,1514.1,384.7,1514.1,384.6z"/>
				<path class="st14" d="M1478.3,166.5c-5.6-1.4-8,7.2-2.4,8.7c1.5,0.4,3.1,0.7,4.7,1.2c-0.2,0.7-0.1,1.5,0.2,2.4
					c2.4,6.6,5,13.1,6.8,19.9c0.9,3.4,1.6,6.9,2,10.4c0.4,3.1,0.1,6.3,0.8,9.4c1,4.7,4.7,9.1,9.9,9c5.8-0.2,7.8-5.2,8.9-10
					c2.7-11.7,4.7-25.1-2.5-35.6C1500.1,172.4,1488.7,169,1478.3,166.5z"/>
				
					<linearGradient id="SVGID_8_" gradientUnits="userSpaceOnUse" x1="1484.9408" y1="532.6326" x2="1456.2255" y2="570.7489" gradientTransform="matrix(1 0 0 -1 0 792)">
					<stop  offset="0" style="stop-color:#F56C66"/>
					<stop  offset="1" style="stop-color:#D15252"/>
				</linearGradient>
				<path class="st15" d="M1476.6,171.4c-69.4,1.9-63.8,53.6-56.6,81.7c7.1,28.1,46.9,36.8,62.6,36.1c11.9-0.5,15.2-15.8,16.6-35
					l1.1-23c0.2-5,0.5-9.9,0.8-14.7C1503.7,184.1,1476.6,171.4,1476.6,171.4z"/>
				<path class="st7" d="M1558.2,873.5L1558.2,873.5c0,0-1.2,2.9-9.1-0.9c-8-3.8-26-60.2-26-60.2l0,0c-1.4,1.3-2.8,2.4-4.3,3.2
					c-32.4,18.9,6.5,56.7,23.9,75.2c17.5,18.5,25.7-3.6,15.9-16.5C1558.5,874.1,1558.3,873.8,1558.2,873.5z"/>
				<g>
					
						<linearGradient id="SVGID_9_" gradientUnits="userSpaceOnUse" x1="1557.5537" y1="120.2757" x2="1453.8545" y2="178.9299" gradientTransform="matrix(1 0 0 -1 0 792)">
						<stop  offset="0" style="stop-color:#2E4463"/>
						<stop  offset="1" style="stop-color:#21344C"/>
					</linearGradient>
					<path class="st16" d="M1629,583.1c-10.5-9.9-50.3-18.6-92.8-32.4c-28.5-9.1-34.3-31.6-35.9-57.3c-34.8,17.8-94.8-1.4-94.8-1.4
						c-6.5,18.4-13.7,40-16.6,69.2c-9.2,91.3,202.6,65.7,202.6,65.7c-42.2,61.6-42.5,134.5-58.2,170.2l-2.6,5.3
						c0,0,19.2,12.1,29.8,10.7c7.6-1.1,38-86.8,54.7-136C1641.8,608.5,1638.7,592.3,1629,583.1z"/>
					<g>
						<g>
							<path class="st17" d="M1417.4,555.4c0,0,0.5,0.4,1.7,1.1l0.5-0.8c-1.1-0.7-1.6-1.1-1.6-1.1L1417.4,555.4z"/>
							<path class="st17" d="M1495,593.5c1.3,0.5,2.5,0.9,3.8,1.4l0.4-0.9c-1.3-0.5-2.5-0.9-3.8-1.4L1495,593.5z"/>
							<path class="st17" d="M1502.6,596.3c1.3,0.5,2.5,0.9,3.8,1.4l0.4-0.9c-1.3-0.5-2.5-0.9-3.8-1.4L1502.6,596.3z"/>
							<path class="st17" d="M1480,587.5c1.3,0.5,2.4,1,3.7,1.5l0.4-0.9c-1.3-0.5-2.5-1-3.7-1.5L1480,587.5z"/>
							<path class="st17" d="M1510.2,598.9c1.3,0.5,2.5,0.8,3.8,1.3l0.3-0.9c-1.3-0.5-2.5-0.8-3.8-1.3L1510.2,598.9z"/>
							<path class="st17" d="M1487.5,590.6c1.3,0.5,2.5,1,3.7,1.4l0.4-0.9c-1.3-0.5-2.5-1-3.7-1.4L1487.5,590.6z"/>
							<path class="st17" d="M1533.2,606c1.3,0.4,2.6,0.7,3.9,1l0.3-1c-1.3-0.4-2.6-0.7-3.9-1L1533.2,606z"/>
							
								<rect x="1540.8" y="799.6" transform="matrix(-0.3203 0.9473 -0.9473 -0.3203 2794.9634 -405.0959)" class="st17" width="4" height="1"/>
							<path class="st17" d="M1545.2,608c-1.3-0.3-2.6-0.6-3.9-1l-0.3,1c1.3,0.4,2.6,0.6,3.9,1L1545.2,608z"/>
							<path class="st17" d="M1525.6,603.7c1.3,0.4,2.5,0.7,3.9,1.1l0.3-1c-1.3-0.4-2.6-0.7-3.9-1.1L1525.6,603.7z"/>
							<path class="st17" d="M1517.9,601.4c1.3,0.4,2.5,0.8,3.9,1.2l0.3-1c-1.3-0.4-2.5-0.8-3.8-1.2L1517.9,601.4z"/>
							<path class="st17" d="M1472.6,584.4c1.2,0.5,2.4,1.1,3.7,1.6l0.4-0.9c-1.3-0.5-2.4-1.1-3.7-1.6L1472.6,584.4z"/>
							<path class="st17" d="M1600.4,618.9c-1-1.1-2.2-1.9-3.5-2.4l-0.3,0.9c1.2,0.4,2.3,1.1,3.1,2.1L1600.4,618.9z"/>
							<path class="st17" d="M1584.7,615.1c-1.4-0.2-2.6-0.4-4-0.5l-0.1,1c1.4,0.2,2.6,0.4,4,0.5L1584.7,615.1z"/>
							<path class="st17" d="M1560.9,611.4c-1.4-0.3-2.6-0.5-4-0.8l-0.2,1c1.3,0.3,2.6,0.5,4,0.8L1560.9,611.4z"/>
							<path class="st17" d="M1592.7,616c-1.4-0.1-2.6-0.3-4-0.5l-0.1,1c1.4,0.2,2.6,0.3,4,0.5L1592.7,616z"/>
							<path class="st17" d="M1553.1,609.8c-1.4-0.3-2.6-0.5-3.9-0.9l-0.2,1c1.3,0.3,2.6,0.6,3.9,0.9L1553.1,609.8z"/>
							<path class="st17" d="M1465.2,581.1c1.2,0.5,2.4,1.1,3.7,1.6l0.5-0.9c-1.3-0.5-2.4-1.1-3.6-1.6L1465.2,581.1z"/>
							
								<rect x="1543.4" y="792.1" transform="matrix(-0.3203 0.9473 -0.9473 -0.3203 2791.2141 -417.536)" class="st17" width="4" height="1"/>
							<path class="st17" d="M1422.4,558.6c1,0.6,2.2,1.3,3.4,2.1l0.5-0.8c-1.3-0.7-2.4-1.4-3.4-2.1L1422.4,558.6z"/>
							<path class="st17" d="M1458,577.7c1.2,0.5,2.4,1.2,3.6,1.7l0.5-0.9c-1.3-0.5-2.4-1.2-3.6-1.7L1458,577.7z"/>
							<path class="st17" d="M1443.5,570.4c1.2,0.6,2.4,1.3,3.6,1.8l0.5-0.9c-1.3-0.6-2.4-1.3-3.5-1.8L1443.5,570.4z"/>
							<path class="st17" d="M1436.5,566.6c1.2,0.6,2.4,1.3,3.5,1.9l0.5-0.9c-1.3-0.6-2.4-1.3-3.5-1.9L1436.5,566.6z"/>
							<path class="st17" d="M1429.4,562.7c1.1,0.6,2.3,1.3,3.5,2l0.5-0.9c-1.3-0.7-2.4-1.4-3.5-2L1429.4,562.7z"/>
							<path class="st17" d="M1450.8,574.1c1.2,0.6,2.4,1.2,3.6,1.8l0.5-0.9c-1.3-0.6-2.4-1.2-3.6-1.8L1450.8,574.1z"/>
							
								<rect x="1582.1" y="677.7" transform="matrix(-0.3203 0.9473 -0.9473 -0.3203 2734.0212 -605.2237)" class="st17" width="4" height="1"/>
							
								<rect x="1587.3" y="662.5" transform="matrix(-0.3203 0.9473 -0.9473 -0.3203 2726.4788 -630.2427)" class="st17" width="4" height="1"/>
							
								<rect x="1584.7" y="670.2" transform="matrix(-0.3203 0.9473 -0.9473 -0.3203 2730.2717 -617.6638)" class="st17" width="4" height="1"/>
							
								<rect x="1579.5" y="685.4" transform="matrix(-0.3203 0.9473 -0.9473 -0.3203 2737.8137 -592.6429)" class="st17" width="4" height="1"/>
							
								<rect x="1577" y="693" transform="matrix(-0.3203 0.9473 -0.9473 -0.3203 2741.7039 -580.2458)" class="st17" width="4" height="1"/>
							
								<rect x="1574.4" y="700.6" transform="matrix(-0.3203 0.9473 -0.9473 -0.3203 2745.4968 -567.6667)" class="st17" width="4" height="1"/>
							<path class="st17" d="M1601.3,622.9c0.1,0.5,0.2,1.1,0.2,1.5c0,0.7-0.1,1.4-0.4,2.2l1,0.3c0.3-0.8,0.4-1.6,0.4-2.4
								c0-0.6-0.1-1.2-0.2-1.8L1601.3,622.9z"/>
							
								<rect x="1597.7" y="632" transform="matrix(-0.3203 0.9473 -0.9473 -0.3203 2711.2234 -680.2618)" class="st17" width="4" height="1"/>
							
								<rect x="1571.8" y="708.2" transform="matrix(-0.3203 0.9473 -0.9473 -0.3203 2749.2466 -555.2268)" class="st17" width="4" height="1"/>
							
								<rect x="1589.9" y="654.9" transform="matrix(-0.3203 0.9473 -0.9473 -0.3203 2722.5889 -642.64)" class="st17" width="4" height="1"/>
							
								<rect x="1595.1" y="639.6" transform="matrix(-0.3203 0.9473 -0.9473 -0.3203 2715.0046 -667.801)" class="st17" width="4" height="1"/>
							
								<rect x="1592.5" y="647.2" transform="matrix(-0.3203 0.9473 -0.9473 -0.3203 2718.7654 -655.2436)" class="st17" width="4" height="1"/>
							
								<rect x="1553.8" y="761.5" transform="matrix(-0.3203 0.9473 -0.9473 -0.3203 2775.946 -467.6735)" class="st17" width="4" height="1"/>
							
								<rect x="1556.3" y="754" transform="matrix(-0.3203 0.9473 -0.9473 -0.3203 2772.1973 -480.1123)" class="st17" width="4" height="1"/>
							<path class="st17" d="M1576.8,614.1c-1.4-0.2-2.6-0.4-4-0.6l-0.2,1c1.4,0.2,2.6,0.5,4,0.6L1576.8,614.1z"/>
							
								<rect x="1548.6" y="776.7" transform="matrix(-0.3203 0.9473 -0.9473 -0.3203 2783.488 -442.6527)" class="st17" width="4" height="1"/>
							
								<rect x="1551.1" y="769.2" transform="matrix(-0.3203 0.9473 -0.9473 -0.3203 2779.7385 -455.0928)" class="st17" width="4" height="1"/>
							
								<rect x="1558.9" y="746.3" transform="matrix(-0.3203 0.9473 -0.9473 -0.3203 2768.2639 -492.6493)" class="st17" width="4" height="1"/>
							
								<rect x="1546" y="784.4" transform="matrix(-0.3203 0.9473 -0.9473 -0.3203 2787.4214 -430.1158)" class="st17" width="4" height="1"/>
							
								<rect x="1569.2" y="715.8" transform="matrix(-0.3203 0.9473 -0.9473 -0.3203 2753.0388 -542.6462)" class="st17" width="4" height="1"/>
							
								<rect x="1561.5" y="738.7" transform="matrix(-0.3203 0.9473 -0.9473 -0.3203 2764.5144 -505.0893)" class="st17" width="4" height="1"/>
							
								<rect x="1566.7" y="723.5" transform="matrix(-0.3203 0.9473 -0.9473 -0.3203 2756.9409 -530.1347)" class="st17" width="4" height="1"/>
							
								<rect x="1564.1" y="731" transform="matrix(-0.3203 0.9473 -0.9473 -0.3203 2760.6907 -517.6956)" class="st17" width="4" height="1"/>
							<path class="st17" d="M1568.9,612.9c-1.4-0.2-2.6-0.5-4-0.7l-0.2,1c1.4,0.3,2.6,0.5,4,0.7L1568.9,612.9z"/>
							
								<rect x="1539.5" y="806.3" transform="matrix(-0.3203 0.9473 -0.9473 -0.3203 2798.2437 -394.1819)" class="st17" width="2" height="1"/>
						</g>
					</g>
				</g>
				
					<linearGradient id="SVGID_10_" gradientUnits="userSpaceOnUse" x1="1458.4694" y1="375.9593" x2="1405.5743" y2="309.9267" gradientTransform="matrix(1 0 0 -1 0 792)">
					<stop  offset="0" style="stop-color:#448CF2"/>
					<stop  offset="1" style="stop-color:#347CD1"/>
				</linearGradient>
				<path class="st18" d="M1498.1,495.6c-3.6-13.3-5.8-26.9-6.5-40.6c0-0.3-0.1-0.5-0.2-0.7c3.3-30.1-5.4-94.1-9.8-100
					c-1.2-1.5-4.2-4.8-8.3-8.8c-5.1-6.6-10.5-12.8-16.5-18.6c-7.5-7.3-15.5-13.3-25.2-15.3c-2.9-1-5.9-1.1-8.7-0.7
					c-0.1,0-0.3,0-0.4,0c-0.5,0-0.9,0.2-1.3,0.3c-4,0.9-7.3,2.6-9.2,3.7c-0.9,1.7-1.7,3.3-2.5,5l-10.7,45.2
					c0.9,15.7,6.8,28.5,11.8,41.5c-2.8,1.3-4.7,4.1-3.5,7.9c9.1,28.4-1.9,57.3-13.3,83.3c-11.1,25.5-23.2,51.9-22.1,80.3
					c-0.6,1.8-0.6,3.8,0.5,5.5c1.4,5.1,7.5,6.5,11.1,4.3c4.2,0,8.2-1.4,11.8-3.9c5.4-3.7,9.2-9.6,15.7-11.5c6.5-2,13.6-1,20.3-0.5
					c6.9,0.5,13.8,0.8,20.6-0.7c13.4-3,22.4-13.8,28.2-25.7c7-14.5,12.1-29.9,17.9-44.9c0.6-1.6,0.6-3.1,0.2-4.3
					C1498.2,496.3,1498.2,496,1498.1,495.6z"/>
				<g>
					<path class="st14" d="M1418.7,281.9c-8.7,6.4-17.5,12.8-24.2,21.4c-5.3,6.9-8.6,14.6-10.1,22.9c-5.4,11.2-6.6,24.2-3.1,36.3
						c1.9,6.4,5.3,11.8,8.9,17.2c1.4,8.6,1.9,17.9-3.7,24.3c-3.9,0.5-7.3,4.5-4.5,8.6c4.1,5.9,10.6,8.8,17.3,8.8
						c6.7,2.8,15.9-0.1,20.8-6.3c6.2-7.9,7.1-18.7,6.1-29.4c0.1-1.3,0.1-2.6,0.1-3.9c0-15.4-4.3-30.1-6.1-45.3
						c-1.8-15.7,0.3-31.3,7.4-45.5c1.4-2.7,0.5-5.3-1.1-7.1C1425.1,281.2,1422,279.5,1418.7,281.9z M1388.3,373.2
						c-7.2-11.9-8.7-26.3-4.6-39.3c0,0.2,0,0.4,0,0.6c-0.5,12.3,2.4,24.3,4.9,36.3c0.3,1.4,0.5,2.7,0.8,4.1
						C1388.9,374.2,1388.5,373.7,1388.3,373.2z M1424,399.6c-0.3,2.2-0.7,4.3-1.4,6.4c-1.8,6-6.1,11.9-12.2,14
						c-1.8,0.6-3.7,0.8-5.6,0.7c2.4-0.6,4.9-1.7,7.1-3.2C1418.1,413.1,1421.8,406.6,1424,399.6z"/>
					<path class="st19" d="M1419.4,288.7c-0.8-0.5-1.5-1.5-2.2-2.2c-0.7-0.7-1.5-1.3-2.3-1.8c-2.9,2.2-5.8,4.3-8.6,6.7
						c1.4,0.7,3.1,0.7,4.6-0.5c-0.9,0.7,5.1,5,5.8,5.2c2.4,1.1,5.8,0.1,8.2,0.7c0.8-2,1.7-4,2.6-6c0.3-0.5,0.4-1,0.5-1.4
						c-1.3-0.5-2.7-0.6-4.1-0.6C1422.5,288.9,1420.8,289.4,1419.4,288.7z"/>
					<path class="st14" d="M1493.9,178.3c-1.7-2.5-4.5-2.9-6.8-2.1c-0.5-0.8-1-1.6-1.6-2.4c-0.2-2-1.3-4-3.6-4.9
						c-0.6-0.3-1.3-0.5-1.8-0.7c-0.5-0.6-1.3-1.1-2.2-1.4c-15.1-6-31.1-10.9-47.5-8.1c-14.3,2.4-25.6,11-32.6,23.6
						c-13.6,24.3-15,56.4-0.2,80.4c0.1,1.4,0.3,2.8,0.4,4.2c0.8,7.7,4.1,16.1,12,18.9c1.3,0.5,2.5,0.7,3.8,0.7
						c0.6,0.8,1.4,1.5,2.1,2.3c0.3,0.3,0.5,0.5,0.8,0.7c1.4,3.4,6.1,4.1,9,2.1c7.6,1.4,15.3-5.4,18.7-11.8c4.8-9,2.4-18.3,0.9-27.7
						c-0.1-1.4-0.2-2.7-0.1-4.1c0.3-3.8,1.3-7.1,5.6-9.1c1-0.5,2-0.9,3-1.2c10.9,0.9,21.7,0.2,30-8.1c9-8.9,13.4-21.6,13.8-34
						c0-0.3-0.1-0.5-0.3-0.6C1498.4,189.2,1497.5,183.5,1493.9,178.3z M1427.5,289.9c0.5-0.8,0.8-1.7,0.9-2.9
						c0.1-1.1,0.3-2.1,0.6-3.1c2.6-0.6,5.3-0.8,7.9-1.9c3.4-1.4,6-4.1,7.6-7.5v-0.1C1442.1,281.9,1435.2,290.6,1427.5,289.9z
						 M1443,273c-2.5,6.2-7.6,7.1-12.8,8.3c2.3-3.9,6.2-7.1,8.8-10.4c2.7-3.4,4.4-7,5.3-10.9C1444.7,264.5,1444.6,269,1443,273z
						 M1482.6,228.3c-5,4.8-10.8,6.9-16.9,7.6c0.2,0,0.3-0.1,0.5-0.1c7.8-1.7,13.8-6.4,18.5-12.8c3.5-4.8,7.3-10.7,9.9-16.7
						C1492.5,214.4,1488.7,222.3,1482.6,228.3z"/>
				</g>
				
					<linearGradient id="SVGID_11_" gradientUnits="userSpaceOnUse" x1="1596.6041" y1="239.3804" x2="1541.3412" y2="284.9977" gradientTransform="matrix(1 0 0 -1 0 792)">
					<stop  offset="0" style="stop-color:#F56C66"/>
					<stop  offset="1" style="stop-color:#D15252"/>
				</linearGradient>
				<path class="st20" d="M1566.5,537.8c-24.4-1.5-75.2-42.3-80.7-45.8c-5.5-3.4,5.5-108-20.4-132.4c-14.9-14-23.9-8-28.8-0.3
					c-3.6,5.6-5.1,12.3-4.6,18.9c1.9,26.4,9.5,123,16.9,136.2c9.6,16.9,91.2,38.7,106.7,42.4c16.6,3.9,58,18,59.2,18.5
					c1.3,0.5,8.2,3.8,1.8-12.1C1610.3,547.4,1591,539.3,1566.5,537.8z"/>
				<path class="st21" d="M1519.2,509.7c-3.3-2.3-5.7-4.9-9.6-6.3c-3.7-1.4-7.7-2-11.6-2.4c-6.2-4.6-10.8-8.1-12.2-9
					c-5.5-3.5,5.5-108-20.4-132.4c-14.9-14-23.9-8-28.8-0.3c-3.6,5.6-5.1,12.3-4.6,18.9c1.9,26.4,9.5,123,16.9,136.2
					c5.4,9.6,34.1,20.8,60.6,29.3c0.2,0.1,0.3,0.2,0.5,0.3c2.6,1.8,5.8,3.3,8.8,1.4c2.9-1.9,4-6.3,5.2-9.3c1.9-4.6,4.4-9.3,5.6-14.1
					c0.6-2.7,0.6-5.7-1.1-8C1526.3,510.9,1522.2,511.7,1519.2,509.7z"/>
				<path class="st8" d="M1655.4,312.6h-17.6h-17.6c-1.4,0-2.6,1.3-2.4,2.8l6.9,47.2c0.2,1.2,1.2,2.1,2.4,2.1h10.8h10.8
					c1.2,0,2.2-0.9,2.4-2.1l6.9-47.2C1658,314,1656.8,312.6,1655.4,312.6z"/>
				<path class="st13" d="M1632.3,222.6c-12.3,5.4-17.6,20.1-13.6,32.7c2.2,6.4,6.4,11.9,11.8,16c3.3,2.4,7.7,3.5,10.8,6.2
					c7.3,6.5-4.1,10.9-9.5,11c-1.6-0.1-2.4,1.2-2.4,2.4c0,1.3,0.7,2.5,2.4,2.5c6.2,0.2,13.2,0,17.8-4.9c4.2-4.5,3.3-10.6,0.7-15.6
					c-1.8-3.5-4.4-6.6-5.4-10.5c-1.1-4.2-0.4-9,1.9-12.6c3.1-5.2,9.8-8,10.9-14.5C1660.5,221.6,1641.7,218.5,1632.3,222.6z"/>
			</g>
		</g>
		<g>
			<g>
				
					<linearGradient id="SVGID_12_" gradientUnits="userSpaceOnUse" x1="1822.6091" y1="66.8203" x2="1937.41" y2="66.8203" gradientTransform="matrix(1 0 0 -1 0 792)">
					<stop  offset="0" style="stop-color:#F56C66"/>
					<stop  offset="1" style="stop-color:#D15252"/>
				</linearGradient>
				<path class="st22" d="M1908.6,728c-3.4-37-31.9-135.7-31.9-135.7l-25.1-5.7l-29-6.5l14.1,97.8c0,0,71.5,103.5,64.9,137
					s-2.2,43.6,6.9,54.4c9,10.8,36.3-72.9,27-86.8C1917.3,755.4,1912.1,765,1908.6,728z"/>
				<path class="st8" d="M1919.8,765.7c-8.9,4.7-19,6.7-28.9,5.6c2.2,4.8,4.1,9.5,5.7,14c10.5-0.1,20.7-2.5,30.3-7.6
					c1.5-0.8,2.5-1.9,3.1-3.2c-3.2-4.1-5.9-7.1-8.1-9.6C1921,765.2,1920.4,765.4,1919.8,765.7z"/>
			</g>
			<path class="st8" d="M1924.5,768.2c0,0-9.9,69.4-17.9,69.6c-3.1,0.1-5.8-0.3-8-0.7c-0.9,16.7,3.3,24.3,9.9,32.2
				c9,10.8,36.3-72.9,27-86.8C1931.2,776,1927.5,771.6,1924.5,768.2z"/>
			
				<linearGradient id="SVGID_13_" gradientUnits="userSpaceOnUse" x1="1916.9113" y1="95.118" x2="1868.1038" y2="149.1787" gradientTransform="matrix(1 0 0 -1 0 792)">
				<stop  offset="0" style="stop-color:#448CF2"/>
				<stop  offset="1" style="stop-color:#347CD1"/>
			</linearGradient>
			<path class="st23" d="M1892.3,635.7c-6.5-7.4-16.6-11.2-26.3-8.5c-5.5,1.5-7.3,6.5-6.4,10.9c-0.5,1.2-0.8,2.4-0.7,3.9
				c0.7,6.2,2.6,12,4.3,18c1.5,5.7,2.4,13.7,6.4,18.3c4.8,5.3,11.1,4.2,17.2,2.3s11.9-4.3,17.7-6.9c6.2-2.8,5.3-10.6,1.9-14.8
				C1900.7,651.7,1898.3,642.6,1892.3,635.7z"/>
			<path class="st14" d="M1962.7,281c-2.5-0.2-5.2,1.8-4.2,4.9c2.3,6.5,0.8,13.3-3.5,17.8c2.4-4.6,3.5-9.9,3.2-15.3
				c-0.1-1.3-2.1-1.3-2,0c0.5,6.9-1.5,13.4-5.6,18.6c-0.6,0.4-1.4,0.6-2.1,0.9c-1.9,0.7-3.5,2.7-2.8,4.9
				c3.2,9.1,12.6,12.3,21.6,12.1c10.3-0.2,17.1-6.4,18.6-16.6c1.4-9.1,0.4-22.3-6.2-29.5C1973.9,272.4,1967.2,275.6,1962.7,281z"/>
			<path class="st14" d="M1954.5,218.8c-4.9-9.2-8.1-19.2-9.5-29.5c-0.1-0.5-0.3-1-0.5-1.4c0.5-0.5,0.9-0.9,1.4-1.3
				c2.8-2.5-0.3-6.4-3.3-5.8c0.2-0.3,0.4-0.5,0.5-0.8c0.6-1.1,1.6-2.3-1.7-1c-8.8,3.2-14.9,10.9-18.7,19.6
				c-2.8,6.5-1.3,13.7,3.3,18.8c4.8,10.9,18.5,14.4,28.4,7.5c2.2-1.5,1.8-4.3,0.4-5.8C1954.7,219.2,1954.6,219,1954.5,218.8z
				 M1924.4,210.9c-2.1-6.1-0.3-12.8,5.1-17.7c1-0.9,2-1.7,3-2.5C1927.4,196.6,1923.7,203.4,1924.4,210.9z"/>
			
				<linearGradient id="SVGID_14_" gradientUnits="userSpaceOnUse" x1="2035.6234" y1="59.2367" x2="2046.0894" y2="110.5272" gradientTransform="matrix(1 0 0 -1 0 792)">
				<stop  offset="0" style="stop-color:#D1DAE3"/>
				<stop  offset="1" style="stop-color:#B8C6D1"/>
			</linearGradient>
			<polygon class="st24" points="1999.7,647 2036.5,898.3 2055.3,898.3 2018.4,647 			"/>
			<path class="st8" d="M2061,630h-168.1c-4.3,0-7.9,3.5-7.9,7.9v19.4c0,4.3,3.5,7.9,7.9,7.9H2061c4.3,0,7.9-3.5,7.9-7.9v-19.4
				C2068.8,633.5,2065.3,630,2061,630z"/>
			
				<linearGradient id="SVGID_15_" gradientUnits="userSpaceOnUse" x1="1910.7908" y1="61.196" x2="1902.9818" y2="100.9102" gradientTransform="matrix(1 0 0 -1 0 792)">
				<stop  offset="0" style="stop-color:#D1DAE3"/>
				<stop  offset="1" style="stop-color:#B8C6D1"/>
			</linearGradient>
			<polygon class="st25" points="1894.3,898.3 1913.1,898.3 1947.3,665 1928.5,665 			"/>
			
				<linearGradient id="SVGID_16_" gradientUnits="userSpaceOnUse" x1="1895.9355" y1="392.7243" x2="1875.2848" y2="366.9446" gradientTransform="matrix(1 0 0 -1 0 792)">
				<stop  offset="0" style="stop-color:#F56C66"/>
				<stop  offset="1" style="stop-color:#D15252"/>
			</linearGradient>
			<path class="st26" d="M1937.9,422.6c-8.1-1.1-74.7-13.4-91.7-15.5c-11-1.4-15.5-28.6-20.9-28c-7.8,1,0,13.7,1.9,18
				c1.9,4.3-18.9,28.3-26.7,19.6c-7.9-8.7-16.2-15.3-17.5-11.8c-1.3,3.3,5.1,9.4,11.3,17.5s24.3,14.7,38.8,8.1
				c14.4-6.6,42.2,8.8,69.4,17.8c27.2,9,54.3,25.2,65.3-8s15.7-48.8,15.7-48.8l-35.8-38.8C1947.7,352.9,1946.1,423.8,1937.9,422.6z"
				/>
			
				<linearGradient id="SVGID_17_" gradientUnits="userSpaceOnUse" x1="1969.4767" y1="465.8301" x2="1978.0718" y2="513.0832" gradientTransform="matrix(1 0 0 -1 0 792)">
				<stop  offset="0" style="stop-color:#F56C66"/>
				<stop  offset="1" style="stop-color:#D15252"/>
			</linearGradient>
			<path class="st27" d="M2016.9,432.8c4-37.4,37.4-59.5,4.8-119.4c-32.7-59.9-37.4-64.8-37.4-64.8l-16.4,32.5
				c0,0,15.3,14.8,6.9,30.8s-52,38.8-54.3,72.8c-2.4,35.2,18,29,15.3,69.1c-2.7,40.1,5.2,83.4-37.4,97.1
				c-42.6,13.7-82.4,22.4-92.8,32.4s-13.2,27.9,20.2,110c33.4,82.1,56.7,117,55.7,127.4c-1,10.5-2.4,49.8-5.5,53.7
				c-9.8,12.8-1.5,34.8,15.9,16.5c17.5-18.5,56.3-56.3,23.9-75.2c-32.4-18.9-20.4-112.5-72.6-188.7c0,0,211.8,25.5,202.6-65.7
				C2039.3,497.4,2012.9,470.1,2016.9,432.8z"/>
			
				<linearGradient id="SVGID_18_" gradientUnits="userSpaceOnUse" x1="1988.3346" y1="537.6174" x2="1961.5836" y2="573.1262" gradientTransform="matrix(1 0 0 -1 0 792)">
				<stop  offset="0" style="stop-color:#F56C66"/>
				<stop  offset="1" style="stop-color:#D15252"/>
			</linearGradient>
			<path class="st28" d="M1958,171.4c0,0-27,12.8-24.5,45.1c0.4,4.8,0.6,9.8,0.8,14.7l1.1,23c1.4,19.2,4.7,34.5,16.6,35
				c15.6,0.7,55.4-8,62.6-36.1C2021.8,224.9,2027.4,173.3,1958,171.4z"/>
			<path class="st8" d="M1915.9,815.6c-1.5-0.9-3-2-4.3-3.2l0,0c0,0-18,56.4-26,60.2c-8,3.8-9.1,0.9-9.1,0.9l0,0
				c-0.1,0.3-0.3,0.5-0.4,0.7c-9.8,12.8-1.5,34.8,15.9,16.5C1909.4,872.3,1948.2,834.5,1915.9,815.6z"/>
			
				<linearGradient id="SVGID_19_" gradientUnits="userSpaceOnUse" x1="1897.5376" y1="384.875" x2="1949.4426" y2="384.875" gradientTransform="matrix(1 0 0 -1 0 792)">
				<stop  offset="0" style="stop-color:#F8FFFF"/>
				<stop  offset="1" style="stop-color:#D1DAE3"/>
			</linearGradient>
			<path class="st29" d="M1937.9,422.6c-1.6-0.2-5.4-0.9-10.8-1.8c-5.9-1.9-11.8-3.7-17.7-4.7c-2.2-0.4-3.9-0.1-5.3,0.6
				c-0.3,0-0.5-0.1-0.7-0.1c0,0.2,0,0.4,0,0.5c-3.3,2.1-5.2,6.4-7.2,10.3c-2.7,5.2-7.9,11.9-7.2,18.1c0.6,5.6,5.2,7.9,10.4,7.5
				c2.2-0.2,3.4-0.5,5.4,0.7c1.3,0.8,2.4,1.8,3.6,2.6c2.5,1.6,5.3,2.6,8.2,3.3c5.2,1.3,13.3,2.8,18.3,0.3c0.3-0.2,0.6-0.4,0.9-0.5
				c14,2.9,25.7,0.2,32-19c11-33.1,15.7-48.8,15.7-48.8l-35.8-38.8C1947.7,352.9,1946.1,423.8,1937.9,422.6z"/>
			
				<linearGradient id="SVGID_20_" gradientUnits="userSpaceOnUse" x1="1807.1304" y1="197.1266" x2="2000.9757" y2="197.1266" gradientTransform="matrix(1 0 0 -1 0 792)">
				<stop  offset="0" style="stop-color:#448CF2"/>
				<stop  offset="1" style="stop-color:#347CD1"/>
			</linearGradient>
			<path class="st30" d="M2036.7,515c-3.7-12.7-7.8-23.6-11.3-33.7h-61.9l-29,9.9c-1.4,26.7-6.8,50-36,59.4
				c-38,12.2-73.8,20.4-88.5,29.2c-1.2,0.3-2.3,0.7-3.3,1.4c-16.6,11.1-25,29.1-30.5,47.8c-2.4,8.2-4,16.6-6.1,25
				c-1.9,7.2-4.3,15.8-8.5,21.3c-3.9,4.8-4.7,11.5,0,16.2c1.5,1.5,3.6,2.5,6,3.1c33.6,22.3,75.4,14,111.3,2.6
				c5.5-1.7,10.2-8.1,8-14.1c-4.5-11.9-9.3-23.9-13.7-36c-1-2.7-2.7-7-1.4-8.7c1.9-2.4,8.1-1.8,11.7-1.4c12.5,1.4,24.9,3.5,37.4,4.6
				c12.9,1.1,26,1.7,39,1.6c21.6-0.1,46.8,0.5,66.5-9.8c21.3-11,26.1-34.6,23.9-56.6C2048,555.8,2043.5,535.1,2036.7,515z"/>
			
				<linearGradient id="SVGID_21_" gradientUnits="userSpaceOnUse" x1="1981.698" y1="374.7179" x2="1999.8195" y2="288.3857" gradientTransform="matrix(1 0 0 -1 0 792)">
				<stop  offset="0" style="stop-color:#F8FFFF"/>
				<stop  offset="1" style="stop-color:#D1DAE3"/>
			</linearGradient>
			<path class="st31" d="M2016.6,437.6c0-0.4,0-0.8,0-1.2l0,0c0.1-1.2,0.2-2.4,0.3-3.6c0.1-0.5,0.1-1.2,0.2-1.7c0.1-1,0.3-2,0.5-3
				c0-0.2,0.1-0.3,0.1-0.5l0,0c0.1-0.5,0.2-0.8,0.3-1.3c0-0.1,0.1-0.3,0.1-0.4l0,0c0-0.2,0.1-0.4,0.1-0.5l0,0c0-0.2,0.1-0.3,0.1-0.5
				c0.2-0.7,0.4-1.4,0.5-2.2c0-0.1,0-0.1,0-0.2l0,0c0.1-0.4,0.2-0.8,0.3-1.2c0-0.2,0.1-0.3,0.1-0.5l0,0c0.1-0.4,0.2-0.6,0.3-0.9
				c0.1-0.2,0.1-0.5,0.2-0.6l0,0c0.2-0.7,0.5-1.4,0.6-2.2c0.1-0.4,0.2-0.6,0.3-1l0,0c0-0.1,0-0.1,0.1-0.2l0,0
				c0.2-0.5,0.3-0.9,0.5-1.4l0,0c0-0.1,0-0.1,0.1-0.2c0.2-0.5,0.3-0.8,0.5-1.3c0.1-0.2,0.2-0.4,0.2-0.5c0.1-0.3,0.2-0.5,0.3-0.9
				c0.1-0.2,0.2-0.4,0.2-0.5c0.1-0.3,0.3-0.6,0.4-0.9c0.1-0.2,0.1-0.3,0.2-0.5c0.4-1,0.7-2,1.1-3l0,0c9.1-23.6,21.1-46.2,1-87.1l0,0
				c-0.7-1.4-1.4-3-2.3-4.4c-0.7-0.5-1.6-1-2.7-1.3c-9.9-2.4-19.6,0.5-28.4,5.3c-8.2,4.6-16,12-25.7,13.4c-3.9,0.5-7.7,0.2-11.6,0.4
				c-11.1,10-23.6,22-29.8,36.1l0,0c-0.4,0.7-0.6,1.5-1,2.3l0,0c-0.2,0.5-0.4,1-0.5,1.5v0.1c-0.2,0.5-0.4,1-0.5,1.4
				c0,0.1,0,0.2-0.1,0.2c-0.2,0.5-0.3,0.9-0.4,1.4c0,0.1-0.1,0.2-0.1,0.3c-0.1,0.5-0.2,0.8-0.4,1.3c0,0.1-0.1,0.3-0.1,0.4
				c-0.1,0.4-0.2,0.8-0.3,1.2c0,0.2-0.1,0.3-0.1,0.5c-0.1,0.4-0.2,0.8-0.2,1.2c0,0.2-0.1,0.4-0.1,0.5c-0.1,0.4-0.1,0.8-0.2,1.2
				c0,0.2,0,0.3-0.1,0.5c-0.1,0.5-0.1,1.1-0.2,1.6c0,0.2,0,0.3,0,0.5c-1.2,18.8,4.3,25.7,9,34.5c0,0.1,0.1,0.2,0.1,0.2
				c0.2,0.4,0.4,0.6,0.5,1c0.1,0.2,0.2,0.4,0.3,0.5c0.1,0.2,0.2,0.3,0.3,0.5c0.1,0.3,0.3,0.5,0.4,0.8c0.1,0.1,0.1,0.3,0.2,0.4
				c0.1,0.3,0.3,0.5,0.4,0.8c0.1,0.1,0.1,0.3,0.2,0.4c0.2,0.4,0.3,0.7,0.5,1.1c0,0.1,0,0.1,0.1,0.2c0.2,0.4,0.3,0.7,0.5,1.1
				c0,0.1,0.1,0.2,0.1,0.4c0.2,0.4,0.3,0.8,0.5,1.2l0,0c0.2,0.5,0.3,0.8,0.5,1.3c0,0.1,0.1,0.2,0.1,0.4c0.1,0.5,0.3,0.9,0.4,1.4l0,0
				l0,0l0,0l0,0v0.1c0.1,0.4,0.2,0.6,0.3,1l0,0c0.1,0.4,0.2,0.6,0.3,1l0,0c0.1,0.4,0.2,0.8,0.3,1.3l0,0c0,0.2,0.1,0.5,0.1,0.6
				c0.1,0.5,0.2,1.2,0.3,1.7l0,0c0.1,0.4,0.1,0.6,0.1,1c0,0,0,0,0,0.1c0,0.1,0,0.2,0,0.3l0,0c0,0.4,0.1,0.6,0.1,1c0,0,0,0,0,0.1
				c0,0.4,0.1,0.7,0.1,1.2c0,0.1,0,0.1,0,0.2l0,0c0,0.4,0.1,0.7,0.1,1.1c0,0.1,0,0.2,0,0.3l0,0c0,0.2,0,0.3,0,0.5l0,0c0,0,0,0,0,0.1
				c0.1,1,0.1,1.9,0.1,3l0,0c0,0.2,0,0.3,0,0.5c0,0.9,0,1.8,0,2.8l0,0c0,0.4,0,0.7,0,1.1c0,0.2,0,0.3,0,0.5c0,0.1,0,0.2,0,0.2l0,0
				c0,0.2,0,0.4,0,0.5c0,0.4,0,0.7-0.1,1.2v0.1c0,0.6-0.1,1.2-0.1,1.8c-0.1,1.6-0.2,3.2-0.3,4.8c0,0.1,0,0.3,0,0.4
				c-0.1,1.5-0.2,3.2-0.2,4.7c0,0.1,0,0.2,0,0.2c0,0.1,0,0.1,0,0.2c-0.1,1.5-0.1,3.1-0.1,4.6l0,0c0,0.1,0,0.3,0,0.4l0,0
				c0,1.4-0.1,2.8-0.1,4.3l0,0c-0.3,10.9-0.5,21.7-1.8,31.7c4.7,3.1,10.9,2.9,16.2,1.4c3.4-1.1,7-3.2,10.7-3.3
				c2.9-0.2,5.7,0.9,8.3,1.9c6,2.3,11.6,5.1,18.2,5.3c7.1,0.4,14.1-1.9,20.8-4c3.6-1.2,7.2-2.3,10.9-3.4c3-0.9,6.6-1.6,9.2-3.4
				c1.4-1,2.4-2.1,3-3.3c-4.4-12.8-8.8-24.2-11.5-35.2l0,0l0,0c-0.2-0.6-0.3-1.3-0.5-1.9l0,0c-0.1-0.5-0.2-1-0.4-1.5l0,0
				c-0.4-1.8-0.7-3.6-1-5.4l0,0c-0.1-0.5-0.2-1-0.2-1.5l0,0c-0.1-0.6-0.2-1.4-0.3-2l0,0c0-0.2,0-0.4-0.1-0.5
				C2016.5,444.5,2016.5,441.1,2016.6,437.6L2016.6,437.6z"/>
			<path class="st14" d="M2036.7,261.2c-0.1-0.9-0.1-1.8-0.2-2.7c-1.2-17.5-0.9-36.5-7.7-52.9c-6.4-15.6-19.4-26.1-35.1-31.6
				c-15.7-5.5-35.8-7.3-49.4,4c-1.4,0.5-2.7,1.8-3.2,3.8c-0.1,0.3-0.2,0.6-0.2,0.9c-3.2,4.8-5.6,10.2-6.1,15.8
				c-0.4,0.1-0.6,0.5-0.6,0.9c-0.3,6.3,0.5,13,4.5,18.1c4.7,6,12.3,7.8,19.3,9.2c11,2.4,20.9,7.3,27.6,15.4c0.1,0.1,0.1,0.2,0.2,0.2
				c7.2,11.1,7.4,25.4,7.8,38.3c0.3,11.1,0,24.7-8,33.4c-1.3,1.4-1.7,2.9-1.6,4.3c-0.1,2.4,1.2,4.8,4.3,5.6c0.5,0.2,1,0.3,1.4,0.4
				c0.3,0.1,0.5,0.1,0.8,0.2c7.8,4.9,17.5,6.5,26.5,3.7c7.7-2.4,14.1-7.9,16.6-15.2c0.3-0.4,0.5-0.8,0.8-1.2c1.9-3.1,3.1-6.5,3.6-10
				c4.3-4.8,5.8-11.8,5.2-18.5C2042.4,275.5,2039.2,268.4,2036.7,261.2z M1949.8,222.6c-6.2-2.3-10-6.4-11.9-11.7
				c3.3,5.1,9,8.2,14.7,10.7c3.5,1.4,7.1,2.9,10.7,4.3C1958.7,224.9,1954.1,224.2,1949.8,222.6z M2015,326.7
				c-6.5,1.6-13.4,0.9-19.4-1.7c2.3,0.1,4.5-0.1,6.8-0.3c4.4-0.4,9-0.4,13.3-1c4.6-0.7,9-2.5,12.7-5.3
				C2025.1,322.4,2020.3,325.3,2015,326.7z M2038.5,298c0.3-3.2,0.2-6.4,0-9.5c-0.4-6.7-0.8-13.3-1.3-20c0.5,1.5,1.1,3.1,1.6,4.7
				C2041.3,280.8,2042.6,290.9,2038.5,298z"/>
			
				<linearGradient id="SVGID_22_" gradientUnits="userSpaceOnUse" x1="1934.0747" y1="315.6791" x2="1907.3054" y2="341.7982" gradientTransform="matrix(1 0 0 -1 0 792)">
				<stop  offset="0" style="stop-color:#F56C66"/>
				<stop  offset="1" style="stop-color:#D15252"/>
			</linearGradient>
			<path class="st32" d="M1985.2,354.3c-33.3,12.5-63.7,113.1-70.1,114.2c-6.4,1.1-69,19.1-92.1,10.9c-23.1-8.1-44.1-8.2-56.2,3.9
				c-12.1,12.2-3.5,21,1.4,21.7c21.2,2.8,37.3-10.6,54-7.7c15.7,2.6,102.8,18,118.1,6.1c11.9-9.2,56.4-95.3,68.4-119
				c3-5.9,4.3-12.7,3.1-19.2C2010.2,356.1,2004.2,347,1985.2,354.3z"/>
			<path class="st13" d="M1985.2,354.3c-33.3,12.5-63.7,113.1-70.1,114.2c-1.6,0.3-7.1,1.7-14.7,3.5c-3.8-1.1-7.7-2.1-11.6-2.2
				c-4.2-0.2-7.3,1.4-11.2,2.2c-3.5,0.7-7-1.6-10.4,0.4c-2.4,1.4-3.6,4.2-4.1,7c-0.7,4.9-0.3,10.2-0.3,15.2c0,3.3-0.8,7.7,1.2,10.6
				c2.1,3,5.5,2.7,8.7,2.2c0.2,0,0.4-0.1,0.5-0.1c27.9,2.4,58.5,3.2,67.3-3.5c11.9-9.2,56.4-95.3,68.4-119c3-5.9,4.3-12.7,3.1-19.2
				C2010.2,356.1,2004.2,347,1985.2,354.3z"/>
			<path class="st8" d="M1826.2,385.6h-17.6H1791c-1.4,0-2.6,1.3-2.4,2.8l6.9,47.2c0.2,1.2,1.2,2.1,2.4,2.1h10.8h10.8
				c1.2,0,2.2-0.9,2.4-2.1l6.9-47.2C1828.9,386.9,1827.8,385.6,1826.2,385.6z"/>
			<path class="st13" d="M1811.9,299.6c-8.5-4.2-25.5-1.1-23.1,12.9c1.1,6.4,7.1,9.1,9.9,14.5c2,3.7,2.7,8.4,1.7,12.6
				c-0.9,3.9-3.3,7-4.9,10.5c-2.4,5.1-3.1,11.1,0.6,15.6c4.2,5,10.5,5.2,16.1,4.9c1.4,0,2.2-1.3,2.2-2.5c0-1.3-0.7-2.5-2.2-2.4
				c-4.9-0.1-15.2-4.6-8.6-11c2.7-2.7,6.7-3.8,9.7-6.2c4.9-4,8.8-9.5,10.8-16C1827.9,319.7,1823.1,305,1811.9,299.6z"/>
			<path class="st8" d="M1906.4,806.3c-0.5,0.4-1.1,0.7-1.5,1.3c-6,7.5-15.5,7.4-24.3,7.1c0.7,2.4,1.1,4.3,1,5.8
				c-0.2,1.9-0.4,4.7-0.6,8.1c12.2,0.3,25.6-0.9,33.8-11.2c0.5-0.6,0.8-1.2,1.2-1.9l0,0C1912.2,813.4,1909.1,810.3,1906.4,806.3z"/>
		</g>
	</g>
	<g>
		<path class="st33" d="M1982.9-250.7h-527.4c-2.6,0-4.8,2.2-4.8,4.8v1c0,2.6,2.2,4.8,4.8,4.8h527.4c2.6,0,4.8-2.2,4.8-4.8v-1
			C1987.6-248.5,1985.5-250.7,1982.9-250.7z"/>
		<rect x="1714.3" y="-245.5" class="st33" width="9.7" height="295.1"/>
		<ellipse class="st34" cx="1719.6" cy="34.4" rx="15.2" ry="15.2"/>
		<path class="st8" d="M1743.7-27.1c-1.4-4.7-5.2-7.9-9.2-7.9h-15.4h-15.4c-4.2,0-7.9,3.2-9.2,7.9l-15,49.6
			c-2.4,7.8,2.4,16.1,9.2,16.1h30.3h30.3c6.9,0,11.6-8.3,9.2-16.1L1743.7-27.1z"/>
		<g>
			<rect x="1517.2" y="-245.5" class="st33" width="9.7" height="185.7"/>
			<ellipse class="st34" cx="1522.6" cy="-43.2" rx="15.2" ry="15.2"/>
			<path class="st8" d="M1546.7-104.8c-1.4-4.7-5.2-7.9-9.2-7.9h-15.4h-15.4c-4.2,0-7.9,3.2-9.2,7.9l-15,49.5
				c-2.4,7.8,2.4,16.1,9.2,16.1h30.3h30.3c6.9,0,11.6-8.3,9.2-16.1L1546.7-104.8z"/>
		</g>
		<g>
			<rect x="1910.9" y="-245.5" class="st33" width="9.7" height="185.7"/>
			<path class="st34" d="M1915.2-58.4c-8.4,0-15.2,6.8-15.2,15.2s6.8,15.2,15.2,15.2s15.2-6.8,15.2-15.2
				C1930.4-51.6,1923.6-58.4,1915.2-58.4z"/>
			<path class="st8" d="M1940.4-104.8c-1.4-4.7-5.2-7.9-9.2-7.9h-15.4h-15.4c-4.2,0-7.9,3.2-9.2,7.9l-15,49.6
				c-2.4,7.8,2.4,16.1,9.2,16.1h30.3h30.3c6.9,0,11.6-8.3,9.2-16.1L1940.4-104.8z"/>
		</g>
	</g>
	<g>
		<path class="st21" d="M1697.5,82.4h-119.4c-11.2,0-20.4,9.1-20.4,20.4v51.1c0,11.2,9.1,20.4,20.4,20.4h119.4
			c11.2,0,20.4-9.1,20.4-20.4v-51.1C1717.9,91.6,1708.7,82.4,1697.5,82.4z"/>
		<polygon class="st21" points="1565.9,201 1624,174.2 1587.5,174.2 		"/>
		<g>
			<circle class="st35" cx="1614" cy="128.4" r="6.8"/>
			<ellipse class="st35" cx="1637.8" cy="128.4" rx="6.8" ry="6.8"/>
			<circle class="st35" cx="1661.4" cy="128.4" r="6.8"/>
		</g>
	</g>
	<g>
		<path class="st8" d="M1870.5,168.7h-111.6c-8.1,0-14.7,6.6-14.7,14.7v51.5c0,8.1,6.6,14.7,14.7,14.7h111.6
			c8.1,0,14.7-6.6,14.7-14.7v-51.5C1885.2,175.3,1878.6,168.7,1870.5,168.7z"/>
		<polygon class="st8" points="1826.8,249.6 1878,273.2 1858.9,249.6 		"/>
		<g>
			<path class="st35" d="M1835.5,203.2c-3.3,0-6,2.7-6,6c0,3.3,2.7,6,6,6c3.3,0,6-2.7,6-6C1841.5,205.9,1838.9,203.2,1835.5,203.2z"
				/>
			<circle class="st35" cx="1814.6" cy="209.2" r="6"/>
			<circle class="st35" cx="1793.8" cy="209.2" r="6"/>
		</g>
	</g>
</g>
</svg>
