<?xml version="1.0" encoding="utf-8"?>
<!-- Generator: Adobe Illustrator 19.0.0, SVG Export Plug-In . SVG Version: 6.00 Build 0)  -->
<svg version="1.1" id="Layer_1" xmlns="http://www.w3.org/2000/svg" xmlns:xlink="http://www.w3.org/1999/xlink" x="0px" y="0px"
	 viewBox="0 0 540.6 494.5" style="enable-background:new 0 0 540.6 494.5;" xml:space="preserve">
<style type="text/css">
	.st0{fill:#D1D3EC;}
	.st1{fill:#DBDCEE;}
	.st2{fill:#B4D7DC;}
	.st3{fill:#002AA3;}
	.st4{fill:#0090FF;}
	.st5{fill:#000D51;}
	.st6{fill:#005ED4;}
	.st7{fill:#014BB6;}
	.st8{fill:#FAB9AF;}
	.st9{fill:#FA968C;}
	.st10{fill:#008FFF;}
	.st11{fill:#000D52;}
</style>
<g id="XMLID_16_">
	<g id="XMLID_1_">
		<path id="XMLID_3_" class="st0" d="M203.2,188.7c0.9-20-3.8-39.8-13.5-57.3c-1.5-2.7-2.8-5.6-3.8-8.6c-10.1-29.4,3.7-67,34.9-91.6
			c-15.8-2.9-31.3-7.1-46.6-12.6C145,8.2,107.4,6,88,12.7C33.6,31.4,5.7,84.2,19,122.8c1,3,2.3,5.9,3.8,8.6
			c9.7,17.5,14.5,37.3,13.5,57.3c-4.3,91,103.5,170,240.9,176.5c35.5,1.7,69.6-1.7,100.6-9.1C273.7,331.8,199.6,264.4,203.2,188.7z"
			/>
		<path id="XMLID_6_" class="st1" d="M533.7,212.2c4.3-91-30.5-192.5-240.9-176.5c-1.5,0.1-5.2,0.2-10.4,0.3
			c-20.8,0.5-41.4-1.1-61.7-4.8c-31.2,24.5-45,62.1-34.9,91.6c1,3,2.3,5.9,3.8,8.6c9.7,17.5,14.5,37.3,13.5,57.3
			c-3.6,75.7,70.5,143.1,174.6,167.3C466.6,334.7,530.5,279.6,533.7,212.2z"/>
	</g>
	<g id="XMLID_18_">
		<circle id="XMLID_317_" class="st2" cx="275.5" cy="81.6" r="6"/>
		<g id="XMLID_19_">
			<path id="XMLID_23_" class="st3" d="M275.5,157.3L230.1,112l36.5-36.5c4.9-4.9,12.8-4.9,17.7,0l36.5,36.5L275.5,157.3z
				 M234.9,112l40.5,40.5L316,112l-34.1-34.1c-3.5-3.5-9.3-3.5-12.8,0L234.9,112z"/>
		</g>
		<path id="XMLID_43_" class="st4" d="M357.6,300.5H193.3c-2.8,0-5.1-2.3-5.1-5.1V110.5c0-2.8,2.3-5.1,5.1-5.1h164.2
			c2.8,0,5.1,2.3,5.1,5.1v184.9C362.7,298.2,360.4,300.5,357.6,300.5z"/>
		<rect id="XMLID_245_" x="197.2" y="120.9" class="st4" width="156.5" height="164.2"/>
		<circle id="XMLID_309_" class="st5" cx="275.5" cy="77.2" r="6"/>
		<rect id="XMLID_308_" x="212.1" y="203.8" class="st6" width="24.2" height="62.6"/>
		<rect id="XMLID_307_" x="246.3" y="186.4" class="st7" width="24.2" height="80"/>
		<rect id="XMLID_306_" x="280.4" y="177.4" class="st3" width="24.2" height="89"/>
		<rect id="XMLID_42_" x="314.6" y="166.1" class="st5" width="24.2" height="100.3"/>
		<g id="XMLID_26_">
			<g id="XMLID_37_">
				<path id="XMLID_38_" class="st3" d="M315.3,154.1c-0.4,0-0.8-0.1-1.2-0.3c-1.3-0.7-1.7-2.2-1.1-3.4l4.8-9.2l-9.2-4.8
					c-1.3-0.7-1.7-2.2-1.1-3.4s2.2-1.7,3.4-1.1l11.5,6c0.6,0.3,1.1,0.9,1.3,1.5c0.2,0.6,0.1,1.3-0.2,2l-6,11.5
					C317.1,153.6,316.2,154.1,315.3,154.1z"/>
			</g>
			<g id="XMLID_39_">
				<path id="XMLID_40_" class="st3" d="M224.2,173.4c-1.1,0-2.1-0.7-2.4-1.8c-0.4-1.3,0.3-2.8,1.7-3.2l97.1-30.8
					c1.4-0.4,2.8,0.3,3.2,1.7c0.4,1.3-0.3,2.8-1.7,3.2L225,173.3C224.7,173.4,224.4,173.4,224.2,173.4z"/>
			</g>
		</g>
	</g>
	<g id="XMLID_53_">
		<path id="XMLID_268_" class="st5" d="M432.4,156.6c0.4,0.1,0.7,0.4,0.7,0.8c0.1,1.6,0.6,3.1,1.7,4.5c1.5,1.8,3.6,2.7,5.7,2.7
			c1.3,0,2.4,0.8,3,1.9c0.5,0.9,1.1,1.6,2.1,2.3c1.9,1.3,4.5,1.5,6.6,0.4c0.8-0.4,1.5-1,2.1-1.7c1.1-1.3,2.6-2.2,4.3-2.1
			c1.6,0.1,3.2-0.4,4.5-1.5c1.6-1.3,2.4-3.4,2.3-5.5c0-1.9-0.6-3.2-1.3-4.1c-0.7-0.9-1.2-2.1-1-3.2c0.2-1.4-0.2-2.9-1.2-4.1
			c-0.6-0.8-1.4-1.3-2.3-1.6c-1.8-0.6-2.7-2.6-2.2-4.4c0.2-0.8,0.4-1.5,0.5-2.3c1-7.1-5.9-13.9-5.9-13.9l0,0
			c-1.9,0.9-4.1,0.4-5.4-1.2l-2.6-3.2c-0.3-0.3-0.7-0.4-1.1-0.1c-0.3,0.3-0.4,0.7-0.1,1l1.6,2.2c1.8,2.3,1.7,5.5,0.1,8
			c-1,1.5-1.8,3.2-2.1,5c-0.3,1.8-0.3,3.5-0.1,5.1c0.3,2.4-1.2,5-3.5,5.6c-2.9,0.9-6,0.3-8.5-0.6c-2.1-0.8-3.9-2.1-5.4-3.8l-3.4-4.2
			c-0.3-0.3-0.7-0.4-1.1-0.1c-0.3,0.3-0.4,0.7-0.1,1.1l1.7,2.1c0.6,0.7,0.9,1.6,0.9,2.6C423.2,148.5,426.3,155.4,432.4,156.6z"/>
		<path id="XMLID_54_" class="st8" d="M441.9,434.6L431,360.7c0,0,36.7-69.4,33.6-83.9c-3.1-14.5-16.4-20.9-23.4-20.9
			c-7,0-14.6,7.4-16.1,13.2c0,0-20.3,75.8-17.8,91.7c2.2,13.5,23.5,71.8,29.8,88.8c0.4,1.2,0.7,2.4,0.7,3.7v0c0,1.8-0.4,3.6-1.2,5.3
			l-2.9,5.9c-1.9,3.8-5,6.8-8.8,8.7c-0.7,0.3-1.3,0.7-1.9,1c-1.7,1-1,3.6,1,3.6h7c2.9,0,5.6-1.7,6.7-4.4c1.3-3.4,3.9-6.2,7.2-7.9
			l2.3-1.1c3.3-2.5,4.4-7,2.5-10.7l0,0C445.5,448,442.9,441.5,441.9,434.6z"/>
		<path id="XMLID_57_" class="st8" d="M462.9,463l-1.7-9.9c-0.7-4.1-0.9-8.2-0.5-12.3c6.4-80.7,13.2-144.6,12.4-162.9
			c-0.2-5-1.2-9.9-3.1-14.5c-9.9-23.2-28.2-16.8-30.1,26.7c-1,24.5,2,66,5.2,101.1c2.5,27.1,5.8,50.4,7.2,59.2
			c0.4,2.5,0.4,5.1,0.2,7.6l0,0l-1.5,9.3c-0.2,1.4-0.9,3.8-1.2,4.9c-0.1,0.3-0.1,0.7-0.1,1v0.5c0,2.1,1.7,3.9,3.9,3.9h0.9h8.6h0.1
			c1.5,0,3-0.8,3.6-2.1c0.6-1.2,0.6-2.6-0.1-3.8C464.9,469.1,463.5,466.2,462.9,463z"/>
		<path id="XMLID_58_" class="st3" d="M476.5,351.5c-0.7,5.3-5.1,9.2-10.5,9.2h-54.4c-6.5,0-11.4-5.8-10.4-12.2l15.7-101.8
			c0,0,35.8-10.1,43.1-2.1C483.7,270.9,479.3,328.9,476.5,351.5z"/>
		<path id="XMLID_59_" class="st5" d="M459.9,244.7c-7.3-8-43.1,2.1-43.1,2.1l-2.2,14.2c64.1,0.2,46,82.3,36.3,99.8H466
			c5.3,0,9.8-4,10.5-9.2C479.3,328.9,483.7,270.9,459.9,244.7z"/>
		<ellipse id="XMLID_257_" class="st3" cx="437.6" cy="137.8" rx="20" ry="17.5"/>
		<path id="XMLID_60_" class="st6" d="M444.7,252.7l-12.6,0.4c-8.5,0.3-16-1.6-16.9-10.1l-12.1-62.4c-0.2-4.5,3.4-8.9,7.4-11
			c0,0,35.1-6.5,48.8,1.2l1.1,0.4c3.7,2.1,6.5,6.3,6.5,10.5l-6.5,60.6C459.6,250.5,453,252.4,444.7,252.7z"/>
		<path id="XMLID_61_" class="st7" d="M464.6,175.1c-0.5,0.9-1,1.7-1.6,2.5c-4.3,6.1-6.8,13.4-7,21c-0.1,6.6,0.5,13.5-1.5,17.8
			c-2.4,5.3-11.3,5.3-15.6,1.5c0,0-0.1-0.1-0.1-0.1c-2.5-2.3-6.3-2.7-8.9-0.4c-2.3,2-5.4,3.2-9.3,3.2c-4.8,0-8.3-1.9-10.7-4.6
			l5.3,27.1c0.9,8.5,8.3,10.4,16.9,10.1l12.6-0.4c8.3-0.2,14.9-2.1,15.6-10.4l6.5-60.6C466.9,179.4,466,177.1,464.6,175.1z"/>
		<path id="XMLID_254_" class="st6" d="M420.9,189.4c-3.5,11-23.9,53.7-30.3,51.7c-6.4-2,5-44.4,8.5-55.4c3.5-11,9.3-18.2,15.7-16.2
			C421.2,171.5,424.4,178.4,420.9,189.4z"/>
		<path id="XMLID_253_" class="st6" d="M447.4,189.5c2,11.4,17.6,55.5,24.3,54.3c6.6-1.1-0.2-43.7-2.2-55
			c-2-11.4-6.7-19.3-13.3-18.2C449.5,171.8,445.4,178.2,447.4,189.5z"/>
		<path id="XMLID_252_" class="st9" d="M464.5,231.6c-7.4-1.4-54.4-8.1-55.2-4c-0.8,4.1,44.9,17.3,52.3,18.8
			c7.4,1.4,11.5-1.3,12.3-5.4C474.8,237,471.9,233.1,464.5,231.6z"/>
		<path id="XMLID_62_" class="st8" d="M445,150h-16.5c0.9,2.3,1.2,4.8,0.8,7.3l-1.6,8.5c-1,7.8,2.2,11.8,6.7,13.1
			c2.2,0.6,4.8-0.2,6.6-1.9c2.2-2,2.2-5.9,1.6-9.1l-0.6-2.3C441.1,162.4,445,150,445,150z"/>
		<path id="XMLID_63_" class="st9" d="M445,150h-16.5c0.9,2.3,1.2,4.8,0.8,7.3l-0.6,3.1c1.9,2.3,4,4.1,5.6,5.3
			c1.9,1.4,4.4,1.4,6.3-0.2c0.4-0.3,0.8-0.7,1.3-1.1C441.8,160.2,445,150,445,150z"/>
		<path id="XMLID_249_" class="st9" d="M425.7,138.9c0.2,2.6,0.3,5.8-2,6c-2.3,0.1-4.8-4.4-5-7c-0.2-2.6,1.3-3.3,3.5-3.4
			C424.6,134.2,425.6,136.3,425.7,138.9z"/>
		<path id="XMLID_248_" class="st9" d="M448.7,138.9c-0.2,2.6-0.3,5.8,2,6c2.3,0.1,4.8-4.4,5-7c0.2-2.6-1.3-3.3-3.5-3.4
			C449.9,134.2,448.9,136.3,448.7,138.9z"/>
		<path id="XMLID_64_" class="st8" d="M452.4,138.9c0,11.4-7.5,19.2-11.9,22.7c-1.9,1.5-4.3,1.6-6.3,0.2c-4.4-3.3-12-10.7-12-22.7
			c0-13.3,7.3-18.8,15.2-18.8C445.4,120.3,452.4,125.5,452.4,138.9z"/>
		<path id="XMLID_246_" class="st9" d="M439.8,147.6c0.2,1.5-1.1,2.8-2.7,2.7l0,0c-1.3-0.1-2.2-1.2-2.2-2.5l1.1-10.2
			c0-0.4,0.2-0.7,0.5-1c0.3-0.2,0.7-0.4,1.1-0.3c0.5,0.1,1,0.5,1,1L439.8,147.6z"/>
		<path id="XMLID_65_" class="st5" d="M454.5,120.8C454.5,120.8,454.5,120.8,454.5,120.8c1.4-1.8-2.3-7.7-8.7-6.1c0,0,0,0-0.1,0
			c-2.3,0.6-4.7,0.4-6.9-0.5c-1.5-0.6-3.7-1.1-6.6-0.8c-5.2,0.5-7.1,4.6-7.1,4.6c-0.6,0.5-1.3,1-1.9,1.5c-5.3,4.8-4.4,14.5-4.4,14.5
			l0,0c2,0.4,3.4,2.1,3.4,4.2v4.3c0,0.4,0.3,0.8,0.8,0.8c0.4,0,0.7-0.3,0.8-0.7l0.1-2.7c0.1-2.9,2.2-5.4,5-6.2
			c1.7-0.5,3.4-1.3,4.8-2.5c1.3-1.2,2.5-2.5,3.3-3.9c1.3-2,4.1-3,6.3-2.1c2.8,1.2,4.8,3.5,6.2,5.9c1.1,1.9,1.7,4.1,1.7,6.4v5.4
			c0,0.4,0.3,0.8,0.8,0.8c0.4,0,0.8-0.3,0.8-0.8v-2.7c0-0.9,0.3-1.8,0.9-2.5c2.8-3.6,4.8-10.9,0.8-15.8
			C454.2,121.5,454.2,121.1,454.5,120.8z"/>
		<path id="XMLID_68_" class="st8" d="M458.4,230.6c0,0-1.2-4.2-3.2-6.4c-1.3-1.5-6.9-0.2-10.1,0.7c-1.6,0.5-3.3,0.7-5,0.6
			c-12.3-0.6-35.9-0.3-41.4,0.8c-7.4,1.4-11,7.3-10.1,11.3c1.4,6.5,5.3,8,12.7,6.6c5.3-1,27-7.9,38.8-13.3c3.1-1.4,6.5-1.9,9.9-1.4
			L458.4,230.6z"/>
	</g>
	<g id="XMLID_69_">
		<g id="XMLID_70_">
			<circle id="XMLID_240_" class="st5" cx="350" cy="339" r="25"/>
			<path id="XMLID_71_" class="st3" d="M350,314.1c-13.8,0-25,11.2-25,25h25V314.1z"/>
			<circle id="XMLID_238_" class="st10" cx="350" cy="339" r="18.1"/>
			<g id="XMLID_72_">
				<path id="XMLID_73_" class="st3" d="M355.5,331.9c-0.6,0.6-1.5,0.8-2.2,0.3c-0.9-0.6-1.7-0.9-2.7-0.9c-1.7,0-2.6,0.7-2.6,2.3
					c0,3.4,9.4,3.1,9.4,9.9c0,3-1.5,5.4-4.4,6.5c-0.7,0.2-1.2,0.9-1.2,1.6v0.7c0,1-0.8,1.7-1.7,1.7l0,0c-1,0-1.7-0.8-1.7-1.7v-0.4
					c0-0.8-0.6-1.5-1.4-1.7c-1.2-0.3-2.4-0.7-3.4-1.4c-0.8-0.5-1.1-1.6-0.6-2.4l0.4-0.7c0.5-0.8,1.5-1,2.3-0.6
					c1.3,0.8,2.5,1.2,3.7,1.2c2,0,2.9-0.8,2.9-2.4c0-3.7-9.4-3.6-9.4-10c0-3.1,1.6-5.3,4.2-6.2c0.7-0.3,1.2-0.9,1.2-1.6v-0.6
					c0-1,0.8-1.7,1.7-1.7l0,0c1,0,1.7,0.8,1.7,1.7v0.5c0,0.8,0.5,1.4,1.3,1.7c1,0.3,1.9,0.8,2.7,1.4c0.8,0.6,0.9,1.7,0.2,2.5
					L355.5,331.9z"/>
			</g>
		</g>
		<path id="XMLID_233_" class="st10" d="M344.6,369.5c5.5,5.5,4.2,15.7,4.2,15.7s-10.2,1.3-15.7-4.2c-5.5-5.5-4.2-15.7-4.2-15.7
			S339.1,364,344.6,369.5z"/>
		<path id="XMLID_232_" class="st10" d="M356.1,369.5c-5.5,5.5-4.2,15.7-4.2,15.7s10.2,1.3,15.7-4.2c5.5-5.5,4.2-15.7,4.2-15.7
			S361.6,364,356.1,369.5z"/>
		<path id="XMLID_231_" class="st3" d="M343.8,392.5c6.3,6.3,4.8,17.9,4.8,17.9s-11.6,1.4-17.9-4.8s-4.8-17.9-4.8-17.9
			S337.5,386.2,343.8,392.5z"/>
		<path id="XMLID_230_" class="st3" d="M356.9,392.5c-6.3,6.3-4.8,17.9-4.8,17.9s11.6,1.4,17.9-4.8c6.3-6.3,4.8-17.9,4.8-17.9
			S363.2,386.2,356.9,392.5z"/>
		<path id="XMLID_229_" class="st5" d="M343.8,416.5c7,7,5.4,20.1,5.4,20.1s-13,1.6-20.1-5.4c-7-7-5.4-20.1-5.4-20.1
			S336.8,409.5,343.8,416.5z"/>
		<path id="XMLID_228_" class="st5" d="M358.4,416.5c-7,7-5.4,20.1-5.4,20.1s13,1.6,20.1-5.4c7-7,5.4-20.1,5.4-20.1
			S365.5,409.5,358.4,416.5z"/>
		<path id="XMLID_75_" class="st3" d="M358.8,477.7h-18c-2.9,0-5.3-2.1-5.8-4.9l-4.7-28h38.8l-4.7,28
			C364.1,475.6,361.6,477.7,358.8,477.7z"/>
		<path id="XMLID_76_" class="st11" d="M344,444.8c9.2,8.5,8.4,25.9-2.4,32.9h17.1c2.9,0,5.3-2.1,5.8-4.9l4.7-28H344z"/>
		<path id="XMLID_225_" class="st10" d="M368.7,453.3h-37.7c-2.4,0-4.3-1.9-4.3-4.3l0,0c0-2.4,1.9-4.3,4.3-4.3h37.7
			c2.4,0,4.3,1.9,4.3,4.3l0,0C372.9,451.4,371,453.3,368.7,453.3z"/>
		<g id="XMLID_77_">
			<circle id="XMLID_224_" class="st5" cx="282.3" cy="366.5" r="25"/>
			<path id="XMLID_78_" class="st3" d="M282.3,341.5c-13.8,0-25,11.2-25,25h25V341.5z"/>
			<circle id="XMLID_222_" class="st10" cx="282.3" cy="366.5" r="18.1"/>
			<g id="XMLID_79_">
				<path id="XMLID_80_" class="st3" d="M287.8,359.3c-0.6,0.6-1.5,0.8-2.2,0.3c-0.9-0.6-1.7-0.9-2.7-0.9c-1.7,0-2.6,0.7-2.6,2.3
					c0,3.4,9.4,3.1,9.4,9.9c0,3-1.5,5.4-4.4,6.5c-0.7,0.2-1.2,0.9-1.2,1.6v0.7c0,1-0.8,1.7-1.7,1.7l0,0c-1,0-1.7-0.8-1.7-1.7v-0.4
					c0-0.8-0.6-1.5-1.4-1.7c-1.2-0.3-2.4-0.7-3.4-1.4c-0.8-0.5-1.1-1.6-0.6-2.4l0.4-0.7c0.5-0.8,1.5-1,2.3-0.6
					c1.3,0.8,2.5,1.2,3.7,1.2c2,0,2.9-0.8,2.9-2.4c0-3.7-9.4-3.6-9.4-10c0-3.1,1.6-5.3,4.2-6.2c0.7-0.3,1.2-0.9,1.2-1.6v-0.6
					c0-1,0.8-1.7,1.7-1.7l0,0c1,0,1.7,0.8,1.7,1.7v0.5c0,0.8,0.5,1.4,1.3,1.7c1,0.3,1.9,0.8,2.7,1.4c0.8,0.6,0.9,1.7,0.2,2.5
					L287.8,359.3z"/>
			</g>
		</g>
		<path id="XMLID_217_" class="st3" d="M277,397c5.5,5.5,4.2,15.7,4.2,15.7s-10.2,1.3-15.7-4.2c-5.5-5.5-4.2-15.7-4.2-15.7
			S271.5,391.4,277,397z"/>
		<path id="XMLID_216_" class="st3" d="M288.4,397c-5.5,5.5-4.2,15.7-4.2,15.7s10.2,1.3,15.7-4.2c5.5-5.5,4.2-15.7,4.2-15.7
			S293.9,391.4,288.4,397z"/>
		<path id="XMLID_215_" class="st5" d="M276.2,419.9c6.3,6.3,4.8,17.9,4.8,17.9s-11.6,1.4-17.9-4.8c-6.3-6.3-4.8-17.9-4.8-17.9
			S269.9,413.6,276.2,419.9z"/>
		<path id="XMLID_214_" class="st5" d="M290,419.1c-6.3,6.3-4.8,17.9-4.8,17.9s11.6,1.4,17.9-4.8s4.8-17.9,4.8-17.9
			S296.3,412.8,290,419.1z"/>
		<path id="XMLID_82_" class="st3" d="M291.1,477.7h-18c-2.9,0-5.3-2.1-5.8-4.9l-4.7-28h38.8l-4.7,28
			C296.4,475.6,294,477.7,291.1,477.7z"/>
		<path id="XMLID_83_" class="st11" d="M276.4,444.8c9.2,8.5,8.4,25.9-2.4,32.9h17.1c2.9,0,5.3-2.1,5.8-4.9l4.7-28H276.4z"/>
		<path id="XMLID_211_" class="st10" d="M301,453.3h-37.7c-2.4,0-4.3-1.9-4.3-4.3l0,0c0-2.4,1.9-4.3,4.3-4.3H301
			c2.4,0,4.3,1.9,4.3,4.3l0,0C305.3,451.4,303.4,453.3,301,453.3z"/>
		<g id="XMLID_84_">
			<circle id="XMLID_210_" class="st5" cx="216.5" cy="390.2" r="25"/>
			<path id="XMLID_85_" class="st3" d="M216.5,365.2c-13.8,0-25,11.2-25,25h25V365.2z"/>
			<circle id="XMLID_208_" class="st10" cx="216.5" cy="390.2" r="18.1"/>
			<g id="XMLID_86_">
				<path id="XMLID_87_" class="st3" d="M222,383.1c-0.6,0.6-1.5,0.8-2.2,0.3c-0.9-0.6-1.7-0.9-2.7-0.9c-1.7,0-2.6,0.7-2.6,2.3
					c0,3.4,9.4,3.1,9.4,9.9c0,3-1.5,5.4-4.4,6.5c-0.7,0.2-1.2,0.9-1.2,1.6v0.7c0,1-0.8,1.7-1.7,1.7l0,0c-1,0-1.7-0.8-1.7-1.7V403
					c0-0.8-0.6-1.5-1.4-1.7c-1.2-0.3-2.4-0.7-3.4-1.4c-0.8-0.5-1.1-1.6-0.6-2.4l0.4-0.7c0.5-0.8,1.5-1,2.3-0.6
					c1.3,0.8,2.5,1.2,3.7,1.2c2,0,2.9-0.8,2.9-2.4c0-3.7-9.4-3.6-9.4-10c0-3.1,1.6-5.3,4.2-6.2c0.7-0.3,1.2-0.9,1.2-1.6v-0.6
					c0-1,0.8-1.7,1.7-1.7l0,0c1,0,1.7,0.8,1.7,1.7v0.5c0,0.8,0.5,1.4,1.3,1.7c1,0.3,1.9,0.8,2.7,1.4c0.8,0.6,0.9,1.7,0.2,2.5
					L222,383.1z"/>
			</g>
		</g>
		<path id="XMLID_203_" class="st5" d="M211.2,420.7c5.5,5.5,4.2,15.7,4.2,15.7s-10.2,1.3-15.7-4.2c-5.5-5.5-4.2-15.7-4.2-15.7
			S205.7,415.2,211.2,420.7z"/>
		<path id="XMLID_202_" class="st5" d="M222.6,420.7c-5.5,5.5-4.2,15.7-4.2,15.7s10.2,1.3,15.7-4.2c5.5-5.5,4.2-15.7,4.2-15.7
			S228.1,415.2,222.6,420.7z"/>
		<path id="XMLID_89_" class="st3" d="M225.3,477.7h-18c-2.9,0-5.3-2.1-5.8-4.9l-4.7-28h38.8l-4.7,28
			C230.6,475.6,228.2,477.7,225.3,477.7z"/>
		<path id="XMLID_90_" class="st11" d="M210.6,444.8c9.2,8.5,8.4,25.9-2.4,32.9h17.1c2.9,0,5.3-2.1,5.8-4.9l4.7-28H210.6z"/>
		<path id="XMLID_199_" class="st10" d="M235.2,453.3h-37.7c-2.4,0-4.3-1.9-4.3-4.3l0,0c0-2.4,1.9-4.3,4.3-4.3h37.7
			c2.4,0,4.3,1.9,4.3,4.3l0,0C239.5,451.4,237.5,453.3,235.2,453.3z"/>
	</g>
	<g id="XMLID_91_">
		<path id="XMLID_193_" class="st5" d="M295.4,327.6c0.3-0.5,0.2-1.2-0.3-1.5l-1.3-0.9c-2.9,0.6-5.9,0.6-8.8,0.1l-27.4-4.9
			c-2.7-0.5-4-3.5-2.4-5.8c0.8-1.1,1.5-2.2,2.2-3.3c0.8-1.2,0.5-2.8-0.7-3.6l-28.7-19.4c-1.2-0.8-2.8-0.5-3.6,0.7l0,0
			c-1,1.4-2.8,1.9-4.3,1.2c-8-3.7-17.8-1.2-22.9,6.4c-5.1,7.6-3.8,17.6,2.6,23.6c1.2,1.2,1.4,3.1,0.5,4.5l0,0
			c-0.4,0.6-0.5,1.3-0.4,1.9c0.1,0.7,0.5,1.3,1.1,1.6l28.7,19.4c1.2,0.8,2.8,0.5,3.6-0.7l4.3-6.3c2.5-3.7,6.5-5.9,10.9-6.2l32.7-1.7
			c2-0.1,4.5,1.2,5.6,2.8c1.2,0.8,2.9,0.5,3.7-0.7L295.4,327.6z M201.7,299.7c3.3-4.9,9.5-6.8,14.9-4.9c0.7,0.3,1.3,0.9,1.6,1.6
			s0.1,1.6-0.3,2.2c-3.5,5.2-7.6,11.2-11.1,16.4c-0.4,0.7-1.2,1.1-2,1.1c-0.8,0.1-1.6-0.3-2.1-0.9
			C199,311.1,198.4,304.6,201.7,299.7z"/>
		<path id="XMLID_92_" class="st8" d="M196.8,287.7c0.4,0.1,0.8,0.2,1.2,0.1l6-1.3c2.3-0.5,4.7,0.2,6.4,1.9c2.7,2.7,6.2,6.7,4.8,8.1
			c-1.4,1.4-5.8-2.4-7.9-4.4c-0.7-0.7-1.8-0.8-2.6-0.4l-1.6,0.6c-2.8,1.4-5.3,3.5-6.9,6.2l-0.9,2l-8.1-7.4c-0.8-0.8-1-2-0.4-3
			l2.2-3.2c0.6-0.9,1.7-1.2,2.7-0.9L196.8,287.7z"/>
		<path id="XMLID_93_" class="st8" d="M208.7,292c-0.5,0-1.5,0-2.7,1.1c-0.3,0.2-0.4,0.5-0.5,0.8c-0.3,0.7-0.9,1.2-1.6,1.5
			c-0.6,0.2-1.3,0.5-1.8,1c-0.8,0.7-1.7,1.9-2,3.1c-0.2,1-0.7,1.8-1.3,2.6c-0.4,0.4-0.6,1-0.6,1.7c0,1.4,1.2,2.6,2.6,2.6
			c1,0,1.9-0.6,2.3-1.5c0.2-0.5,0.6-0.8,1-1c0.1,0,0.1-0.1,0.2-0.1c0.7-0.4,1.1-1,1.2-1.5c0.2-0.7,0.7-1.2,1.4-1.3
			c0.6-0.1,1.4-0.4,2-1.1c0.4-0.5,0.6-0.9,0.7-1.2c0.2-0.7,0.7-1.2,1.4-1.3c0.6-0.2,1.3-0.5,1.6-1.3
			C213.3,294.2,210.4,292,208.7,292z"/>
		<path id="XMLID_96_" class="st8" d="M119.7,191.5c-1.3-3.2-3.8-12.7-2.6-14.9c0,0,11.5,1.4,16.4,10.1c5.3,9.7,13.5,43.4,17,58.2
			c1.1,4.6,3.6,8.7,7.2,11.7l35.4,29.2c-0.3,3.6-2,6.7-4.9,9.4L141.1,268C130.9,263.7,123.7,201.6,119.7,191.5z"/>
		<path id="XMLID_97_" class="st10" d="M129.4,234.4c6.5-0.1,12.6-2.8,17.4-10.9c-3.9-14.9-8.8-30.7-11.9-37.1
			c-5.2-10.6-18-9.8-18-9.8c-1.3,2.3,2.4,11.4,3.7,14.8C122.5,196.7,125.5,216.1,129.4,234.4z"/>
		<path id="XMLID_98_" class="st3" d="M129.4,234.4c4.5,0.1,7.1-1.4,7.1-1.4c-4-12.1-7.6-42.6-8.3-46.9c-2.1-11.6-11.4-8-11.4-8
			c-1.3,2.3,2.4,9.9,3.8,13.3C122.5,196.7,125.5,216.1,129.4,234.4z"/>
		<path id="XMLID_187_" class="st8" d="M132.1,284.8l-5.1-99.8c-0.6-4.2-3.9-7.5-8.1-8.1l-33.7-4.6L63.9,283.3L132.1,284.8z"/>
		<path id="XMLID_99_" class="st8" d="M104.6,448.8l0,12c0,2.4-0.3,4.9-1,7.2l-1,3.7c-0.9,3,1.4,6,4.6,6c8.2,0,22.1,0,25.7,0
			c0.6,0,1.2-0.4,1.2-1c0.3-3.5-9.8-5.8-17.4-8.8c-5.8-2.2-5.5-12.7-4.8-18.7c0.3-2.3-1.6-4.3-4-4.1l0,0
			C106.1,445.3,104.6,446.9,104.6,448.8z"/>
		<path id="XMLID_185_" class="st8" d="M53.4,445.4l-4.1,13.7c-0.2,0.6-0.5,1.2-0.8,1.7l-2.9,4.3c-1.9,2.8-0.5,6.5,2.7,7.5
			c0,0,5.9,2.1,12,4.1c6.2,2,14.1,0.3,14.1-1.3c0-3.6-3.4-0.8-9.1-4.6c-1.9-1.3-3.9-2.6-5.6-4c-4.9-3.9-0.6-13.6,2.4-19.1
			c1.1-2-0.1-4.4-2.3-4.9l-1.4-0.3C56.1,442.2,54,443.4,53.4,445.4z"/>
		<path id="XMLID_100_" class="st3" d="M90.7,285.1l38.9-0.8c0,0,9,47.4-2.4,106.9c-5.4,27.9-14.6,63.9-14.6,63.9
			c-2.8,1.2-5.6,1.5-8.4,0.8c0,0-0.8-23.5-1.4-48.9c-0.5-24.3-0.6-50.3-2.2-58.8C97.4,330.9,90.7,285.1,90.7,285.1z"/>
		<path id="XMLID_101_" class="st5" d="M105.9,347.6c10.6-26.8,3.2-67.8,3.2-67.8L90.9,277c0,0,6.7,45.7,9.8,63.1
			C101.7,345.7,100.6,361,105.9,347.6z"/>
		<path id="XMLID_102_" class="st3" d="M96.8,286.4c4.7,25.1,7.4,80.4,0,99.2c-14.8,37.7-38.1,69.6-38.1,69.6
			c-2.7,0.1-5.2-0.9-7.5-2.6c0,0,3.5-16,8.6-34.6c5.8-21.3,13.2-46.4,11.1-59.5c-3.9-24.5-8.5-57.1-7.1-73
			C65.3,269.8,94.4,273.2,96.8,286.4z"/>
		<path id="XMLID_181_" class="st10" d="M109,303c11.4,0,18.4-1.6,22.6-3.1c3.2-1.2,5.2-4.5,4.9-7.9l-8.9-110.2
			c-0.4-2.4-3.3-4.2-5.6-4.5l-36.6-5.5L63.7,280.7c-0.9,4.4,1.1,8.9,5,11.1C76.6,296.3,91.2,303,109,303z"/>
		<path id="XMLID_103_" class="st8" d="M61.8,321.5c-0.6-2.7-1-5.4-1.3-6.5c-0.1-0.4-0.9-1.5-1.1-1.8c-0.6-0.9-1.6-2.3-1.6-3.3
			l-0.1-4.6c0-2.2-1.1-3.9-3.3-3.9l0,0c-2.4,0-3.5,2-3.2,4.4v3.2c0.2,1.9-0.4,3.7-1,5.6c-1.1,3.7-0.2,8.1,0.9,11.6
			c0.7,2.2,3.5,3.5,7.2,5.1c1.9,0.8,5,1.4,3.8-0.8c-1-1.9-6.6-4.6-4.9-10.5c0.1-0.3,0.3-1,0.7-1c1.1,0,1.3,2.4,1.8,3.6
			c0.7,1.7,1.9,2.3,2.6,2.2C63.2,324.5,62.3,323.4,61.8,321.5z"/>
		<path id="XMLID_104_" class="st8" d="M78.7,175.1c0,0-35.5,47.8-35.5,74.5c0,18.3,8,58.6,8,58.6s1.7,0.5,3.4,0.5
			c1.7,0,3.2-0.8,3.2-0.8s0.2-51.3,3.2-60.4c3-9.1,32.7-52.3,33.3-61.9C94.8,176.2,87.5,167.5,78.7,175.1z"/>
		<path id="XMLID_105_" class="st10" d="M74.8,224.6c9.4-15.6,20.4-34.3,20.8-40c0.6-10.3-11.5-17.3-17.9-9.7
			c0,0-14.1,18.9-25.2,40.3C58.2,221.8,64.8,226.6,74.8,224.6z"/>
		<g id="XMLID_106_">
			<path id="XMLID_107_" class="st3" d="M89.2,131.9c0,0,0.8,6.1-2.9,10.6c-3.7,4.5,1.7,8.7,2.9,11.7c1.3,3.1-0.3,7.6,3.2,9.7
				c3.5,2.1,13.5,2.6,15.1-1C109.2,159.3,100.5,129.8,89.2,131.9z"/>
			<path id="XMLID_108_" class="st3" d="M129.6,140c0.5,20.1-18.2,24-29.1,24c-10.9,0-11.3-24.1-11.3-32.8s8.6-10.1,19.4-10.1
				c8.6,0,16.7,6.6,20,13C129.6,135.9,129.5,138.2,129.6,140z"/>
			<path id="XMLID_109_" class="st8" d="M109.2,128.9c-9.1,0-11.9,6.6-12,18.6c-0.1,4.5,1.1,7.6,2.7,10.4c1.2,2.1,1.8,5.9,1.1,8.2
				l-2,6.8c-1.4,6.3,1.6,9.7,6,11c1.4,0.4,5.1,7.1,5.1,7.1s1.5-7.8,2.2-8.2c2.3-1.5,1.8-4.6,1.4-7.3l-0.5-1.9
				c-0.7-2.6,0.8-5.4,3.4-6c7-1.5,8-8.8,9.9-20.2C128.4,135.6,118.3,128.9,109.2,128.9z"/>
			<path id="XMLID_110_" class="st3" d="M130.4,123.6l-5.2,1.6c-1.9,0.6-4,0.6-5.9,0l-10.4-3c-6.3,0-16.7,3.6-15.4,12.7l1.2,6.4
				c0.5,2.6,2.6,4.5,5.2,4.7c0,0,0,0,0,0c0.2,0.9,1,1.5,2,1.5c1.1,0,2-0.9,2-2l0,0c0-2.9,2-5.4,4.9-6c3.5-0.8,7.5,1.3,11.3,2.4
				c10.5,3.1,14.7-4.9,15.4-12.4c0-0.5,0.1-1,0.1-1.4C135.4,125.2,132.9,122.9,130.4,123.6z"/>
			<path id="XMLID_111_" class="st8" d="M101.5,147.6c0,2.8-1,5-3.7,5c-2.7,0-4.4-3.8-4.4-6.6c0-2.8,1.7-3.5,4.4-3.5
				C100.5,142.6,101.5,144.8,101.5,147.6z"/>
			<g id="XMLID_112_">
				<path id="XMLID_113_" class="st3" d="M121.1,167.1C121.1,167.1,121.1,167.1,121.1,167.1c-2.5,0-7.2-1.5-7.2-4.7
					c0-3.2,4.7-5.2,7.3-5.2c1.9,0,2.8,0.7,3.3,1.3c0.7,0.8,0.9,2,0.5,3.4C124,166.2,122.4,167.1,121.1,167.1z M121.2,159.3
					c-1.9,0-5.2,1.6-5.2,3.1c0,1.4,3.1,2.6,5.1,2.6c0,0,0,0,0,0c0.4,0,1.3-0.9,1.9-3.6l0,0c0.1-0.5,0.2-1.2-0.1-1.6
					C122.6,159.5,122,159.3,121.2,159.3z"/>
			</g>
			<path id="XMLID_162_" class="st9" d="M123.8,155.9c0.3,1.3-0.7,2.5-2,2.5l0,0c-1.1,0-2-0.9-2.1-2l0-8.9c0-0.3,0.1-0.6,0.4-0.9
				c0.2-0.2,0.6-0.4,0.9-0.4c0.5,0,0.9,0.3,1,0.8L123.8,155.9z"/>
		</g>
		<path id="XMLID_116_" class="st3" d="M125.1,160.7c-0.2-0.3-0.3-0.6-0.3-0.9c0-0.2-0.1-0.4-0.2-0.6c-0.1-0.2-0.3-0.2-0.5-0.2
			c-0.2,0-0.5,0.1-0.5,0.3c0.2,1.8,0.1,4.2-2.6,4.3c-3.7,0.1-8-2.4-8.9-3.9c-0.5-0.8-1.1-1.5-2-1.9c-1.2-0.5-2.2-1.5-2.6-2.8l0,0
			c-0.4-1.2-1.3-2.2-2.5-2.6l-0.5-0.2c-0.6-0.2-1.2,0.3-1.1,0.9c0.3,1.6,0.8,4.3,0.5,5.7c-0.5,2.1-0.1,4.3,0.7,5.6
			c0.4,0.6,1.8,1.5,3.1,2.2c1.3,0.7,2.4,1.8,3.1,3.2c0.6,1.1,1.6,2.3,3.3,2.9c1.7,0.6,3.8-0.4,4.3-2c0.2-0.7,0.8-1,1.4-1.2
			c1.3-0.4,2.2-1.5,2.6-2.8l0,0c0,0,1.8,0.5,2.8-2.6C125.7,162.6,125.6,161.4,125.1,160.7z"/>
	</g>
	<path id="XMLID_51_" class="st1" d="M490.4,484.7H10.8c-1.9,0-3.5-1.6-3.5-3.5l0,0c0-1.9,1.6-3.5,3.5-3.5h479.6
		c1.9,0,3.5,1.6,3.5,3.5l0,0C493.9,483.1,492.3,484.7,490.4,484.7z"/>
</g>
</svg>
